SplineFontDB: 3.2
FontName: CMUOSerif-Bold
FullName: CMUO Serif Bold Extended Roman
FamilyName: CMUO Serif
Weight: Bold
Copyright: Modified by Jihu S. Kim from CMU fonts.\n\nConverted by Andrey V. Panov from TeX fonts. Some glyphs are copied from Blue Sky fonts released by AMS.
Version: indev
ItalicAngle: 0
UnderlinePosition: -150
UnderlineWidth: 50
Ascent: 800
Descent: 200
InvalidEm: 0
sfntRevision: 0x0000b333
LayerCount: 2
Layer: 0 0 "+tLe6dAAA" 1
Layer: 1 0 "+xV66dAAA" 0
XUID: [1021 774 1001095470 13353623]
StyleMap: 0x0020
FSType: 0
OS2Version: 3
OS2_WeightWidthSlopeOnly: 0
OS2_UseTypoMetrics: 0
CreationTime: 1245310924
ModificationTime: 1591050545
PfmFamily: 17
TTFWeight: 700
TTFWidth: 5
LineGap: 200
VLineGap: 0
Panose: 2 0 8 3 0 0 0 0 0 0
OS2TypoAscent: 800
OS2TypoAOffset: 0
OS2TypoDescent: -200
OS2TypoDOffset: 0
OS2TypoLinegap: 200
OS2WinAscent: 937
OS2WinAOffset: 0
OS2WinDescent: 308
OS2WinDOffset: 0
HheadAscent: 937
HheadAOffset: 0
HheadDescent: -308
HheadDOffset: 0
OS2SubXSize: 650
OS2SubYSize: 700
OS2SubXOff: 0
OS2SubYOff: 140
OS2SupXSize: 650
OS2SupYSize: 700
OS2SupXOff: 0
OS2SupYOff: 480
OS2StrikeYSize: 49
OS2StrikeYPos: 258
OS2CapHeight: 686
OS2XHeight: 445
OS2Vendor: 'PfEd'
OS2CodePages: 0000011f.00000000
OS2UnicodeRanges: e10002ff.5201e9eb.02020004.00000000
Lookup: 1 0 0 "'case' +swDBjK1svYQA +x5DWFQAA lookup 0" { "'case' +swDBjK1svYQA +x5DWFQAA lookup 0 subtable"  } ['case' ('cyrl' <'dflt' > 'grek' <'dflt' > 'latn' <'dflt' > ) ]
Lookup: 1 0 0 "'smcp' +wYy7OMeQxdDBHAAA +wYzWFQAA +swC7OMeQuFwA in +rfi5rQAA +x5AA lookup 1" { "'smcp' +wYy7OMeQxdDBHAAA +wYzWFQAA +swC7OMeQuFwA in +rfi5rQAA +x5AA lookup 1 subtable"  } ['smcp' ('grek' <'dflt' > ) ]
Lookup: 1 0 0 "'c2sc' +swC7OMeQxdDBHAAA +wYzWFbMAuzjHkLhc in +rfi5rQAA +x5AA lookup 2" { "'c2sc' +swC7OMeQxdDBHAAA +wYzWFbMAuzjHkLhc in +rfi5rQAA +x5AA lookup 2 subtable"  } ['c2sc' ('grek' <'dflt' > ) ]

StartChar: .notdef
Encoding: 0 0 0
Width: 760
Flags: MW
TeX: 765 -10
HStem: 10 60<105 655 105 750> 705 60<105 105 105 655>
VStem: 10 60<112 112 112 663> 690 60<112 663 663 663>
LayerCount: 2
Fore
SplineSet
10 10 m 1
 10 765 l 1
 750 765 l 1
 750 10 l 1
 10 10 l 1
70 112 m 1
 346 388 l 1
 70 663 l 1
 70 112 l 1
105 70 m 1
 655 70 l 1
 380 346 l 1
 105 70 l 1
105 705 m 1
 380 429 l 1
 655 705 l 1
 105 705 l 1
414 388 m 1
 690 112 l 1
 690 663 l 1
 414 388 l 1
EndSplineSet
EndChar

StartChar: exclam
Encoding: 33 33 2
Width: 350
GlyphClass: 2
Flags: MW
TeX: 690 0
HStem: 0 155<151 194.5 151 197>
VStem: 96 156<58.5 97.5> 96 157<628.5 656 627.5 656.5> 147 54<256 265>
LayerCount: 2
Fore
SplineSet
96 634 m 0xa0
 96 679 138 705 174 705 c 0
 210 705 253 679 253 633 c 0xa0
 253 622 251 611 249 600 c 2
 201 256 l 2
 198 233 196 225 174 225 c 0
 151 225 151 236 147 265 c 2x90
 100 599 l 2
 98 610 96 623 96 634 c 0xa0
96 78 m 0xc0
 96 117 128 155 174 155 c 0
 215 155 252 122 252 77 c 0
 252 38 220 0 174 0 c 0
 127 0 96 39 96 78 c 0xc0
EndSplineSet
EndChar

StartChar: quotedbl
Encoding: 34 34 3
Width: 575
GlyphClass: 2
Flags: MW
TeX: 690 0
VStem: 127 127<644.5 667.5 643.5 669> 320 127<644.5 668>
LayerCount: 2
Fore
SplineSet
127 650 m 0
 127 688 158 710 191 710 c 0
 226 710 254 685 254 650 c 0
 254 637 209 359 209 359 c 1
 172 359 l 1
 131 616 l 2
 129 627 127 639 127 650 c 0
320 650 m 0
 320 686 348 710 383 710 c 0
 418 710 447 687 447 650 c 0
 447 639 445 627 443 616 c 2
 402 359 l 1
 365 359 l 1
 365 359 320 638 320 650 c 0
EndSplineSet
EndChar

StartChar: numbersign
Encoding: 35 35 4
Width: 958
GlyphClass: 2
Flags: MW
TeX: 690 194
HStem: 120 37<92 96 96 283 333 553 92 321 603 861> 343 36<87.5 366 96 353 96 392 404 623 673 861 861 862> 673 20G<470 484 740 754>
LayerCount: 2
Fore
SplineSet
64 138 m 0
 64 155 84 157 92 157 c 2
 295 157 l 1
 353 343 l 1
 94 343 l 2
 81 343 64 344 64 361 c 0
 64 378 81 379 96 379 c 2
 366 379 l 1
 374 407 383 436 454 660 c 0
 458 673 462 693 478 693 c 0
 490 693 496 680 495 670 c 0
 494 663 490 654 404 379 c 1
 635 379 l 1
 643 407 652 435 723 660 c 0
 727 673 732 693 748 693 c 0
 760 693 765 680 764 670 c 0
 763 663 759 654 673 379 c 1
 861 379 l 2
 873 379 892 377 892 361 c 0
 892 343 874 343 862 343 c 2
 661 343 l 1
 603 157 l 1
 862 157 l 2
 875 157 892 156 892 139 c 0
 892 122 876 120 861 120 c 2
 591 120 l 1
 583 92 574 65 503 -160 c 0
 499 -173 494 -193 478 -193 c 0
 466 -193 461 -181 462 -171 c 0
 463 -164 467 -155 553 120 c 1
 321 120 l 1
 313 92 304 65 233 -160 c 0
 229 -173 225 -193 209 -193 c 0
 198 -193 192 -183 192 -174 c 0
 192 -167 195 -158 198 -150 c 2
 283 120 l 1
 96 120 l 2
 84 120 64 122 64 138 c 0
333 157 m 1
 565 157 l 1
 623 343 l 1
 392 343 l 1
 333 157 l 1
EndSplineSet
EndChar

StartChar: dollar
Encoding: 36 36 5
Width: 575
GlyphClass: 2
Flags: MW
TeX: 749 55
HStem: -5 48<263 263> 127 125 651 48<263 263>
VStem: 63 81<535.5 547.5> 63 125<178.5 206.5 178.5 211.5> 263 48<-55 -5 -55 -5 44 283 439 651 699 750> 385 125<498.5 527.5> 429 81<147 229.5>
LayerCount: 2
Fore
SplineSet
63 185 m 0xed
 63 238 103 252 125 252 c 0
 161 252 188 224 188 189 c 0xed
 188 168 178 130 123 127 c 1
 159 59 218 48 263 43 c 1
 263 293 l 1
 230 300 146 313 93 395 c 0
 77 420 63 454 63 497 c 0
 63 598 128 688 263 699 c 1
 263 750 l 1
 311 750 l 1
 311 699 l 1
 466 691 510 593 510 522 c 0
 510 469 470 456 448 456 c 0
 415 456 385 479 385 518 c 0xf6
 385 537 395 577 448 581 c 1
 434 603 406 643 311 651 c 1
 311 428 l 1
 496 393 510 249 510 210 c 0
 510 151 487 14 311 -5 c 1
 311 -55 l 1
 263 -55 l 1
 263 -5 l 1
 94 6 63 127 63 185 c 0xed
144 546 m 0xf4
 144 525 153 460 263 439 c 1
 263 651 l 1
 194 642 144 609 144 546 c 0xf4
311 44 m 1
 416 57 429 132 429 162 c 0xe5
 429 184 421 260 311 283 c 1
 311 44 l 1
EndSplineSet
EndChar

StartChar: percent
Encoding: 37 37 6
Width: 958
GlyphClass: 2
Flags: MW
TeX: 749 55
HStem: -56 36<712.5 767 712.5 783> 311 36<712.5 769.5> 347 36<202.5 257 202.5 273> 608 36<516.5 551.5> 714 36<202.5 252.5 194 259.5>
VStem: 64 103<517 579.5 517 619> 336 47<483.5 557 477 611> 574 103<114 176.5 114 216> 846 47<80.5 208>
LayerCount: 2
Fore
SplineSet
64 549 m 0
 64 689 152 750 236 750 c 0
 269 750 293 739 314 724 c 0
 344 702 424 644 540 644 c 0
 628 644 693 679 737 731 c 0
 745 741 752 750 767 750 c 0
 781 750 797 739 797 719 c 0
 797 709 793 704 786 695 c 2
 217 -40 l 2
 210 -50 205 -56 191 -56 c 0
 174 -56 160 -42 160 -25 c 0
 160 -14 170 -1 171 0 c 2
 658 630 l 1
 608 610 562 608 541 608 c 0
 492 608 434 619 368 649 c 1
 383 602 383 566 383 548 c 0
 383 406 310 347 236 347 c 0
 155 347 64 404 64 549 c 0
167 548 m 0
 167 486 167 383 238 383 c 0
 276 383 336 418 336 549 c 0
 336 673 281 714 238 714 c 0
 167 714 167 611 167 548 c 0
574 146 m 0
 574 286 662 347 746 347 c 0
 816 347 893 292 893 145 c 0
 893 3 820 -56 746 -56 c 0
 665 -56 574 1 574 146 c 0
677 145 m 0
 677 83 677 -20 748 -20 c 0
 786 -20 846 15 846 146 c 0
 846 270 791 311 748 311 c 0
 677 311 677 208 677 145 c 0
EndSplineSet
EndChar

StartChar: ampersand
Encoding: 38 38 7
Width: 894
GlyphClass: 2
Flags: MW
TeX: 690 0
HStem: -11 47<226.5 271.5 226.5 291.5 647.5 680.5> 397 47<615 626> 669 36<340.5 377.5>
VStem: 48 128<91.5 197.5> 172 104<534 585.5> 415 47<554.5 589> 782 47<118 118>
LayerCount: 2
Fore
SplineSet
48 138 m 0xf6
 48 166 58 193 79 218 c 0
 86 226 120 255 141 273 c 2
 215 336 l 1
 185 405 172 469 172 528 c 0xee
 172 643 269 705 352 705 c 0
 430 705 462 627 462 574 c 0
 462 535 433 494 407 464 c 0
 379 433 334 391 320 379 c 1
 359 295 434 207 497 141 c 1
 572 213 632 299 688 387 c 1
 664 397 637 397 615 397 c 1
 615 444 l 1
 642 442 726 441 737 441 c 0
 764 441 804 442 836 444 c 1
 836 397 l 1
 783 397 750 397 736 377 c 2
 654 258 l 2
 608 191 575 157 529 110 c 1
 575 66 624 36 671 36 c 0
 690 36 778 43 782 118 c 1
 829 118 l 1
 826 34 748 -11 666 -11 c 0
 563 -11 483 36 455 52 c 1
 394 12 327 -11 256 -11 c 0
 146 -11 48 45 48 138 c 0xf6
176 174 m 0xf6
 176 145 185 36 268 36 c 0
 275 36 347 36 415 80 c 1
 325 148 266 236 231 302 c 1
 190 273 176 221 176 174 c 0xf6
276 565 m 0xee
 276 503 293 444 305 415 c 1
 372 475 415 529 415 574 c 0
 415 604 402 669 353 669 c 0
 328 669 276 648 276 565 c 0xee
EndSplineSet
EndChar

StartChar: quotesingle
Encoding: 39 39 8
Width: 319
GlyphClass: 2
Flags: MW
TeX: 690 0
VStem: 95 127<645.5 669 645.5 669.5>
LayerCount: 2
Fore
SplineSet
95 650 m 0
 95 689 125 710 159 710 c 0
 192 710 222 688 222 650 c 0
 222 641 220 633 219 624 c 2
 177 359 l 1
 140 359 l 1
 100 614 l 2
 98 626 95 638 95 650 c 0
EndSplineSet
EndChar

StartChar: parenleft
Encoding: 40 40 9
Width: 447
GlyphClass: 2
Flags: MW
TeX: 749 249
VStem: 108 97<206 304>
LayerCount: 2
Fore
SplineSet
108 251 m 0
 108 357 131 541 287 696 c 0
 305 713 347 750 364 750 c 0
 372 750 382 747 382 736 c 0
 382 731 381 730 366 715 c 0
 256 604 205 447 205 250 c 0
 205 162 217 70 243 -9 c 0
 285 -137 350 -198 379 -225 c 0
 379 -226 382 -230 382 -235 c 0
 382 -246 372 -249 364 -249 c 0
 345 -249 254 -182 188 -67 c 0
 141 16 108 126 108 251 c 0
EndSplineSet
EndChar

StartChar: parenright
Encoding: 41 41 10
Width: 447
GlyphClass: 2
Flags: MW
TeX: 749 249
VStem: 241 97<197 312.5 197 329.5>
LayerCount: 2
Fore
SplineSet
64 -235 m 0
 64 -230 65 -229 80 -214 c 0
 190 -103 241 54 241 251 c 0
 241 408 207 585 81 713 c 0
 64 729 64 731 64 736 c 0
 64 747 74 750 82 750 c 0
 101 750 192 683 258 568 c 0
 305 485 338 375 338 250 c 0
 338 144 315 -40 159 -195 c 0
 141 -212 99 -249 82 -249 c 0
 74 -249 64 -246 64 -235 c 0
EndSplineSet
EndChar

StartChar: asterisk
Encoding: 42 42 11
Width: 575
GlyphClass: 2
Flags: MW
TeX: 749 0
HStem: 392 87<104 121> 577 87<104 121>
VStem: 243 88<331 347.5 331 347.5 708.5 725>
LayerCount: 2
Fore
SplineSet
74 440 m 0
 74 469 95 476 104 479 c 2
 245 528 l 1
 104 577 l 2
 95 580 74 587 74 616 c 0
 74 645 98 664 118 664 c 0
 124 664 133 662 145 653 c 2
 268 560 l 1
 246 688 l 2
 243 704 243 706 243 711 c 0
 243 739 270 750 287 750 c 0
 304 750 331 740 331 711 c 0
 331 706 331 704 328 688 c 2
 306 560 l 1
 429 653 l 2
 441 662 450 664 456 664 c 0
 476 664 500 645 500 616 c 0
 500 587 479 580 470 577 c 2
 329 528 l 1
 470 479 l 2
 479 476 500 469 500 440 c 0
 500 411 476 392 456 392 c 0
 451 392 442 393 429 403 c 2
 307 495 l 1
 320 418 l 2
 324 393 331 350 331 345 c 0
 331 317 304 306 287 306 c 0
 270 306 243 316 243 345 c 0
 243 350 243 352 246 368 c 2
 268 496 l 1
 145 403 l 2
 133 394 124 392 118 392 c 0
 98 392 74 411 74 440 c 0
EndSplineSet
EndChar

StartChar: plus
Encoding: 43 43 12
Width: 894
GlyphClass: 2
Flags: MW
TeX: 633 133
HStem: 232 36<97 98 98 428 464 786>
VStem: 428 36<-91.5 -90 -90 232 268 590>
LayerCount: 2
Fore
SplineSet
64 250 m 0
 64 267 83 268 97 268 c 2
 428 268 l 1
 428 601 l 2
 428 614 430 632 446 632 c 0
 462 632 465 613 465 600 c 0
 465 596 464 592 464 590 c 2
 464 268 l 1
 795 268 l 2
 809 268 828 267 828 250 c 0
 828 234 810 231 797 231 c 0
 792 231 788 232 786 232 c 2
 464 232 l 1
 464 -90 l 2
 464 -93 465 -96 465 -100 c 0
 465 -114 462 -132 446 -132 c 0
 430 -132 428 -114 428 -100 c 2
 428 232 l 1
 98 232 l 2
 82 232 64 233 64 250 c 0
EndSplineSet
EndChar

StartChar: comma
Encoding: 44 44 13
Width: 319
GlyphClass: 2
Flags: MW
TeX: 155 194
HStem: -194 21G<126 137.5> 0 156<135 175>
VStem: 81 169<58 65 -38.5 99.5>
LayerCount: 2
Fore
SplineSet
81 78 m 0
 81 121 112 156 158 156 c 0
 216 156 250 99 250 31 c 0
 250 -108 145 -194 130 -194 c 0
 122 -194 111 -184 111 -174 c 0
 111 -168 114 -165 120 -160 c 0
 141 -142 206 -89 214 20 c 1
 211 17 191 0 159 0 c 0
 108 0 81 38 81 78 c 0
EndSplineSet
EndChar

StartChar: hyphen
Encoding: 45 45 14
Width: 383
GlyphClass: 2
Flags: MW
TeX: 444 0
HStem: 174 97<12 318 12 318>
VStem: 12 306<174 271 174 271>
LayerCount: 2
Fore
SplineSet
12 174 m 1
 12 271 l 1
 318 271 l 1
 318 174 l 1
 12 174 l 1
EndSplineSet
EndChar

StartChar: period
Encoding: 46 46 15
Width: 319
GlyphClass: 2
Flags: MW
TeX: 155 0
HStem: 0 156<140 179.5 140 182>
VStem: 81 156<58.5 100.5 58.5 101.5>
LayerCount: 2
Fore
SplineSet
81 78 m 0
 81 125 121 156 159 156 c 0
 200 156 237 123 237 78 c 0
 237 39 205 0 159 0 c 0
 118 0 81 33 81 78 c 0
EndSplineSet
EndChar

StartChar: slash
Encoding: 47 47 16
Width: 575
GlyphClass: 2
Flags: W
TeX: 749 249
LayerCount: 2
Fore
SplineSet
64 -231 m 0
 64 -224 68 -217 76 -197 c 2
 468 721 l 2
 472 730 477 748 492 748 c 0
 501 748 509 740 509 731 c 0
 509 723 504 714 501 706 c 2
 106 -221 l 2
 102 -230 96 -249 81 -249 c 0
 72 -249 64 -240 64 -231 c 0
EndSplineSet
EndChar

StartChar: zero
Encoding: 48 48 17
Width: 575
GlyphClass: 2
Flags: MW
TeX: 648 0
HStem: -11 36<269 302 269 407> 619 36<275 305.5>
VStem: 45 128<303.5 367 303.5 368> 401 128<303 367.5 269 372>
LayerCount: 2
Fore
SplineSet
45 319 m 0
 45 417 46 655 287 655 c 0
 528 655 529 416 529 319 c 0
 529 219 527 -11 287 -11 c 0
 46 -11 45 220 45 319 c 0
173 331 m 0
 173 276 173 172 182 120 c 0
 195 47 251 25 287 25 c 0
 317 25 380 39 394 132 c 0
 401 184 401 275 401 331 c 0
 401 413 401 519 384 556 c 0
 365 600 324 619 287 619 c 0
 263 619 193 609 181 520 c 0
 173 468 173 403 173 331 c 0
EndSplineSet
Substitution2: "'onum' +xiy03MKk0MDHfMIrx5AA lookup 18 subtable" zerooldstyle
EndChar

StartChar: one
Encoding: 49 49 18
Width: 575
GlyphClass: 2
Flags: MW
TeX: 648 0
HStem: 3 44<96 319.5> 544 47<85 105 85 105> 635 20G<322.5 341>
VStem: 235 119<47 564 564 564>
LayerCount: 2
Fore
SplineSet
85 544 m 1
 85 591 l 1
 105 591 l 2
 126 591 229 591 306 648 c 0
 315 655 317 655 328 655 c 0
 354 655 354 645 354 623 c 2
 354 47 l 1
 494 47 l 1
 494 0 l 1
 450 3 344 3 295 3 c 0
 246 3 140 3 96 0 c 1
 96 47 l 1
 235 47 l 1
 235 564 l 1
 176 545 121 544 105 544 c 2
 85 544 l 1
EndSplineSet
Substitution2: "'onum' +xiy03MKk0MDHfMIrx5AA lookup 18 subtable" oneoldstyle
EndChar

StartChar: two
Encoding: 50 50 19
Width: 575
GlyphClass: 2
Flags: MW
TeX: 648 0
HStem: 0 125<195 342 342 350 195 486> 608 47<229 290>
VStem: 57 144<476 527 476 548> 379 138<430.5 502.5> 470 47<222 222>
LayerCount: 2
Fore
SplineSet
57 0 m 1xe8
 57 18 l 2
 57 38 57 40 70 52 c 2
 271 257 l 2
 341 328 379 396 379 465 c 0
 379 540 333 608 247 608 c 0
 211 608 173 597 144 573 c 1
 159 569 201 553 201 501 c 0
 201 451 161 429 129 429 c 0
 105 429 57 444 57 503 c 0
 57 593 151 655 272 655 c 0
 413 655 517 581 517 466 c 0xf0
 517 371 453 324 339 240 c 0
 294 207 242 164 195 125 c 1
 342 125 l 2
 358 125 433 125 444 131 c 0
 458 138 467 202 470 222 c 1
 517 222 l 1
 486 0 l 1
 57 0 l 1xe8
EndSplineSet
Substitution2: "'onum' +xiy03MKk0MDHfMIrx5AA lookup 18 subtable" twooldstyle
EndChar

StartChar: three
Encoding: 51 51 20
Width: 575
GlyphClass: 2
Flags: MW
TeX: 648 0
HStem: -11 43<256 321 256 363.5> 330 35 616 39<255.5 312.5>
VStem: 48 153<120.5 163.5 120.5 164.5> 80 139<491.5 539 491.5 551> 357 137<512.5 535.5> 373 153<157.5 206.5>
LayerCount: 2
Fore
SplineSet
48 139 m 0xf2
 48 190 83 217 125 217 c 0
 169 217 201 186 201 141 c 0
 201 100 176 75 143 66 c 1
 191 36 243 32 269 32 c 0
 373 32 373 134 373 181 c 0xf2
 373 232 373 330 264 330 c 2
 220 330 l 2
 202 330 192 330 192 348 c 0
 192 354 194 364 204 365 c 0
 209 366 211 367 252 369 c 0
 356 375 357 506 357 519 c 0
 357 552 354 616 271 616 c 0
 240 616 196 608 161 580 c 1
 165 579 219 568 219 510 c 0
 219 473 194 441 149 441 c 0
 111 441 80 468 80 511 c 0
 80 591 158 655 277 655 c 0
 418 655 494 593 494 516 c 0xec
 494 430 421 373 352 352 c 1
 497 321 526 235 526 180 c 0
 526 89 453 -11 274 -11 c 0
 145 -11 48 49 48 139 c 0xf2
EndSplineSet
Substitution2: "'onum' +xiy03MKk0MDHfMIrx5AA lookup 18 subtable" threeoldstyle
EndChar

StartChar: four
Encoding: 52 52 21
Width: 575
GlyphClass: 2
Flags: MW
TeX: 648 0
HStem: 3 44<208 400> 156 47<32 32 84 320 445 542> 636 20G<404.5 429>
VStem: 320 125<47 156 47 156> 331 114<203 513 513 513>
LayerCount: 2
Fore
SplineSet
32 156 m 1xf0
 32 203 l 1
 381 640 l 2
 393 655 394 656 415 656 c 0
 443 656 445 651 445 624 c 2
 445 203 l 1xe8
 542 203 l 1
 542 156 l 1
 445 156 l 1
 445 47 l 1
 542 47 l 1
 542 0 l 1
 507 3 420 3 380 3 c 0
 337 3 246 3 208 0 c 1
 208 47 l 1
 320 47 l 1
 320 156 l 1
 32 156 l 1xf0
84 203 m 1
 331 203 l 1
 331 513 l 1
 84 203 l 1
EndSplineSet
Substitution2: "'onum' +xiy03MKk0MDHfMIrx5AA lookup 18 subtable" fouroldstyle
EndChar

StartChar: five
Encoding: 53 53 22
Width: 575
GlyphClass: 2
Flags: MW
TeX: 648 0
HStem: -11 43<243 315 243 339> 373 36<275.5 330.5> 499 124<252 307> 635 20G<115 123.5 456.5 464>
VStem: 57 134<140.5 187.5 140.5 189.5> 108 53<374 506 374 628> 375 142<168.5 245>
LayerCount: 2
Fore
SplineSet
57 159 m 0xfa
 57 220 109 229 124 229 c 0
 148 229 191 214 191 161 c 0xfa
 191 120 162 96 126 94 c 1
 168 37 231 32 255 32 c 0
 375 32 375 132 375 205 c 0
 375 285 375 373 286 373 c 0
 245 373 191 363 152 317 c 0
 145 309 143 305 130 305 c 0
 108 305 108 318 108 336 c 2
 108 628 l 2
 108 644 108 655 122 655 c 0
 125 655 126 654 135 651 c 0
 161 642 214 623 290 623 c 0
 333 623 386 629 443 651 c 0
 454 655 455 655 458 655 c 0
 470 655 472 644 472 637 c 0
 472 612 380 499 234 499 c 0
 200 499 189 501 161 506 c 1
 161 374 l 1xf6
 208 406 261 409 290 409 c 0
 438 409 517 316 517 201 c 0
 517 79 419 -11 259 -11 c 0
 135 -11 57 74 57 159 c 0xfa
EndSplineSet
Substitution2: "'onum' +xiy03MKk0MDHfMIrx5AA lookup 18 subtable" fiveoldstyle
EndChar

StartChar: six
Encoding: 54 54 23
Width: 575
GlyphClass: 2
Flags: MW
TeX: 648 0
HStem: -11 43<263 339.5 263 360.5> 382 36<293 342.5> 616 39<320.5 360>
VStem: 48 138<201 443> 372 125<511 543> 390 136<156.5 257>
LayerCount: 2
Fore
SplineSet
48 317 m 0xf4
 48 569 213 655 349 655 c 0
 455 655 497 592 497 530 c 0
 497 492 473 466 434 466 c 0
 395 466 372 494 372 528 c 0xf8
 372 558 390 585 426 590 c 1
 403 613 369 616 351 616 c 0
 290 616 236 580 212 533 c 0
 205 518 184 475 184 361 c 2
 184 342 l 1
 226 418 282 418 304 418 c 0
 425 418 526 345 526 205 c 0
 526 71 430 -11 291 -11 c 0
 221 -11 145 13 98 89 c 0
 57 158 48 238 48 317 c 0xf4
186 210 m 0
 186 192 186 119 202 87 c 0
 210 71 237 32 289 32 c 0
 390 32 390 106 390 207 c 0xf4
 390 307 390 382 295 382 c 0
 240 382 186 335 186 210 c 0
EndSplineSet
Substitution2: "'onum' +xiy03MKk0MDHfMIrx5AA lookup 18 subtable" sixoldstyle
EndChar

StartChar: seven
Encoding: 55 55 24
Width: 575
GlyphClass: 2
Flags: MW
TeX: 648 0
HStem: -11 21G<252 263> 519 125<238.5 558 354 416> 656 20G<99 146 146 146>
VStem: 64 47<422 422> 99 47<676 676> 193 125<27 60 60 106 27 133>
LayerCount: 2
Fore
SplineSet
64 422 m 1xf4
 99 676 l 1
 146 676 l 1xec
 148 666 149 657 170 653 c 0
 184 649 331 644 354 644 c 2
 558 644 l 1
 558 609 558 607 548 596 c 2
 393 416 l 2
 358 375 337 316 328 249 c 0
 321 202 318 154 318 106 c 2
 318 60 l 2
 318 -6 271 -11 255 -11 c 0
 249 -11 193 -11 193 59 c 0
 193 207 265 342 361 454 c 2
 416 519 l 1
 247 519 l 2
 230 519 149 519 138 513 c 0
 134 511 121 498 111 422 c 1
 64 422 l 1xf4
EndSplineSet
Substitution2: "'onum' +xiy03MKk0MDHfMIrx5AA lookup 18 subtable" sevenoldstyle
EndChar

StartChar: eight
Encoding: 56 56 25
Width: 575
GlyphClass: 2
Flags: MW
TeX: 648 0
HStem: -11 43<240 317.5 240 365> 616 39<265 327>
VStem: 48 86<122 198> 80 75<522 528> 419 75<482.5 541> 440 86<132 156>
LayerCount: 2
Fore
SplineSet
48 161 m 0xe4
 48 235 92 292 176 329 c 1
 98 373 80 436 80 480 c 0
 80 576 150 655 289 655 c 0
 403 655 494 610 494 508 c 0xd8
 494 450 463 406 393 370 c 1
 442 342 526 295 526 187 c 0
 526 77 445 -11 285 -11 c 0
 156 -11 48 40 48 161 c 0xe4
134 161 m 0xe4
 134 83 191 32 289 32 c 0
 346 32 440 48 440 132 c 0
 440 180 403 201 359 226 c 0
 304 257 257 284 222 302 c 1
 187 282 134 239 134 161 c 0xe4
155 539 m 0xd8
 155 505 183 488 199 479 c 2
 349 395 l 1
 393 424 419 458 419 507 c 0
 419 575 369 616 285 616 c 0
 245 616 155 609 155 539 c 0xd8
EndSplineSet
Substitution2: "'onum' +xiy03MKk0MDHfMIrx5AA lookup 18 subtable" eightoldstyle
EndChar

StartChar: nine
Encoding: 57 57 26
Width: 575
GlyphClass: 2
Flags: MW
TeX: 648 0
HStem: -11 43<228 271.5 228 304> 227 36<231.5 287.5> 616 39<237.5 320.5>
VStem: 48 136<388 487 388 507> 77 125<93.5 133 93.5 133> 390 136<282 304 304 304>
LayerCount: 2
Fore
SplineSet
48 440 m 0xf4
 48 574 147 655 289 655 c 0
 526 655 526 396 526 329 c 0
 526 73 369 -11 239 -11 c 0
 128 -11 77 46 77 114 c 0
 77 152 101 178 140 178 c 0
 179 178 202 150 202 116 c 0xec
 202 71 165 57 153 54 c 1
 183 34 219 32 237 32 c 0
 306 32 349 77 366 116 c 0
 381 150 390 209 390 282 c 2
 390 304 l 1
 352 234 305 227 270 227 c 0
 147 227 48 302 48 440 c 0xf4
184 438 m 0xf4
 184 338 184 263 279 263 c 0
 363 263 389 365 389 428 c 0
 389 462 389 520 377 553 c 0
 373 563 350 616 291 616 c 0
 184 616 184 536 184 438 c 0xf4
EndSplineSet
Substitution2: "'onum' +xiy03MKk0MDHfMIrx5AA lookup 18 subtable" nineoldstyle
EndChar

StartChar: colon
Encoding: 58 58 27
Width: 319
GlyphClass: 2
Flags: MW
TeX: 444 0
HStem: 0 156<137 180> 288 156<137 180>
VStem: 81 156<56.5 99.5 344.5 387.5>
LayerCount: 2
Fore
SplineSet
81 366 m 0
 81 409 115 444 159 444 c 0
 201 444 237 409 237 366 c 0
 237 323 201 288 159 288 c 0
 115 288 81 323 81 366 c 0
81 78 m 0
 81 121 115 156 159 156 c 0
 201 156 237 121 237 78 c 0
 237 35 201 0 159 0 c 0
 115 0 81 35 81 78 c 0
EndSplineSet
EndChar

StartChar: semicolon
Encoding: 59 59 28
Width: 319
GlyphClass: 2
Flags: MW
TeX: 444 194
HStem: -194 21<126 137.5> 0 156<135 175> 289 156<140 179.5 140 182>
VStem: 81 156<347.5 389.5 347.5 390.5> 81 169<58 65 -38.5 99.5>
LayerCount: 2
Fore
SplineSet
81 367 m 0x30
 81 414 121 445 159 445 c 0
 200 445 237 412 237 367 c 0
 237 328 205 289 159 289 c 0
 118 289 81 322 81 367 c 0x30
81 78 m 0xc8
 81 121 112 156 158 156 c 0
 216 156 250 99 250 31 c 0
 250 -108 145 -194 130 -194 c 0
 122 -194 111 -184 111 -174 c 0
 111 -168 114 -165 120 -160 c 0
 141 -142 206 -89 214 20 c 1
 211 17 191 0 159 0 c 0
 108 0 81 38 81 78 c 0xc8
EndSplineSet
EndChar

StartChar: less
Encoding: 60 60 29
Width: 894
GlyphClass: 2
Flags: W
TeX: 585 85
LayerCount: 2
Fore
SplineSet
96 250 m 0
 96 262 109 268 118 272 c 2
 757 566 l 2
 763 569 771 572 778 572 c 0
 787 572 795 565 795 555 c 0
 795 542 780 535 775 533 c 2
 157 250 l 1
 186 238 214 224 242 211 c 2
 775 -34 l 2
 780 -36 795 -43 795 -56 c 0
 795 -66 787 -73 778 -73 c 0
 771 -73 763 -69 757 -66 c 2
 118 227 l 2
 109 231 96 238 96 250 c 0
EndSplineSet
EndChar

StartChar: equal
Encoding: 61 61 30
Width: 894
GlyphClass: 2
Flags: MW
TeX: 391 -108
HStem: 120 37<80.5 802 93 802 93 803> 343 36<80.5 802 93 802 802 803>
LayerCount: 2
Fore
SplineSet
64 139 m 0
 64 154 79 157 93 157 c 2
 802 157 l 2
 825 156 828 145 828 139 c 0
 828 124 815 120 803 120 c 2
 92 120 l 2
 69 120 64 132 64 139 c 0
64 361 m 0
 64 376 79 379 93 379 c 2
 802 379 l 2
 824 379 828 369 828 362 c 0
 828 347 815 343 803 343 c 2
 92 343 l 2
 69 343 64 354 64 361 c 0
EndSplineSet
EndChar

StartChar: greater
Encoding: 62 62 31
Width: 894
GlyphClass: 2
Flags: W
TeX: 585 85
LayerCount: 2
Fore
SplineSet
97 -56 m 0
 97 -47 102 -41 117 -34 c 2
 735 250 l 1
 706 262 678 276 649 289 c 2
 117 533 l 2
 112 535 97 542 97 555 c 0
 97 565 105 572 114 572 c 0
 121 572 129 569 135 566 c 2
 774 272 l 2
 783 268 795 262 795 250 c 0
 795 238 783 232 774 228 c 2
 135 -66 l 2
 129 -69 121 -73 114 -73 c 0
 105 -73 97 -66 97 -56 c 0
EndSplineSet
EndChar

StartChar: question
Encoding: 63 63 32
Width: 543
GlyphClass: 2
Flags: MW
TeX: 690 0
HStem: 0 156<233 276> 664 36<234 281.5 193.5 303>
VStem: 64 125<551.5 595.5 551.5 605> 177 156<56.5 99.5> 232 47<253 256 256 283 244 291 244 323.5> 350 128<556 601.5>
LayerCount: 2
Fore
SplineSet
64 573 m 0xec
 64 637 124 700 263 700 c 0
 300 700 478 700 478 571 c 0
 478 508 430 481 410 469 c 0
 372 447 279 386 279 283 c 2
 279 256 l 2
 279 232 279 226 255 226 c 0
 232 226 232 231 232 253 c 2
 232 291 l 2
 232 356 260 433 322 498 c 0
 342 518 350 534 350 578 c 0
 350 625 349 664 257 664 c 0
 211 664 170 652 144 633 c 1
 146 632 189 619 189 572 c 0
 189 531 158 509 126 509 c 0
 101 509 64 525 64 573 c 0xec
177 78 m 0x90
 177 121 211 156 255 156 c 0
 297 156 333 121 333 78 c 0
 333 35 297 0 255 0 c 0
 211 0 177 35 177 78 c 0x90
EndSplineSet
EndChar

StartChar: at
Encoding: 64 64 33
Width: 894
GlyphClass: 2
Flags: MW
TeX: 690 0
HStem: -6 36<334.5 500 334.5 549> 69 24 128 36<418 465 418 468 692.5 739> 530 36<418 465.5> 664 36<341 537.5>
VStem: 64 47<262 440 262 446.5> 217 114<283 411.5 283 413> 562 114<222 223 223 453> 782 47<315 450.5>
LayerCount: 2
Fore
SplineSet
64 347 m 0
 64 546 201 700 447 700 c 0
 681 700 829 558 829 345 c 0
 829 285 820 128 699 128 c 0
 673 128 605 132 574 173 c 1
 536 141 491 128 445 128 c 0
 308 128 217 216 217 347 c 0
 217 479 309 566 445 566 c 0
 522 566 578 529 607 482 c 1
 646 482 l 2
 675 482 676 480 676 453 c 2
 676 223 l 2
 676 209 676 164 709 164 c 0
 769 164 782 250 782 340 c 0
 782 561 629 664 446 664 c 0
 236 664 111 533 111 347 c 0
 111 177 219 30 450 30 c 0
 550 30 649 50 743 86 c 0
 759 93 761 93 777 93 c 2
 801 93 l 2
 816 93 829 93 829 79 c 0
 829 74 826 70 826 69 c 0
 802 57 647 -6 451 -6 c 0
 184 -6 64 163 64 347 c 0
331 347 m 0
 331 219 388 164 448 164 c 0
 482 164 531 178 562 222 c 1
 562 472 l 1
 531 515 483 530 448 530 c 0
 388 530 331 476 331 347 c 0
EndSplineSet
EndChar

StartChar: A
Encoding: 65 65 34
Width: 869
GlyphClass: 2
Flags: MW
TeX: 690 0
HStem: 0 47<41 62> 193 47<275 503 275 523 255 503> 678 20G<420 442.5>
AnchorPoint: "Anchor-5" 434 697 basechar 0
AnchorPoint: "Anchor-4" 434 0 basechar 0
AnchorPoint: "Anchor-1" 647 0 basechar 0
LayerCount: 2
Fore
SplineSet
41 0 m 1
 41 47 l 1
 62 47 l 2
 138 47 141 55 147 70 c 2
 395 672 l 2
 402 690 406 698 434 698 c 0
 451 698 463 698 474 672 c 2
 730 47 l 1
 827 47 l 1
 827 0 l 1
 792 3 704 3 664 3 c 0
 621 3 526 3 488 0 c 1
 488 47 l 1
 583 47 l 1
 523 193 l 1
 255 193 l 1
 205 72 l 2
 204 71 201 61 201 60 c 0
 201 47 288 47 290 47 c 1
 290 0 l 1
 253 3 197 3 158 3 c 0
 127 3 79 1 41 0 c 1
275 240 m 1
 503 240 l 1
 389 518 l 1
 275 240 l 1
EndSplineSet
Substitution2: "'c2sc' +swC7OMeQxdDBHAAA +wYzWFbMAuzjHkLhc lookup 4 subtable" A.sc
EndChar

StartChar: B
Encoding: 66 66 35
Width: 818
GlyphClass: 2
Flags: MW
TeX: 690 0
HStem: 0 47<39 147 39 147 278 462 462 503> 339 36<278 434 434 472 278 434> 639 47<39 147 39 473 278 278 278 460>
VStem: 147 131<47 339 375 639> 579 142<475.5 537> 606 147<181 192.5>
AnchorPoint: "Anchor-5" 371 697 basechar 0
AnchorPoint: "Anchor-4" 371 0 basechar 0
LayerCount: 2
Fore
SplineSet
39 0 m 1xf4
 39 47 l 1
 147 47 l 1
 147 639 l 1
 39 639 l 1
 39 686 l 1
 473 686 l 2
 634 686 721 606 721 514 c 0xf8
 721 437 656 377 548 358 c 1
 667 349 753 282 753 186 c 0
 753 88 669 0 503 0 c 2
 39 0 l 1xf4
278 47 m 1
 462 47 l 2
 606 47 606 175 606 187 c 0xf4
 606 198 606 254 573 296 c 0
 539 339 492 339 472 339 c 2
 278 339 l 1
 278 47 l 1
278 375 m 1
 434 375 l 2
 531 375 579 437 579 514 c 0xf8
 579 560 561 639 460 639 c 2
 278 639 l 1
 278 375 l 1
EndSplineSet
Substitution2: "'c2sc' +swC7OMeQxdDBHAAA +wYzWFbMAuzjHkLhc lookup 4 subtable" B.sc
EndChar

StartChar: C
Encoding: 67 67 36
Width: 830
GlyphClass: 2
Flags: MW
TeX: 690 0
HStem: -11 47<451 540.5 451 559.5> 650 47<461 500 341.5 541>
VStem: 64 153<298 371 298 445.5> 712 54 719 47
AnchorPoint: "Anchor-5" 465 697 basechar 0
AnchorPoint: "Anchor-4" 466 0 basechar 0
LayerCount: 2
Fore
SplineSet
64 343 m 0xe8
 64 548 217 697 466 697 c 0
 534 697 601 679 663 629 c 1
 729 688 l 2
 737 695 739 697 748 697 c 0
 766 697 766 688 766 669 c 2xe8
 766 454 l 2
 766 428 765 426 739 426 c 0
 716 426 715 428 712 447 c 0xf0
 690 574 595 650 487 650 c 0
 435 650 348 639 283 573 c 0
 220 507 217 399 217 343 c 0
 217 253 229 178 276 121 c 0
 328 60 412 36 490 36 c 0
 591 36 712 97 719 231 c 0
 720 248 729 248 742 248 c 0
 759 248 766 247 766 227 c 0
 766 112 653 -11 466 -11 c 0
 217 -11 64 138 64 343 c 0xe8
EndSplineSet
Substitution2: "'c2sc' +swC7OMeQxdDBHAAA +wYzWFbMAuzjHkLhc lookup 4 subtable" C.sc
EndChar

StartChar: D
Encoding: 68 68 37
Width: 881
GlyphClass: 2
Flags: MW
TeX: 690 0
HStem: 0 47<39 147 39 147 283 429 429 459.5> 639 47<39 147 39 469 283 283 283 429>
VStem: 147 136<47 639> 670 147<283.5 384.5>
AnchorPoint: "Anchor-5" 403 697 basechar 0
AnchorPoint: "Anchor-4" 403 0 basechar 0
LayerCount: 2
Fore
SplineSet
39 0 m 1
 39 47 l 1
 147 47 l 1
 147 639 l 1
 39 639 l 1
 39 686 l 1
 469 686 l 2
 667 686 817 557 817 337 c 0
 817 123 667 0 470 0 c 2
 39 0 l 1
283 47 m 1
 429 47 l 2
 490 47 578 63 626 131 c 0
 658 176 670 229 670 338 c 0
 670 431 662 499 627 550 c 0
 578 620 495 639 429 639 c 2
 283 639 l 1
 283 47 l 1
EndSplineSet
Substitution2: "'c2sc' +swC7OMeQxdDBHAAA +wYzWFbMAuzjHkLhc lookup 4 subtable" D.sc
EndChar

StartChar: E
Encoding: 69 69 38
Width: 755
GlyphClass: 2
Flags: MW
TeX: 690 0
HStem: 0 47<39 147 39 147 289 441 441 533.5> 329 47<289 344 289 344> 633 47<39 147 39 660 289 289 289 441>
VStem: 147 142<47 329 376 633> 450 47<212 249 456 493>
AnchorPoint: "Anchor-5" 381 697 basechar 0
AnchorPoint: "Anchor-4" 381 0 basechar 0
AnchorPoint: "Anchor-1" 381 0 basechar 0
LayerCount: 2
Fore
SplineSet
39 0 m 1
 39 47 l 1
 147 47 l 1
 147 633 l 1
 39 633 l 1
 39 680 l 1
 660 680 l 1
 691 439 l 1
 644 439 l 1
 628 560 602 633 441 633 c 2
 289 633 l 1
 289 376 l 1
 344 376 l 2
 441 376 450 419 450 493 c 1
 497 493 l 1
 497 212 l 1
 450 212 l 1
 450 286 440 329 344 329 c 2
 289 329 l 1
 289 47 l 1
 441 47 l 2
 626 47 654 136 676 274 c 1
 723 274 l 1
 677 0 l 1
 39 0 l 1
EndSplineSet
Substitution2: "'c2sc' +swC7OMeQxdDBHAAA +wYzWFbMAuzjHkLhc lookup 4 subtable" E.sc
EndChar

StartChar: F
Encoding: 70 70 39
Width: 723
GlyphClass: 2
Flags: MW
TeX: 690 0
HStem: 0 47<39 147> 317 47<289 339 289 339> 633 47<39 147 39 644 289 289 289 429>
VStem: 147 142<47 317 364 633> 444 47<200 237 444 481> 628 47<439 439>
AnchorPoint: "Anchor-5" 357 697 basechar 0
AnchorPoint: "Anchor-4" 357 0 basechar 0
LayerCount: 2
Fore
SplineSet
39 0 m 1
 39 47 l 1
 147 47 l 1
 147 633 l 1
 39 633 l 1
 39 680 l 1
 644 680 l 1
 675 439 l 1
 628 439 l 1
 613 556 590 633 429 633 c 2
 289 633 l 1
 289 364 l 1
 339 364 l 2
 436 364 444 407 444 481 c 1
 491 481 l 1
 491 200 l 1
 444 200 l 1
 444 274 435 317 339 317 c 2
 289 317 l 1
 289 47 l 1
 424 47 l 1
 424 0 l 1
 380 3 271 3 222 3 c 0
 178 3 77 3 39 0 c 1
EndSplineSet
Substitution2: "'c2sc' +swC7OMeQxdDBHAAA +wYzWFbMAuzjHkLhc lookup 4 subtable" F.sc
EndChar

StartChar: G
Encoding: 71 71 40
Width: 904
GlyphClass: 2
Flags: MW
TeX: 690 0
HStem: -11 47<451 483.5> 0 21G<747.5 758> 229 44<479 703.5> 650 47<439 491 342 540.5>
VStem: 64 153<298.5 400 298.5 446.5> 623 142<128 229> 711 54
AnchorPoint: "Anchor-5" 465 697 basechar 0
AnchorPoint: "Anchor-4" 467 0 basechar 0
LayerCount: 2
Fore
SplineSet
64 343 m 0xba
 64 550 219 697 465 697 c 0
 517 697 589 687 662 629 c 1
 728 688 l 2
 736 695 738 697 747 697 c 0
 765 697 765 688 765 669 c 2
 765 454 l 2
 765 428 764 426 738 426 c 0
 715 426 714 428 711 447 c 0xba
 689 574 594 650 487 650 c 0
 391 650 314 613 274 563 c 0
 237 514 217 456 217 344 c 0
 217 253 230 182 273 127 c 0
 322 65 408 36 494 36 c 0
 526 36 558 42 584 57 c 0
 623 80 623 109 623 128 c 2
 623 229 l 1
 479 229 l 1
 479 276 l 1
 533 273 626 273 684 273 c 0
 723 273 810 273 845 276 c 1
 845 229 l 1
 765 229 l 1xbc
 765 28 l 2
 765 13 765 0 751 0 c 0x7a
 744 0 684 26 653 53 c 1
 603 -9 500 -11 467 -11 c 0
 209 -11 64 144 64 343 c 0xba
EndSplineSet
Substitution2: "'c2sc' +swC7OMeQxdDBHAAA +wYzWFbMAuzjHkLhc lookup 4 subtable" G.sc
EndChar

StartChar: H
Encoding: 72 72 41
Width: 900
GlyphClass: 2
Flags: MW
TeX: 690 0
HStem: 0 47<39 147> 333 47<289 610 289 610> 639 47<39 147 39 39>
VStem: 147 142<47 333 380 639> 610 142<47 333 333 333 380 639 47 639>
AnchorPoint: "Anchor-5" 450 697 basechar 0
AnchorPoint: "Anchor-4" 450 0 basechar 0
LayerCount: 2
Fore
SplineSet
39 0 m 1
 39 47 l 1
 147 47 l 1
 147 639 l 1
 39 639 l 1
 39 686 l 1
 77 683 175 683 218 683 c 0
 261 683 359 683 397 686 c 1
 397 639 l 1
 289 639 l 1
 289 380 l 1
 610 380 l 1
 610 639 l 1
 502 639 l 1
 502 686 l 1
 540 683 638 683 681 683 c 0
 724 683 822 683 860 686 c 1
 860 639 l 1
 752 639 l 1
 752 47 l 1
 860 47 l 1
 860 0 l 1
 822 3 724 3 681 3 c 0
 638 3 540 3 502 0 c 1
 502 47 l 1
 610 47 l 1
 610 333 l 1
 289 333 l 1
 289 47 l 1
 397 47 l 1
 397 0 l 1
 359 3 261 3 218 3 c 0
 175 3 77 3 39 0 c 1
EndSplineSet
Substitution2: "'c2sc' +swC7OMeQxdDBHAAA +wYzWFbMAuzjHkLhc lookup 4 subtable" H.sc
EndChar

StartChar: I
Encoding: 73 73 42
Width: 436
GlyphClass: 2
Flags: MW
TeX: 690 0
HStem: 0 47<33 147> 639 44
VStem: 147 142<47 639 47 639>
AnchorPoint: "Anchor-5" 218 697 basechar 0
AnchorPoint: "Anchor-4" 218 0 basechar 0
AnchorPoint: "Anchor-1" 218 0 basechar 0
LayerCount: 2
Fore
SplineSet
33 0 m 1
 33 47 l 1
 147 47 l 1
 147 639 l 1
 33 639 l 1
 33 686 l 1
 74 683 172 683 218 683 c 0
 264 683 362 683 403 686 c 1
 403 639 l 1
 289 639 l 1
 289 47 l 1
 403 47 l 1
 403 0 l 1
 362 3 264 3 218 3 c 0
 172 3 74 3 33 0 c 1
EndSplineSet
EndChar

StartChar: J
Encoding: 74 74 43
Width: 594
GlyphClass: 2
Flags: MW
TeX: 690 0
HStem: -11 36<202.5 260.5 202.5 283> 639 44<169 387.5>
VStem: 23 153<87.5 140> 310 136<149 150 150 639>
AnchorPoint: "Anchor-5" 378 697 basechar 0
AnchorPoint: "Anchor-4" 275 0 basechar 0
LayerCount: 2
Fore
SplineSet
23 114 m 0
 23 166 63 191 100 191 c 0
 133 191 176 168 176 114 c 0
 176 61 130 42 130 42 c 1
 161 28 194 25 211 25 c 0
 310 25 310 130 310 149 c 2
 310 639 l 1
 169 639 l 1
 169 686 l 1
 217 683 315 683 368 683 c 0
 407 683 492 683 527 686 c 1
 527 639 l 1
 446 639 l 1
 446 150 l 2
 446 46 350 -11 216 -11 c 0
 102 -11 23 37 23 114 c 0
EndSplineSet
EndChar

StartChar: K
Encoding: 75 75 44
Width: 901
GlyphClass: 2
Flags: MW
TeX: 690 0
HStem: 0 47<39 147> 639 47<39 147 39 39>
VStem: 147 142<47 257 319 639>
AnchorPoint: "Anchor-5" 446 697 basechar 0
AnchorPoint: "Anchor-4" 446 0 basechar 0
LayerCount: 2
Fore
SplineSet
39 0 m 1
 39 47 l 1
 147 47 l 1
 147 639 l 1
 39 639 l 1
 39 686 l 1
 77 683 175 683 218 683 c 0
 261 683 359 683 397 686 c 1
 397 639 l 1
 289 639 l 1
 289 319 l 1
 659 628 l 1
 650 631 662 630 646 634 c 0
 621 639 601 639 588 639 c 1
 588 686 l 1
 624 683 696 683 734 683 c 0
 739 683 796 683 836 686 c 1
 836 639 l 1
 819 639 l 2
 789 639 747 639 725 621 c 2
 485 421 l 1
 755 67 l 2
 767 51 770 47 823 47 c 2
 852 47 l 1
 852 0 l 1
 815 3 746 3 706 3 c 0
 661 3 571 3 530 0 c 1
 530 47 l 1
 565 47 585 47 603 55 c 1
 600 61 600 63 595 69 c 2
 389 340 l 1
 289 257 l 1
 289 47 l 1
 397 47 l 1
 397 0 l 1
 359 3 261 3 218 3 c 0
 175 3 77 3 39 0 c 1
EndSplineSet
Substitution2: "'c2sc' +swC7OMeQxdDBHAAA +wYzWFbMAuzjHkLhc lookup 4 subtable" K.sc
EndChar

StartChar: L
Encoding: 76 76 45
Width: 691
GlyphClass: 2
Flags: MW
TeX: 690 0
HStem: 0 47<39 147 39 147 289 392 392 481.5> 639 44<200 289 200 424>
VStem: 147 142<47 639 47 639> 596 47<274 274>
AnchorPoint: "Anchor-5" 341 697 basechar 0
AnchorPoint: "Anchor-4" 341 0 basechar 0
LayerCount: 2
Fore
SplineSet
39 0 m 1
 39 47 l 1
 147 47 l 1
 147 639 l 1
 39 639 l 1
 39 686 l 1
 77 683 178 683 222 683 c 0
 271 683 380 683 424 686 c 1
 424 639 l 1
 289 639 l 1
 289 47 l 1
 392 47 l 2
 571 47 588 205 596 274 c 1
 643 274 l 1
 612 0 l 1
 39 0 l 1
EndSplineSet
Substitution2: "'c2sc' +swC7OMeQxdDBHAAA +wYzWFbMAuzjHkLhc lookup 4 subtable" L.sc
EndChar

StartChar: M
Encoding: 77 77 46
Width: 1091
GlyphClass: 2
Flags: MW
TeX: 690 0
HStem: 0 47<40 65> 639 47<40 148 40 262 943 943 943 1051>
VStem: 148 53<76 626> 818 125<47 639 47 639>
AnchorPoint: "Anchor-5" 546 697 basechar 0
AnchorPoint: "Anchor-4" 546 0 basechar 0
LayerCount: 2
Fore
SplineSet
40 0 m 1
 40 47 l 1
 65 47 l 2
 93 47 95 47 119 50 c 0
 147 53 148 54 148 76 c 2
 148 639 l 1
 40 639 l 1
 40 686 l 1
 262 686 l 2
 284 686 295 686 306 661 c 2
 546 132 l 1
 786 661 l 2
 797 686 808 686 830 686 c 2
 1051 686 l 1
 1051 639 l 1
 943 639 l 1
 943 47 l 1
 1051 47 l 1
 1051 0 l 1
 1015 3 921 3 880 3 c 0
 839 3 746 3 710 0 c 1
 710 47 l 1
 818 47 l 1
 818 639 l 1
 817 639 l 1
 538 24 l 2
 534 15 526 0 506 0 c 0
 495 0 483 5 474 25 c 2
 202 626 l 1
 201 626 l 1
 201 76 l 2
 201 54 202 53 231 50 c 0
 249 48 266 47 284 47 c 2
 309 47 l 1
 309 0 l 1
 268 3 216 3 174 3 c 0
 135 3 78 3 40 0 c 1
EndSplineSet
Substitution2: "'c2sc' +swC7OMeQxdDBHAAA +wYzWFbMAuzjHkLhc lookup 4 subtable" M.sc
EndChar

StartChar: N
Encoding: 78 78 47
Width: 900
GlyphClass: 2
Flags: MW
TeX: 690 0
HStem: 0 47<39 64> 639 47<39 147 39 268>
VStem: 147 53<76 599> 699 53<205 610>
AnchorPoint: "Anchor-5" 450 697 basechar 0
AnchorPoint: "Anchor-4" 450 0 basechar 0
LayerCount: 2
Fore
SplineSet
39 0 m 1
 39 47 l 1
 64 47 l 2
 92 47 94 47 118 50 c 0
 146 53 147 54 147 76 c 2
 147 639 l 1
 39 639 l 1
 39 686 l 1
 268 686 l 2
 289 686 290 685 301 673 c 2
 699 205 l 1
 699 610 l 2
 699 632 698 633 669 636 c 0
 651 638 634 639 616 639 c 2
 591 639 l 1
 591 686 l 1
 632 683 684 683 726 683 c 0
 765 683 822 683 860 686 c 1
 860 639 l 1
 835 639 l 2
 807 639 805 639 781 636 c 0
 753 633 752 632 752 610 c 2
 752 32 l 2
 752 9 752 0 725 0 c 0
 709 0 708 1 698 13 c 2
 200 599 l 1
 200 76 l 2
 200 54 201 53 230 50 c 0
 248 48 265 47 283 47 c 2
 308 47 l 1
 308 0 l 1
 267 3 215 3 173 3 c 0
 134 3 77 3 39 0 c 1
EndSplineSet
Substitution2: "'c2sc' +swC7OMeQxdDBHAAA +wYzWFbMAuzjHkLhc lookup 4 subtable" N.sc
EndChar

StartChar: O
Encoding: 79 79 48
Width: 863
GlyphClass: 2
Flags: MW
TeX: 690 0
HStem: -11 42<401.5 458 401.5 546> 657 40<401.5 463>
VStem: 64 153<311 386 311 444> 646 153<319 388>
AnchorPoint: "Anchor-5" 432 697 basechar 0
AnchorPoint: "Anchor-4" 431 0 basechar 0
AnchorPoint: "Anchor-1" 431 0 basechar 0
LayerCount: 2
Fore
SplineSet
64 339 m 0
 64 549 203 697 432 697 c 0
 654 697 799 555 799 339 c 0
 799 134 661 -11 431 -11 c 0
 204 -11 64 132 64 339 c 0
217 354 m 0
 217 268 225 197 258 135 c 0
 299 59 372 31 431 31 c 0
 485 31 555 53 600 126 c 0
 642 195 646 284 646 354 c 0
 646 422 642 499 604 563 c 0
 564 629 495 657 431 657 c 0
 372 657 305 632 264 571 c 0
 220 503 217 418 217 354 c 0
EndSplineSet
Substitution2: "'c2sc' +swC7OMeQxdDBHAAA +wYzWFbMAuzjHkLhc lookup 4 subtable" O.sc
EndChar

StartChar: P
Encoding: 80 80 49
Width: 786
GlyphClass: 2
Flags: MW
TeX: 690 0
HStem: 0 47<39 147> 302 41<289 417 417 466 289 289> 639 47<39 147 39 456 283 283 283 418>
VStem: 147 136<343 343 343 639> 568 153<455.5 527>
AnchorPoint: "Anchor-5" 355 697 basechar 0
AnchorPoint: "Anchor-4" 355 0 basechar 0
LayerCount: 2
Fore
SplineSet
39 0 m 1
 39 47 l 1
 147 47 l 1
 147 639 l 1
 39 639 l 1
 39 686 l 1
 456 686 l 2
 622 686 721 601 721 491 c 0
 721 374 605 302 466 302 c 2
 289 302 l 1
 289 47 l 1
 397 47 l 1
 397 0 l 1
 359 3 261 3 218 3 c 0
 175 3 77 3 39 0 c 1
283 343 m 1
 417 343 l 2
 568 343 568 420 568 491 c 0
 568 563 568 639 418 639 c 2
 283 639 l 1
 283 343 l 1
EndSplineSet
Substitution2: "'c2sc' +swC7OMeQxdDBHAAA +wYzWFbMAuzjHkLhc lookup 4 subtable" P.sc
EndChar

StartChar: Q
Encoding: 81 81 50
Width: 863
GlyphClass: 2
Flags: MW
TeX: 690 194
HStem: -194 153<672.5 692.5 672.5 719> -11 40<404.5 443> 119 36<415.5 446> 657 40<408.5 458>
VStem: 64 147<301 360 301 444> 334 36<70 86.5 67 97> 652 147<312 369.5> 769 36
AnchorPoint: "Anchor-5" 432 697 basechar 0
AnchorPoint: "Anchor-4" 431 -194 basechar 0
LayerCount: 2
Fore
SplineSet
64 339 m 0xfd
 64 549 203 697 432 697 c 0
 654 697 799 555 799 339 c 0xfe
 799 230 756 82 592 18 c 1
 631 -41 661 -41 684 -41 c 0
 701 -41 763 -40 769 -2 c 0
 770 5 772 18 787 18 c 0
 805 18 805 0 805 -8 c 0
 805 -76 770 -194 668 -194 c 0
 575 -194 555 -115 527 -2 c 1
 487 -10 454 -11 432 -11 c 0
 200 -11 64 135 64 339 c 0xfd
211 340 m 0
 211 262 214 110 337 51 c 1
 335 56 334 67 334 73 c 0
 334 121 380 155 431 155 c 0
 498 155 534 102 556 69 c 1
 652 135 652 284 652 340 c 0
 652 399 649 485 611 552 c 0
 563 637 485 657 431 657 c 0
 386 657 300 642 248 546 c 0
 211 475 211 380 211 340 c 0
370 73 m 0
 370 61 377 29 432 29 c 0
 459 29 489 34 514 45 c 1
 494 108 460 119 432 119 c 0
 399 119 370 100 370 73 c 0
EndSplineSet
Substitution2: "'c2sc' +swC7OMeQxdDBHAAA +wYzWFbMAuzjHkLhc lookup 4 subtable" Q.sc
EndChar

StartChar: R
Encoding: 82 82 51
Width: 862
GlyphClass: 2
Flags: MW
TeX: 690 0
HStem: -11 36<717.5 762 717 791.5> 0 47<39 147> 325 36<283 399 399 400 283 399> 639 47<39 147 39 419 283 283 283 401>
VStem: 147 136<47 325 361 639> 564 153<472 530.5> 811 47<94 94>
AnchorPoint: "Anchor-5" 355 697 basechar 0
AnchorPoint: "Anchor-4" 355 0 basechar 0
LayerCount: 2
Fore
SplineSet
39 0 m 1x7e
 39 47 l 1
 147 47 l 1x7e
 147 639 l 1
 39 639 l 1
 39 686 l 1
 419 686 l 2
 607 686 717 602 717 501 c 0
 717 435 666 370 550 340 c 1
 593 324 648 293 662 223 c 0
 663 218 671 149 673 138 c 0
 678 96 687 25 747 25 c 0
 777 25 806 47 811 94 c 0
 812 107 813 117 834 117 c 0
 844 117 858 117 858 95 c 0
 858 79 845 -11 738 -11 c 0xbe
 697 -11 635 -7 591 15 c 0
 521 49 521 98 521 164 c 0
 521 237 521 256 489 291 c 0
 458 325 414 325 400 325 c 2
 283 325 l 1
 283 47 l 1
 391 47 l 1
 391 0 l 1
 355 3 257 3 215 3 c 0
 173 3 75 3 39 0 c 1x7e
283 361 m 1
 399 361 l 2
 564 361 564 444 564 500 c 0
 564 561 562 639 401 639 c 2
 283 639 l 1
 283 361 l 1
EndSplineSet
Substitution2: "'c2sc' +swC7OMeQxdDBHAAA +wYzWFbMAuzjHkLhc lookup 4 subtable" R.sc
EndChar

StartChar: S
Encoding: 83 83 52
Width: 638
GlyphClass: 2
Flags: MW
TeX: 690 0
HStem: -11 47<326.5 399 309 429.5> 654 43<239 312 212 329>
VStem: 64 47 64 97<518.5 548.5> 477 97<152.5 176> 493 49
AnchorPoint: "Anchor-5" 288 697 basechar 0
AnchorPoint: "Anchor-4" 347 0 basechar 0
LayerCount: 2
Fore
SplineSet
64 17 m 2xe8
 64 199 l 2
 64 222 64 228 88 228 c 0
 110 228 110 223 111 205 c 0
 119 56 271 36 347 36 c 0
 451 36 477 105 477 153 c 0xe8
 477 199 452 225 437 240 c 0
 415 261 398 264 310 283 c 0
 201 307 167 314 118 363 c 0
 97 385 64 431 64 496 c 0
 64 601 136 697 288 697 c 0
 336 697 401 688 459 642 c 1
 504 686 l 2
 515 696 516 697 524 697 c 0
 542 697 542 688 542 669 c 2
 542 486 l 2
 542 463 542 458 518 458 c 0
 497 458 497 460 493 484 c 0
 470 620 369 654 289 654 c 0
 189 654 161 592 161 549 c 0xd4
 161 488 217 454 257 445 c 2
 402 414 l 2
 493 395 574 314 574 203 c 0
 574 102 512 -11 347 -11 c 0
 306 -11 213 -5 147 44 c 1
 101 -2 l 2
 93 -9 91 -11 82 -11 c 0
 64 -11 64 -2 64 17 c 2xe8
EndSplineSet
Substitution2: "'c2sc' +swC7OMeQxdDBHAAA +wYzWFbMAuzjHkLhc lookup 4 subtable" S.sc
EndChar

StartChar: T
Encoding: 84 84 53
Width: 800
GlyphClass: 2
Flags: MW
TeX: 690 0
HStem: 3 44<176 429.5> 628 47<180 252 252 329 471 547 471 471>
VStem: 42 47<434 434> 329 142<47 628 47 628> 710 47<434 434>
AnchorPoint: "Anchor-5" 400 697 basechar 0
AnchorPoint: "Anchor-4" 400 0 basechar 0
LayerCount: 2
Fore
SplineSet
42 434 m 1
 63 675 l 1
 736 675 l 1
 757 434 l 1
 710 434 l 1
 700 548 690 628 547 628 c 2
 471 628 l 1
 471 47 l 1
 624 47 l 1
 624 0 l 1
 570 3 459 3 400 3 c 0
 341 3 230 3 176 0 c 1
 176 47 l 1
 329 47 l 1
 329 628 l 1
 252 628 l 2
 108 628 98 547 89 434 c 1
 42 434 l 1
EndSplineSet
Substitution2: "'c2sc' +swC7OMeQxdDBHAAA +wYzWFbMAuzjHkLhc lookup 4 subtable" T.sc
EndChar

StartChar: U
Encoding: 85 85 54
Width: 884
GlyphClass: 2
Flags: MW
TeX: 690 0
HStem: -11 47<378.5 520.5 378.5 557> 639 47<39 39 39 147>
VStem: 147 142<231 639> 684 53<233 610>
AnchorPoint: "Anchor-5" 442 697 basechar 0
AnchorPoint: "Anchor-4" 462 0 basechar 0
AnchorPoint: "Anchor-1" 462 0 basechar 0
LayerCount: 2
Fore
SplineSet
39 639 m 1
 39 686 l 1
 77 683 175 683 218 683 c 0
 261 683 359 683 397 686 c 1
 397 639 l 1
 289 639 l 1
 289 223 l 2
 289 167 291 36 466 36 c 0
 575 36 684 85 684 233 c 2
 684 610 l 2
 684 632 683 633 654 636 c 0
 636 638 619 639 601 639 c 2
 576 639 l 1
 576 686 l 1
 617 683 669 683 711 683 c 0
 750 683 807 683 845 686 c 1
 845 639 l 1
 820 639 l 2
 792 639 790 639 766 636 c 0
 738 633 737 632 737 610 c 2
 737 229 l 2
 737 106 652 -11 462 -11 c 0
 255 -11 147 98 147 231 c 2
 147 639 l 1
 39 639 l 1
EndSplineSet
Substitution2: "'c2sc' +swC7OMeQxdDBHAAA +wYzWFbMAuzjHkLhc lookup 4 subtable" U.sc
EndChar

StartChar: V
Encoding: 86 86 55
Width: 869
GlyphClass: 2
Flags: MW
TeX: 690 0
ItalicCorrection: 15
HStem: -8 21G<420 442> 639 47<26 26 26 118>
AnchorPoint: "Anchor-5" 434 697 basechar 0
AnchorPoint: "Anchor-4" 434 0 basechar 0
LayerCount: 2
Fore
SplineSet
26 639 m 1
 26 686 l 1
 61 683 145 683 184 683 c 0
 227 683 323 683 361 686 c 1
 361 639 l 1
 267 639 l 1
 480 160 l 1
 682 615 l 2
 683 618 686 623 686 627 c 0
 686 639 607 639 598 639 c 1
 598 686 l 1
 637 683 689 683 729 683 c 0
 756 683 804 685 842 686 c 1
 842 639 l 1
 823 639 l 2
 750 639 746 630 740 617 c 2
 474 16 l 2
 463 -8 450 -8 434 -8 c 0
 406 -8 402 0 394 18 c 2
 118 639 l 1
 26 639 l 1
EndSplineSet
Substitution2: "'c2sc' +swC7OMeQxdDBHAAA +wYzWFbMAuzjHkLhc lookup 4 subtable" V.sc
EndChar

StartChar: W
Encoding: 87 87 56
Width: 1188
GlyphClass: 2
Flags: MW
TeX: 690 0
ItalicCorrection: 15
HStem: -8 21G<372.5 397.5 790.5 815.5> 639 47<24 24 24 110>
AnchorPoint: "Anchor-5" 594 697 basechar 0
AnchorPoint: "Anchor-4" 594 0 basechar 0
LayerCount: 2
Fore
SplineSet
24 639 m 1
 24 686 l 1
 59 683 138 683 177 683 c 0
 220 683 314 683 352 686 c 1
 352 639 l 1
 256 639 l 1
 433 181 l 1
 569 533 l 1
 528 639 l 1
 442 639 l 1
 442 686 l 1
 477 683 556 683 595 683 c 0
 638 683 732 683 770 686 c 1
 770 639 l 1
 674 639 l 1
 851 181 l 1
 1023 628 l 1
 994 639 946 639 921 639 c 1
 921 686 l 1
 957 683 1019 683 1057 683 c 0
 1102 683 1137 685 1164 686 c 1
 1164 639 l 1
 1148 639 1127 639 1107 637 c 0
 1076 634 1075 632 1069 615 c 2
 838 18 l 2
 832 2 828 -8 803 -8 c 0
 778 -8 774 2 768 18 c 2
 594 468 l 1
 420 18 l 2
 414 2 410 -8 385 -8 c 0
 360 -8 356 2 350 18 c 2
 110 639 l 1
 24 639 l 1
EndSplineSet
Substitution2: "'c2sc' +swC7OMeQxdDBHAAA +wYzWFbMAuzjHkLhc lookup 4 subtable" W.sc
EndChar

StartChar: X
Encoding: 88 88 57
Width: 869
GlyphClass: 2
Flags: MW
TeX: 690 0
HStem: 0 47<34 63> 639 47<49 147 49 49>
AnchorPoint: "Anchor-5" 434 697 basechar 0
AnchorPoint: "Anchor-4" 434 0 basechar 0
LayerCount: 2
Fore
SplineSet
34 0 m 1
 34 47 l 1
 63 47 l 2
 83 47 104 48 124 50 c 0
 156 53 158 55 167 67 c 2
 369 332 l 1
 147 639 l 1
 49 639 l 1
 49 686 l 1
 84 683 171 683 211 683 c 0
 256 683 351 683 392 686 c 1
 392 639 l 1
 309 639 l 1
 452 442 l 1
 584 617 l 2
 586 620 591 626 592 628 c 1
 557 639 518 639 500 639 c 1
 500 686 l 1
 536 683 613 683 652 683 c 0
 695 683 744 683 786 686 c 1
 786 639 l 1
 757 639 l 2
 729 639 723 639 699 636 c 0
 664 633 663 632 652 618 c 2
 484 397 l 1
 737 47 l 1
 835 47 l 1
 835 0 l 1
 800 3 713 3 673 3 c 0
 628 3 533 3 492 0 c 1
 492 47 l 1
 575 47 l 1
 401 288 l 1
 236 69 l 2
 234 66 229 60 228 58 c 1
 263 47 302 47 320 47 c 1
 320 0 l 1
 284 3 207 3 168 3 c 0
 125 3 76 3 34 0 c 1
EndSplineSet
Substitution2: "'c2sc' +swC7OMeQxdDBHAAA +wYzWFbMAuzjHkLhc lookup 4 subtable" X.sc
EndChar

StartChar: Y
Encoding: 89 89 58
Width: 869
GlyphClass: 2
Flags: MW
TeX: 690 0
ItalicCorrection: 28
HStem: 3 44 639 47<19 19 19 117>
VStem: 366 136<47 274 47 274>
AnchorPoint: "Anchor-5" 434 697 basechar 0
AnchorPoint: "Anchor-4" 434 0 basechar 0
LayerCount: 2
Fore
SplineSet
19 639 m 1
 19 686 l 1
 54 683 144 683 184 683 c 0
 229 683 326 683 367 686 c 1
 367 639 l 1
 282 639 l 1
 485 342 l 1
 672 617 l 2
 677 623 677 625 679 629 c 1
 653 639 626 639 603 639 c 1
 603 686 l 1
 640 683 696 683 735 683 c 0
 763 683 809 685 849 686 c 1
 849 639 l 1
 828 639 l 2
 811 639 793 638 776 636 c 0
 754 633 746 633 737 619 c 2
 502 274 l 1
 502 47 l 1
 611 47 l 1
 611 0 l 1
 573 3 477 3 434 3 c 0
 392 3 294 3 258 0 c 1
 258 47 l 1
 366 47 l 1
 366 274 l 1
 117 639 l 1
 19 639 l 1
EndSplineSet
Substitution2: "'c2sc' +swC7OMeQxdDBHAAA +wYzWFbMAuzjHkLhc lookup 4 subtable" Y.sc
EndChar

StartChar: Z
Encoding: 90 90 59
Width: 702
GlyphClass: 2
Flags: MW
TeX: 690 0
HStem: 0 51<231 371 371 473.5> 445 21G<80 127 80 80> 639 47<272 342 342 472>
VStem: 80 47<445 445> 598 47<284 284>
AnchorPoint: "Anchor-5" 354 697 basechar 0
AnchorPoint: "Anchor-4" 354 0 basechar 0
LayerCount: 2
Fore
SplineSet
64 26 m 0
 64 37 64 40 72 52 c 2
 472 639 l 1
 342 639 l 2
 202 639 135 578 127 445 c 1
 80 445 l 1
 92 686 l 1
 606 686 l 2
 627 686 638 686 638 661 c 0
 638 650 638 649 630 637 c 2
 231 51 l 1
 371 51 l 2
 576 51 590 173 598 284 c 1
 645 284 l 1
 627 0 l 1
 96 0 l 2
 74 0 64 0 64 26 c 0
EndSplineSet
Substitution2: "'c2sc' +swC7OMeQxdDBHAAA +wYzWFbMAuzjHkLhc lookup 4 subtable" Z.sc
EndChar

StartChar: bracketleft
Encoding: 91 91 60
Width: 319
GlyphClass: 2
Flags: MW
TeX: 749 249
HStem: -250 36<214 294 214 294> 714 36<214 294 214 214>
VStem: 105 109<-214 714 -214 750 -214 750>
LayerCount: 2
Fore
SplineSet
105 -250 m 1
 105 750 l 1
 294 750 l 1
 294 714 l 1
 214 714 l 1
 214 -214 l 1
 294 -214 l 1
 294 -250 l 1
 105 -250 l 1
EndSplineSet
EndChar

StartChar: backslash
Encoding: 92 92 61
Width: 575
GlyphClass: 2
Flags: W
TeX: 749 249
LayerCount: 2
Fore
SplineSet
64 732 m 0
 64 739 71 748 81 748 c 0
 98 748 104 726 111 710 c 2
 500 -203 l 2
 504 -212 509 -222 509 -232 c 0
 509 -237 503 -249 492 -249 c 0
 478 -249 472 -233 469 -225 c 2
 69 714 l 2
 67 720 64 726 64 732 c 0
EndSplineSet
EndChar

StartChar: bracketright
Encoding: 93 93 62
Width: 319
GlyphClass: 2
Flags: MW
TeX: 749 249
HStem: -250 36<25 105 25 214 25 105> 714 36<25 105 25 214>
VStem: 105 109<-214 714 714 714>
LayerCount: 2
Fore
SplineSet
25 -214 m 1
 105 -214 l 1
 105 714 l 1
 25 714 l 1
 25 750 l 1
 214 750 l 1
 214 -250 l 1
 25 -250 l 1
 25 -214 l 1
EndSplineSet
EndChar

StartChar: asciicircum
Encoding: 94 94 63
Width: 703
GlyphClass: 2
Flags: MW
TeX: 690 0
HStem: 460 172
LayerCount: 2
Fore
SplineSet
132 502 m 1
 351 632 l 1
 569 502 l 1
 547 460 l 1
 351 550 l 1
 154 460 l 1
 132 502 l 1
EndSplineSet
EndChar

StartChar: underscore
Encoding: 95 95 64
Width: 894
GlyphClass: 2
Flags: MW
TeX: 0 307
HStem: -308 61<117.5 756 135 756>
LayerCount: 2
Fore
SplineSet
96 -278 m 0
 96 -270 99 -247 135 -247 c 2
 756 -247 l 2
 790 -247 796 -266 796 -278 c 0
 796 -290 790 -308 756 -308 c 2
 135 -308 l 2
 100 -308 96 -288 96 -278 c 0
EndSplineSet
EndChar

StartChar: grave
Encoding: 96 96 65
Width: 575
GlyphClass: 2
Flags: MW
TeX: 648 0
HStem: 494 168<155 306>
VStem: 112 219<534 614.5>
LayerCount: 2
Fore
SplineSet
112 599 m 0
 112 630 139 662 171 662 c 0
 197 662 203 652 292 570 c 2
 331 534 l 1
 306 494 l 1
 137 552 112 553 112 599 c 0
EndSplineSet
EndChar

StartChar: a
Encoding: 97 97 66
Width: 559
GlyphClass: 2
Flags: MW
TeX: 444 0
HStem: -6 36<214.5 252.5 214.5 265> 0 47<478 538.5> 234 31<357 357> 417 36<241 284.5>
VStem: 32 117<87 163 87 180.5> 72 125<340 376 340 405> 357 114<139 234 234 234 265 299>
AnchorPoint: "Anchor-5" 251 453 basechar 0
AnchorPoint: "Anchor-4" 251 0 basechar 0
AnchorPoint: "Anchor-3" 559 694 basechar 0
AnchorPoint: "Anchor-2" 559 -194 basechar 0
AnchorPoint: "Anchor-1" 417 0 basechar 0
LayerCount: 2
Fore
SplineSet
32 108 m 0xba
 32 253 286 262 357 265 c 1
 357 299 l 2
 357 375 322 417 247 417 c 0
 235 417 203 416 175 410 c 1
 178 408 197 391 197 361 c 0
 197 319 165 298 134 298 c 0
 107 298 72 317 72 361 c 0
 72 449 194 453 251 453 c 0
 400 453 471 388 471 299 c 2
 471 84 l 2
 471 61 471 48 532 47 c 0
 545 47 558 47 558 24 c 0
 558 0 546 0 526 0 c 2
 478 0 l 2x76
 374 0 374 46 374 77 c 1
 352 35 305 -6 225 -6 c 0
 156 -6 32 12 32 108 c 0xba
149 109 m 0xba
 149 65 189 30 240 30 c 0
 265 30 357 43 357 139 c 2
 357 234 l 1
 307 231 149 217 149 109 c 0xba
EndSplineSet
Substitution2: "'smcp' +wYy7OMeQxdDBHAAA +wYzWFQAA +swC7OMeQuFwA lookup 3 subtable" A.sc
EndChar

StartChar: b
Encoding: 98 98 67
Width: 638
GlyphClass: 2
Flags: MW
TeX: 690 0
HStem: -6 36<304 355 304 422.5> 414 36<324.5 411> 639 47<37 68> 674 20G<214 214>
VStem: 106 108<401 600 600 619.5> 472 128<199.5 258>
AnchorPoint: "Anchor-5" 352 694 basechar 0
AnchorPoint: "Anchor-4" 352 0 basechar 0
AnchorPoint: "Anchor-3" 638 694 basechar 0
AnchorPoint: "Anchor-2" 638 -194 basechar 0
LayerCount: 2
Fore
SplineSet
37 639 m 1xec
 37 686 l 1xec
 214 694 l 1xdc
 214 401 l 1
 238 421 288 450 361 450 c 0
 506 450 600 356 600 223 c 0
 600 84 497 -6 348 -6 c 0
 259 -6 210 48 202 56 c 1
 153 0 l 1
 106 0 l 1
 106 600 l 2
 106 639 99 639 37 639 c 1xec
220 99 m 1
 230 84 269 30 339 30 c 0
 371 30 417 41 446 82 c 0
 472 121 472 176 472 223 c 0
 472 293 472 414 350 414 c 0
 295 414 247 385 220 350 c 1
 220 99 l 1
EndSplineSet
Substitution2: "'smcp' +wYy7OMeQxdDBHAAA +wYzWFQAA +swC7OMeQuFwA lookup 3 subtable" B.sc
EndChar

StartChar: c
Encoding: 99 99 68
Width: 511
GlyphClass: 2
Flags: MW
TeX: 444 0
HStem: -6 40<235.5 330.5 235.5 367> 413 40<230.5 312.5>
VStem: 38 128<204 255 204 280> 340 125<340 365.5> 430 48<116 116>
AnchorPoint: "Anchor-5" 291 453 basechar 0
AnchorPoint: "Anchor-4" 286 0 basechar 0
AnchorPoint: "Anchor-3" 511 694 basechar 0
AnchorPoint: "Anchor-2" 511 -194 basechar 0
LayerCount: 2
Fore
SplineSet
38 222 m 0xe8
 38 338 112 453 291 453 c 0
 349 453 465 447 465 361 c 0
 465 319 433 298 402 298 c 0
 375 298 340 317 340 361 c 0xf0
 340 370 342 391 360 407 c 1
 347 410 330 413 295 413 c 0
 166 413 166 283 166 227 c 0
 166 181 166 34 305 34 c 0
 356 34 404 53 430 116 c 0
 435 129 436 131 454 131 c 0
 464 131 478 131 478 117 c 0
 478 110 448 -6 286 -6 c 0
 132 -6 38 89 38 222 c 0xe8
EndSplineSet
Substitution2: "'smcp' +wYy7OMeQxdDBHAAA +wYzWFQAA +swC7OMeQuFwA lookup 3 subtable" C.sc
EndChar

StartChar: d
Encoding: 100 100 69
Width: 638
GlyphClass: 2
Flags: MW
TeX: 690 0
HStem: -6 36<227 308.5> 0 47<570 601> 414 36<283.5 305.5 216 327.5> 639 47<355 386> 674 20G<532 532>
VStem: 38 128<186 245 186 291.5> 418 114<-6 86 43 86 103 353 353 353>
AnchorPoint: "Anchor-5" 285 694 basechar 0
AnchorPoint: "Anchor-4" 320 0 basechar 0
AnchorPoint: "Anchor-3" 638 694 basechar 0
AnchorPoint: "Anchor-2" 638 -194 basechar 0
LayerCount: 2
Fore
SplineSet
38 221 m 0xa6
 38 362 143 450 289 450 c 0
 322 450 374 444 424 405 c 1
 424 600 l 2
 424 639 417 639 355 639 c 1
 355 686 l 1xb6
 532 694 l 1
 532 86 l 2
 532 47 539 47 601 47 c 1
 601 0 l 1x6e
 418 -6 l 1
 418 43 l 1
 387 18 339 -6 278 -6 c 0
 130 -6 38 89 38 221 c 0xa6
166 221 m 0
 166 151 166 30 288 30 c 0
 364 30 405 85 418 103 c 1
 418 353 l 1
 396 382 356 414 299 414 c 0
 268 414 221 404 192 362 c 0
 166 323 166 269 166 221 c 0
EndSplineSet
Substitution2: "'smcp' +wYy7OMeQxdDBHAAA +wYzWFQAA +swC7OMeQuFwA lookup 3 subtable" D.sc
EndChar

StartChar: e
Encoding: 101 101 70
Width: 527
GlyphClass: 2
Flags: MW
TeX: 444 0
HStem: -6 40<231.5 334.5 231.5 372> 218 33<160 399 160 462 160 399> 417 36<264.5 313.5 199 337.5>
VStem: 32 128<192.5 218 192.5 251 192.5 287.5> 399 95<251 251> 445 49
AnchorPoint: "Anchor-5" 278 453 basechar 0
AnchorPoint: "Anchor-4" 293 0 basechar 0
AnchorPoint: "Anchor-3" 527 694 basechar 0
AnchorPoint: "Anchor-2" 527 -194 basechar 0
AnchorPoint: "Anchor-1" 293 0 basechar 0
LayerCount: 2
Fore
SplineSet
32 225 m 0xf4
 32 350 119 453 279 453 c 0
 348 453 401 435 438 399 c 0
 488 349 494 276 494 245 c 0
 494 218 484 218 462 218 c 2
 160 218 l 1
 160 167 161 34 302 34 c 0
 367 34 424 66 445 114 c 0
 451 130 453 135 470 135 c 0
 475 135 494 135 494 117 c 0
 494 100 451 -6 293 -6 c 0
 132 -6 32 91 32 225 c 0xf4
160 251 m 1
 399 251 l 1xf8
 398 286 396 417 279 417 c 0
 250 417 210 405 184 365 c 0
 163 332 162 290 160 251 c 1
EndSplineSet
Substitution2: "'smcp' +wYy7OMeQxdDBHAAA +wYzWFQAA +swC7OMeQuFwA lookup 3 subtable" E.sc
EndChar

StartChar: f
Encoding: 102 102 71
Width: 351
GlyphClass: 2
Flags: MW
TeX: 690 0
ItalicCorrection: 109
HStem: 3 44<48 193> 397 47<42 117 42 117 225 225 225 340> 664 36<307.5 322.5>
VStem: 117 108<47 397 47 397 47 545> 314 123<592.5 622.5>
AnchorPoint: "Anchor-5" 322 694 basechar 0
AnchorPoint: "Anchor-4" 171 0 basechar 0
AnchorPoint: "Anchor-3" 351 694 basechar 0
AnchorPoint: "Anchor-2" 351 -194 basechar 0
LayerCount: 2
Fore
SplineSet
42 397 m 1
 42 444 l 1
 117 444 l 1
 117 545 l 2
 117 658 225 700 323 700 c 0
 401 700 437 655 437 613 c 0
 437 572 405 551 375 551 c 0
 349 551 314 570 314 613 c 0
 314 632 322 651 337 662 c 1
 330 664 325 664 320 664 c 0
 295 664 219 655 219 545 c 2
 219 444 l 1
 340 444 l 1
 340 397 l 1
 225 397 l 1
 225 47 l 1
 312 47 l 1
 312 0 l 1
 276 3 212 3 174 3 c 0
 128 3 83 1 48 0 c 1
 48 47 l 1
 117 47 l 1
 117 397 l 1
 42 397 l 1
EndSplineSet
Substitution2: "'smcp' +wYy7OMeQxdDBHAAA +wYzWFQAA +swC7OMeQuFwA lookup 3 subtable" F.sc
EndChar

StartChar: g
Encoding: 103 103 72
Width: 575
GlyphClass: 2
Flags: MW
TeX: 444 194
ItalicCorrection: 15
HStem: -201 36<227 352 227 375.5> -13 97 154 36<242.5 299 211 327> 354 101<502 518 487.5 528> 414 36<211 292 183 299>
VStem: 32 86<-96 -43.5> 56 111<281.5 324.5 279.5 337> 74 49<100.5 152> 343 111<279.5 324.5> 456 86<-93 -57 -107 -44> 472 86<385 400>
AnchorPoint: "Anchor-5" 254 453 basechar 0
AnchorPoint: "Anchor-4" 287 -194 basechar 0
AnchorPoint: "Anchor-3" 575 694 basechar 0
AnchorPoint: "Anchor-2" 575 -194 basechar 0
LayerCount: 2
Fore
SplineSet
32 -75 m 0xf4c0
 32 -12 105 9 118 12 c 1xf4c0
 78 44 74 93 74 108 c 0xf180
 74 129 80 162 108 197 c 1
 76 220 56 261 56 302 c 0
 56 372 111 450 255 450 c 0xea80
 329 450 371 429 389 417 c 1
 433 452 480 455 495 455 c 0
 541 455 558 420 558 397 c 0
 558 373 541 354 515 354 c 0
 489 354 472 372 472 397 c 0
 472 403 474 412 476 417 c 1
 465 416 444 414 414 398 c 1
 429 382 454 349 454 302 c 0
 454 232 399 154 255 154 c 0
 230 154 179 156 133 180 c 1
 127 172 123 157 123 147 c 0xf1a0
 123 129 134 91 178 84 c 0
 183 83 229 83 255 83 c 0
 351 83 411 83 467 55 c 0
 534 21 542 -42 542 -72 c 0
 542 -142 464 -201 287 -201 c 0
 87 -201 32 -126 32 -75 c 0xf4c0
118 -73 m 0
 118 -119 167 -165 287 -165 c 0
 417 -165 456 -111 456 -75 c 0
 456 -13 343 -13 312 -13 c 2
 195 -13 l 2
 181 -13 118 -13 118 -73 c 0
167 302 m 0xea80
 167 257 167 190 255 190 c 0
 343 190 343 257 343 302 c 0
 343 347 343 414 255 414 c 0
 167 414 167 347 167 302 c 0xea80
EndSplineSet
Substitution2: "'smcp' +wYy7OMeQxdDBHAAA +wYzWFQAA +swC7OMeQuFwA lookup 3 subtable" G.sc
EndChar

StartChar: h
Encoding: 104 104 73
Width: 638
GlyphClass: 2
Flags: MW
TeX: 690 0
HStem: 0 47<45 114> 414 36<345.5 394> 639 47<45 76> 674 20G<222 222>
VStem: 114 108<354 600 600 619.5> 432 114<47 306 47 317 47 355>
AnchorPoint: "Anchor-5" 330 694 basechar 0
AnchorPoint: "Anchor-4" 330 0 basechar 0
AnchorPoint: "Anchor-3" 638 694 basechar 0
AnchorPoint: "Anchor-2" 638 -194 basechar 0
LayerCount: 2
Fore
SplineSet
45 0 m 1xdc
 45 47 l 1
 114 47 l 1
 114 600 l 2
 114 639 107 639 45 639 c 1
 45 686 l 1xec
 222 694 l 1
 222 354 l 1
 223 354 l 1
 245 392 296 450 392 450 c 0
 492 450 546 411 546 306 c 2
 546 47 l 1
 615 47 l 1
 615 0 l 1
 587 1 528 3 489 3 c 0
 451 3 391 1 363 0 c 1
 363 47 l 1
 432 47 l 1
 432 317 l 2
 432 393 411 414 377 414 c 0
 314 414 228 365 228 256 c 2
 228 47 l 1
 297 47 l 1
 297 0 l 1
 269 1 210 3 171 3 c 0
 133 3 73 1 45 0 c 1xdc
EndSplineSet
Substitution2: "'smcp' +wYy7OMeQxdDBHAAA +wYzWFQAA +swC7OMeQuFwA lookup 3 subtable" H.sc
EndChar

StartChar: i
Encoding: 105 105 74
Width: 319
GlyphClass: 2
Flags: MW
TeX: 690 0
HStem: 0 47<47 116> 395 47<50 79.5> 430 20<224 224> 539 156<134 177>
VStem: 78 156<595.5 638.5> 116 108<47 356 356 375.5>
AnchorPoint: "Anchor-5" 170 675 basechar 0
AnchorPoint: "Anchor-4" 170 0 basechar 0
AnchorPoint: "Anchor-3" 319 694 basechar 0
AnchorPoint: "Anchor-2" 319 -194 basechar 0
AnchorPoint: "Anchor-1" 166 0 basechar 0
LayerCount: 2
Fore
SplineSet
78 617 m 0x18
 78 660 112 695 156 695 c 0
 198 695 234 660 234 617 c 0
 234 574 198 539 156 539 c 0
 112 539 78 574 78 617 c 0x18
47 0 m 1xa4
 47 47 l 1
 116 47 l 1
 116 356 l 2
 116 395 109 395 50 395 c 1
 50 442 l 1xc4
 224 450 l 1
 224 47 l 1
 286 47 l 1
 286 0 l 1
 250 1 199 3 169 3 c 0
 127 3 78 1 47 0 c 1xa4
EndSplineSet
Substitution2: "'smcp' +wYy7OMeQxdDBHAAA +wYzWFQAA +swC7OMeQuFwA lookup 3 subtable" I.sc
EndChar

StartChar: j
Encoding: 106 106 75
Width: 351
GlyphClass: 2
Flags: MW
TeX: 690 194
HStem: -200 36<76 114 76 129> 395 47<83 91.5> 430 20<267 267> 539 156<167 210>
VStem: -56 125<-115.5 -91> 111 156<595.5 638.5> 159 108<-42 355 355 365.5>
AnchorPoint: "Anchor-4" 124 -194 basechar 0
AnchorPoint: "Anchor-3" 351 694 basechar 0
AnchorPoint: "Anchor-2" 351 -194 basechar 0
LayerCount: 2
Fore
SplineSet
111 617 m 0x14
 111 660 145 695 189 695 c 0
 231 695 267 660 267 617 c 0
 267 574 231 539 189 539 c 0
 145 539 111 574 111 617 c 0x14
-56 -109 m 0xaa
 -56 -73 -31 -46 7 -46 c 0
 43 -46 69 -73 69 -108 c 0
 69 -123 64 -144 45 -158 c 1
 60 -162 68 -164 84 -164 c 0
 144 -164 159 -92 159 -42 c 2
 159 355 l 2
 159 376 159 389 137 393 c 0
 122 395 100 395 83 395 c 1
 83 442 l 1xca
 267 450 l 1
 267 -42 l 2
 267 -148 172 -200 86 -200 c 0
 4 -200 -56 -166 -56 -109 c 0xaa
EndSplineSet
Substitution2: "'smcp' +wYy7OMeQxdDBHAAA +wYzWFQAA +swC7OMeQuFwA lookup 3 subtable" J.sc
EndChar

StartChar: k
Encoding: 107 107 76
Width: 606
GlyphClass: 2
Flags: MW
TeX: 690 0
HStem: 0 47<37 106> 397 47<369 380.5> 639 47<37 68> 674 20G<214 214>
VStem: 106 108<237 600 600 619.5>
AnchorPoint: "Anchor-5" 312 694 basechar 0
AnchorPoint: "Anchor-4" 312 0 basechar 0
AnchorPoint: "Anchor-3" 606 694 basechar 0
AnchorPoint: "Anchor-2" 606 -194 basechar 0
LayerCount: 2
Fore
SplineSet
37 0 m 1xd8
 37 47 l 1
 106 47 l 1
 106 600 l 2
 106 639 99 639 37 639 c 1
 37 686 l 1xe8
 214 694 l 1
 214 237 l 1
 403 386 l 1
 395 394 392 397 369 397 c 1
 369 444 l 1
 392 443 457 441 484 441 c 0
 510 441 535 441 562 444 c 1
 562 397 l 1
 495 397 486 390 472 379 c 2
 342 278 l 1
 511 67 l 2
 524 51 527 47 570 47 c 2
 587 47 l 1
 587 0 l 1
 553 2 519 3 483 3 c 0
 478 3 391 2 361 0 c 1
 361 47 l 1
 374 47 392 47 392 56 c 0
 392 59 376 79 367 91 c 2
 266 217 l 1
 246 203 238 197 209 174 c 1
 209 47 l 1
 278 47 l 1
 278 0 l 1
 242 1 194 3 157 3 c 0
 121 3 74 1 37 0 c 1xd8
EndSplineSet
Substitution2: "'smcp' +wYy7OMeQxdDBHAAA +wYzWFQAA +swC7OMeQuFwA lookup 3 subtable" K.sc
EndChar

StartChar: l
Encoding: 108 108 77
Width: 319
GlyphClass: 2
Flags: MW
TeX: 690 0
HStem: 0 47<47 116> 639 47<47 78> 674 20G<224 224>
VStem: 116 108<47 600 600 619.5>
AnchorPoint: "Anchor-5" 170 694 basechar 0
AnchorPoint: "Anchor-4" 170 0 basechar 0
AnchorPoint: "Anchor-3" 319 694 basechar 0
AnchorPoint: "Anchor-2" 319 -194 basechar 0
LayerCount: 2
Fore
SplineSet
47 0 m 1xb0
 47 47 l 1
 116 47 l 1
 116 600 l 2
 116 639 109 639 47 639 c 1
 47 686 l 1xd0
 224 694 l 1
 224 47 l 1
 293 47 l 1
 293 0 l 1
 259 1 213 3 170 3 c 0
 127 3 79 1 47 0 c 1xb0
EndSplineSet
Substitution2: "'smcp' +wYy7OMeQxdDBHAAA +wYzWFQAA +swC7OMeQuFwA lookup 3 subtable" L.sc
EndChar

StartChar: m
Encoding: 109 109 78
Width: 958
GlyphClass: 2
Flags: MW
TeX: 444 0
HStem: 0 47<45 114> 395 47<45 76> 414 36<349.5 394 666.5 713>
VStem: 114 103<342 356 356 375.5> 114 114<47 256 47 356 47 375.5> 433 114<47 256 47 317 47 355.5> 752 114<47 306 47 317 47 355.5>
AnchorPoint: "Anchor-5" 490 453 basechar 0
AnchorPoint: "Anchor-4" 490 0 basechar 0
AnchorPoint: "Anchor-3" 958 694 basechar 0
AnchorPoint: "Anchor-2" 958 -194 basechar 0
LayerCount: 2
Fore
SplineSet
45 0 m 1xae
 45 47 l 1
 114 47 l 1xae
 114 356 l 2
 114 395 107 395 45 395 c 1
 45 442 l 1xd6
 217 450 l 1
 217 342 l 1xb6
 249 405 306 450 393 450 c 0
 431 450 523 447 543 354 c 1
 569 400 621 450 712 450 c 0
 815 450 866 409 866 306 c 2
 866 47 l 1
 935 47 l 1
 935 0 l 1
 907 1 848 3 809 3 c 0
 771 3 711 1 683 0 c 1
 683 47 l 1
 752 47 l 1
 752 317 l 2
 752 394 730 414 696 414 c 0
 634 414 547 365 547 256 c 2
 547 47 l 1
 616 47 l 1
 616 0 l 1
 588 1 529 3 490 3 c 0
 452 3 392 1 364 0 c 1
 364 47 l 1
 433 47 l 1
 433 317 l 2
 433 394 411 414 377 414 c 0
 315 414 228 365 228 256 c 2
 228 47 l 1
 297 47 l 1
 297 0 l 1
 269 1 210 3 171 3 c 0
 133 3 73 1 45 0 c 1xae
EndSplineSet
Substitution2: "'smcp' +wYy7OMeQxdDBHAAA +wYzWFQAA +swC7OMeQuFwA lookup 3 subtable" M.sc
EndChar

StartChar: n
Encoding: 110 110 79
Width: 638
GlyphClass: 2
Flags: MW
TeX: 444 0
HStem: 0 47<45 114> 395 47<45 76> 414 36<345.5 394>
VStem: 114 103<342 356 356 375.5> 114 114<47 256 47 356 47 375.5> 432 114<47 306 47 317 47 355>
AnchorPoint: "Anchor-5" 330 453 basechar 0
AnchorPoint: "Anchor-4" 330 0 basechar 0
AnchorPoint: "Anchor-3" 638 694 basechar 0
AnchorPoint: "Anchor-2" 638 -194 basechar 0
LayerCount: 2
Fore
SplineSet
45 0 m 1xac
 45 47 l 1
 114 47 l 1xac
 114 356 l 2
 114 395 107 395 45 395 c 1
 45 442 l 1xd4
 217 450 l 1
 217 342 l 1xb4
 243 393 296 450 392 450 c 0
 492 450 546 411 546 306 c 2
 546 47 l 1
 615 47 l 1
 615 0 l 1
 587 1 528 3 489 3 c 0
 451 3 391 1 363 0 c 1
 363 47 l 1
 432 47 l 1
 432 317 l 2
 432 393 411 414 377 414 c 0
 314 414 228 365 228 256 c 2
 228 47 l 1
 297 47 l 1
 297 0 l 1
 269 1 210 3 171 3 c 0
 133 3 73 1 45 0 c 1xac
EndSplineSet
Substitution2: "'smcp' +wYy7OMeQxdDBHAAA +wYzWFQAA +swC7OMeQuFwA lookup 3 subtable" N.sc
EndChar

StartChar: o
Encoding: 111 111 80
Width: 575
GlyphClass: 2
Flags: MW
TeX: 444 0
HStem: -6 40<223.5 350.5 223.5 371> 417 36<262.5 308>
VStem: 32 128<185.5 251.5 185.5 284.5> 414 128<185.5 253>
AnchorPoint: "Anchor-5" 286 453 basechar 0
AnchorPoint: "Anchor-4" 287 0 basechar 0
AnchorPoint: "Anchor-3" 575 694 basechar 0
AnchorPoint: "Anchor-2" 575 -194 basechar 0
AnchorPoint: "Anchor-1" 287 0 basechar 0
LayerCount: 2
Fore
SplineSet
32 218 m 0
 32 351 123 453 287 453 c 0
 450 453 542 352 542 218 c 0
 542 95 455 -6 287 -6 c 0
 120 -6 32 94 32 218 c 0
160 229 m 0
 160 142 160 34 287 34 c 0
 414 34 414 142 414 229 c 0
 414 277 414 332 393 366 c 0
 371 401 329 417 287 417 c 0
 238 417 196 396 177 359 c 0
 160 325 160 274 160 229 c 0
EndSplineSet
Substitution2: "'smcp' +wYy7OMeQxdDBHAAA +wYzWFQAA +swC7OMeQuFwA lookup 3 subtable" O.sc
EndChar

StartChar: p
Encoding: 112 112 81
Width: 638
GlyphClass: 2
Flags: MW
TeX: 444 194
HStem: -194 47<37 106> -6 36<330 369.5 330 423> 395 47<37 68> 410 40<338 382.5>
VStem: 106 114<-147 39 107.5 117 117 329> 472 128<153.5 286>
AnchorPoint: "Anchor-5" 352 453 basechar 0
AnchorPoint: "Anchor-4" 352 -194 basechar 0
AnchorPoint: "Anchor-3" 638 694 basechar 0
AnchorPoint: "Anchor-2" 638 -194 basechar 0
LayerCount: 2
Fore
SplineSet
37 -147 m 1xdc
 106 -147 l 1
 106 357 l 2
 106 395 99 395 37 395 c 1
 37 442 l 1xec
 214 450 l 1
 214 401 l 1
 237 419 290 450 365 450 c 0
 509 450 600 356 600 223 c 0
 600 84 498 -6 348 -6 c 0
 307 -6 263 4 220 39 c 1
 220 -147 l 1
 289 -147 l 1
 289 -194 l 1
 261 -193 202 -191 163 -191 c 0
 125 -191 65 -193 37 -194 c 1
 37 -147 l 1xdc
220 117 m 2
 220 98 220 97 231 84 c 0
 276 30 323 30 337 30 c 0
 402 30 472 82 472 223 c 0
 472 349 416 410 349 410 c 0xdc
 327 410 275 404 235 363 c 0
 221 349 220 348 220 329 c 2
 220 117 l 2
EndSplineSet
Substitution2: "'smcp' +wYy7OMeQxdDBHAAA +wYzWFQAA +swC7OMeQuFwA lookup 3 subtable" P.sc
EndChar

StartChar: q
Encoding: 113 113 82
Width: 606
GlyphClass: 2
Flags: MW
TeX: 444 194
HStem: -191 44<349 494.5> -6 36<257 302.5> 410 40<270 317 214 338>
VStem: 38 128<154.5 291.5> 418 114<-147 48 48 48>
AnchorPoint: "Anchor-5" 285 453 basechar 0
AnchorPoint: "Anchor-4" 285 -194 basechar 0
AnchorPoint: "Anchor-3" 606 694 basechar 0
AnchorPoint: "Anchor-2" 606 -194 basechar 0
LayerCount: 2
Fore
SplineSet
38 222 m 0
 38 361 141 450 287 450 c 0
 347 450 403 420 438 371 c 1
 491 450 l 1
 532 450 l 1
 532 -147 l 1
 601 -147 l 1
 601 -194 l 1
 573 -193 514 -191 475 -191 c 0
 437 -191 377 -193 349 -194 c 1
 349 -147 l 1
 418 -147 l 1
 418 48 l 1
 372 8 327 -6 278 -6 c 0
 139 -6 38 81 38 222 c 0
166 221 m 0
 166 88 226 30 288 30 c 0
 318 30 369 41 409 100 c 0
 424 121 424 124 424 142 c 2
 424 281 l 2
 424 331 376 410 300 410 c 0
 240 410 166 363 166 221 c 0
EndSplineSet
Substitution2: "'smcp' +wYy7OMeQxdDBHAAA +wYzWFQAA +swC7OMeQuFwA lookup 3 subtable" Q.sc
EndChar

StartChar: r
Encoding: 114 114 83
Width: 473
GlyphClass: 2
Flags: MW
TeX: 444 0
HStem: 0 47<37 106> 395 47<37 68> 414 36<301 339>
VStem: 106 97<337 356 356 375.5> 106 108<47 222 47 356> 320 122<348 382.5>
AnchorPoint: "Anchor-5" 210 453 basechar 0
AnchorPoint: "Anchor-4" 169 0 basechar 0
AnchorPoint: "Anchor-3" 473 694 basechar 0
AnchorPoint: "Anchor-2" 473 -194 basechar 0
LayerCount: 2
Fore
SplineSet
37 0 m 1xac
 37 47 l 1
 106 47 l 1xac
 106 356 l 2
 106 395 99 395 37 395 c 1
 37 442 l 1xd4
 203 450 l 1
 203 337 l 1xb4
 226 400 266 450 336 450 c 0
 388 450 442 421 442 368 c 0
 442 328 410 307 381 307 c 0
 352 307 320 327 320 368 c 0
 320 397 338 413 339 414 c 1
 239 414 214 292 214 222 c 2
 214 47 l 1
 301 47 l 1
 301 0 l 1
 265 3 201 3 163 3 c 0
 117 3 72 1 37 0 c 1xac
EndSplineSet
Substitution2: "'smcp' +wYy7OMeQxdDBHAAA +wYzWFQAA +swC7OMeQuFwA lookup 3 subtable" R.sc
EndChar

StartChar: s
Encoding: 115 115 84
Width: 453
GlyphClass: 2
Flags: MW
TeX: 444 0
HStem: -6 36<220 241 177 245.5> 421 32<211.5 242 207 258.5>
VStem: 38 48 38 71<335.5 387.5> 339 47 344 71<67.5 134.5>
AnchorPoint: "Anchor-5" 222 453 basechar 0
AnchorPoint: "Anchor-4" 230 0 basechar 0
AnchorPoint: "Anchor-3" 453 694 basechar 0
AnchorPoint: "Anchor-2" 453 -194 basechar 0
LayerCount: 2
Fore
SplineSet
38 22 m 2xe4
 38 131 l 2
 38 154 38 160 62 160 c 0
 76 160 81 160 86 146 c 0
 98 103 124 30 230 30 c 0
 252 30 344 30 344 105 c 0xe4
 344 164 269 177 233 183 c 0
 156 197 118 203 78 238 c 0
 58 255 38 282 38 322 c 0
 38 453 192 453 222 453 c 0
 262 453 297 447 323 434 c 1
 362 453 364 453 368 453 c 0
 386 453 386 444 386 425 c 2
 386 345 l 2
 386 322 386 317 362 317 c 0
 341 317 340 322 339 337 c 0
 334 392 296 421 221 421 c 0
 202 421 109 421 109 359 c 0xd8
 109 312 174 301 211 294 c 0
 289 281 321 275 360 246 c 0
 395 218 415 183 415 140 c 0
 415 -6 261 -6 230 -6 c 0
 210 -6 158 -6 112 26 c 0
 109 24 87 9 86 9 c 0
 65 -6 63 -6 56 -6 c 0
 38 -6 38 3 38 22 c 2xe4
EndSplineSet
Substitution2: "'smcp' +wYy7OMeQxdDBHAAA +wYzWFQAA +swC7OMeQuFwA lookup 3 subtable" S.sc
EndChar

StartChar: t
Encoding: 116 116 85
Width: 447
GlyphClass: 2
Flags: MW
TeX: 633 0
HStem: -6 40<246 289 246 299> 397 36<21 21 21 103> 397 47<217 363 217 363>
VStem: 103 114<123 397> 170 47<635 635> 335 47<126 177>
AnchorPoint: "Anchor-5" 160 635 basechar 0
AnchorPoint: "Anchor-4" 236 0 basechar 0
AnchorPoint: "Anchor-3" 447 694 basechar 0
AnchorPoint: "Anchor-2" 447 -194 basechar 0
LayerCount: 2
Fore
SplineSet
21 397 m 1xd4
 21 433 l 1xd4
 120 436 169 535 170 635 c 1
 217 635 l 1
 217 444 l 1xac
 363 444 l 1
 363 397 l 1
 217 397 l 1xb4
 217 121 l 2
 217 98 217 34 275 34 c 0
 303 34 335 58 335 126 c 2
 335 177 l 1
 382 177 l 1
 382 124 l 2
 382 51 337 -6 261 -6 c 0
 190 -6 103 16 103 123 c 2
 103 397 l 1
 21 397 l 1xd4
EndSplineSet
Substitution2: "'smcp' +wYy7OMeQxdDBHAAA +wYzWFQAA +swC7OMeQuFwA lookup 3 subtable" T.sc
EndChar

StartChar: u
Encoding: 117 117 86
Width: 638
GlyphClass: 2
Flags: MW
TeX: 444 0
HStem: -6 36<269.5 307> 0 47<584 615> 395 47<45 76> 430 20G<228 228 546 546>
VStem: 114 114<123 356 356 375.5> 432 114<165 356 356 375.5>
AnchorPoint: "Anchor-5" 330 453 basechar 0
AnchorPoint: "Anchor-4" 330 0 basechar 0
AnchorPoint: "Anchor-3" 638 694 basechar 0
AnchorPoint: "Anchor-2" 638 -194 basechar 0
AnchorPoint: "Anchor-1" 492 0 basechar 0
LayerCount: 2
Fore
SplineSet
45 395 m 1xac
 45 442 l 1xac
 228 450 l 1x1c
 228 109 l 2
 228 55 231 30 308 30 c 0
 381 30 432 83 432 165 c 2
 432 356 l 2
 432 395 425 395 363 395 c 1
 363 442 l 1xac
 546 450 l 1
 546 86 l 2
 546 47 553 47 615 47 c 1
 615 0 l 1x5c
 438 -6 l 1
 438 72 l 1
 392 -6 320 -6 294 -6 c 0
 195 -6 114 16 114 123 c 2
 114 356 l 2
 114 395 107 395 45 395 c 1xac
EndSplineSet
Substitution2: "'smcp' +wYy7OMeQxdDBHAAA +wYzWFQAA +swC7OMeQuFwA lookup 3 subtable" U.sc
EndChar

StartChar: v
Encoding: 118 118 87
Width: 606
GlyphClass: 2
Flags: MW
TeX: 444 0
ItalicCorrection: 15
HStem: -4 21G<296.5 311.5> 397 47<26 26 26 90>
AnchorPoint: "Anchor-5" 303 453 basechar 0
AnchorPoint: "Anchor-4" 303 0 basechar 0
AnchorPoint: "Anchor-3" 606 694 basechar 0
AnchorPoint: "Anchor-2" 606 -194 basechar 0
LayerCount: 2
Fore
SplineSet
26 397 m 1
 26 444 l 1
 67 443 112 441 140 441 c 0
 141 441 231 442 264 444 c 1
 264 397 l 1
 210 397 l 1
 337 124 l 1
 453 374 l 2
 458 384 458 385 458 386 c 0
 458 394 429 397 410 397 c 1
 410 444 l 1
 431 443 476 441 501 441 c 0
 526 441 555 442 580 444 c 1
 580 397 l 1
 516 397 512 390 506 376 c 2
 340 20 l 2
 330 -1 320 -4 303 -4 c 0
 290 -4 277 -4 265 21 c 2
 90 397 l 1
 26 397 l 1
EndSplineSet
Substitution2: "'smcp' +wYy7OMeQxdDBHAAA +wYzWFQAA +swC7OMeQuFwA lookup 3 subtable" V.sc
EndChar

StartChar: w
Encoding: 119 119 88
Width: 830
GlyphClass: 2
Flags: MW
TeX: 444 0
ItalicCorrection: 15
HStem: -4 21G<260.5 285.5 544.5 569.5> 397 47<25 25 25 84>
AnchorPoint: "Anchor-5" 414 453 basechar 0
AnchorPoint: "Anchor-4" 415 0 basechar 0
AnchorPoint: "Anchor-3" 830 694 basechar 0
AnchorPoint: "Anchor-2" 830 -194 basechar 0
LayerCount: 2
Fore
SplineSet
25 397 m 1
 25 444 l 1
 59 443 103 441 134 441 c 0
 175 441 216 442 257 444 c 1
 257 397 l 1
 201 397 l 1
 306 139 l 1
 385 331 l 2
 386 334 389 340 389 344 c 0
 389 345 389 347 368 397 c 1
 309 397 l 1
 309 444 l 1
 325 443 367 441 409 441 c 0
 439 441 491 443 523 444 c 1
 523 397 l 1
 467 397 l 1
 581 117 l 1
 686 373 l 2
 687 376 690 382 690 385 c 0
 690 396 641 397 632 397 c 1
 632 444 l 1
 654 443 701 441 728 441 c 0
 752 441 782 442 805 444 c 1
 805 397 l 1
 746 397 742 389 737 376 c 2
 593 23 l 2
 586 6 582 -4 557 -4 c 0
 532 -4 528 6 521 23 c 2
 415 282 l 1
 309 23 l 2
 302 6 298 -4 273 -4 c 0
 248 -4 244 6 237 23 c 2
 84 397 l 1
 25 397 l 1
EndSplineSet
Substitution2: "'smcp' +wYy7OMeQxdDBHAAA +wYzWFQAA +swC7OMeQuFwA lookup 3 subtable" W.sc
EndChar

StartChar: x
Encoding: 120 120 89
Width: 606
GlyphClass: 2
Flags: MW
TeX: 444 0
HStem: 0 47<22 46> 397 47<27 98 27 27>
AnchorPoint: "Anchor-5" 304 453 basechar 0
AnchorPoint: "Anchor-4" 304 0 basechar 0
AnchorPoint: "Anchor-3" 606 694 basechar 0
AnchorPoint: "Anchor-2" 606 -194 basechar 0
LayerCount: 2
Fore
SplineSet
22 0 m 1
 22 47 l 1
 70 47 106 47 123 66 c 2
 254 213 l 1
 98 397 l 1
 27 397 l 1
 27 444 l 1
 60 443 105 441 137 441 c 0
 169 441 232 443 258 444 c 1
 258 397 l 1
 218 397 l 1
 316 282 l 1
 400 376 l 2
 404 380 404 382 408 388 c 1
 396 395 384 397 370 397 c 1
 370 444 l 1
 398 443 448 441 473 441 c 0
 478 441 530 442 565 444 c 1
 565 397 l 1
 482 397 476 390 463 376 c 2
 346 246 l 1
 514 47 l 1
 585 47 l 1
 585 0 l 1
 552 1 507 3 475 3 c 0
 442 3 381 1 355 0 c 1
 355 47 l 1
 394 47 l 1
 284 177 l 1
 187 68 l 2
 180 60 180 59 180 58 c 0
 180 52 199 47 217 47 c 1
 217 0 l 1
 197 1 139 3 114 3 c 0
 109 3 57 2 22 0 c 1
EndSplineSet
Substitution2: "'smcp' +wYy7OMeQxdDBHAAA +wYzWFQAA +swC7OMeQuFwA lookup 3 subtable" X.sc
EndChar

StartChar: y
Encoding: 121 121 90
Width: 606
GlyphClass: 2
Flags: MW
TeX: 444 194
ItalicCorrection: 15
HStem: -200 36<122 164.5 122 167.5> 397 47<26 90 26 26>
VStem: 22 115<-124.5 -90.5 -124.5 -88.5>
AnchorPoint: "Anchor-5" 302 453 basechar 0
AnchorPoint: "Anchor-4" 301 -194 basechar 0
AnchorPoint: "Anchor-3" 606 694 basechar 0
AnchorPoint: "Anchor-2" 606 -194 basechar 0
LayerCount: 2
Fore
SplineSet
22 -108 m 0
 22 -69 51 -50 79 -50 c 0
 113 -50 137 -74 137 -107 c 0
 137 -142 114 -156 105 -160 c 1
 113 -163 115 -164 129 -164 c 0
 200 -164 232 -96 254 -48 c 2
 277 0 l 1
 90 397 l 1
 26 397 l 1
 26 444 l 1
 67 443 112 441 140 441 c 0
 141 441 231 442 264 444 c 1
 264 397 l 1
 210 397 l 1
 337 127 l 1
 452 373 l 2
 453 374 457 384 457 385 c 0
 457 397 412 397 410 397 c 1
 410 444 l 1
 431 443 476 441 501 441 c 0
 526 441 556 442 580 444 c 1
 580 397 l 1
 516 397 513 390 506 376 c 2
 291 -81 l 2
 264 -138 206 -200 129 -200 c 0
 69 -200 22 -159 22 -108 c 0
EndSplineSet
Substitution2: "'smcp' +wYy7OMeQxdDBHAAA +wYzWFQAA +swC7OMeQuFwA lookup 3 subtable" Y.sc
EndChar

StartChar: z
Encoding: 122 122 91
Width: 511
GlyphClass: 2
Flags: MW
TeX: 444 0
HStem: 0 40<172 258 258 324> 408 36<183.5 235 235 320>
VStem: 48 47<269 269> 415 47<202 202>
AnchorPoint: "Anchor-5" 247 453 basechar 0
AnchorPoint: "Anchor-4" 247 0 basechar 0
AnchorPoint: "Anchor-3" 511 694 basechar 0
AnchorPoint: "Anchor-2" 511 -194 basechar 0
LayerCount: 2
Fore
SplineSet
32 22 m 0
 32 31 32 33 41 44 c 2
 320 408 l 1
 235 408 l 2
 132 408 101 372 95 269 c 1
 48 269 l 1
 60 444 l 1
 427 444 l 2
 445 444 459 444 459 423 c 0
 459 414 457 412 449 401 c 2
 172 40 l 1
 258 40 l 2
 390 40 406 101 415 202 c 1
 462 202 l 1
 444 0 l 1
 64 0 l 2
 45 0 32 0 32 22 c 0
EndSplineSet
Substitution2: "'smcp' +wYy7OMeQxdDBHAAA +wYzWFQAA +swC7OMeQuFwA lookup 3 subtable" Z.sc
EndChar

StartChar: braceleft
Encoding: 123 123 92
Width: 575
GlyphClass: 2
Flags: MW
TeX: 749 249
HStem: -250 37
VStem: 230 114<-103 112 112 115 379 385 385 603 603 608>
LayerCount: 2
Fore
SplineSet
78 250 m 0
 78 275 104 264 141 275 c 0
 224 300 230 359 230 379 c 2
 230 603 l 2
 230 634 228 691 316 726 c 0
 361 743 418 750 468 750 c 0
 482 750 495 750 495 732 c 0
 495 706 467 718 425 705 c 0
 349 682 344 631 344 608 c 2
 344 385 l 2
 344 360 346 281 223 250 c 1
 345 219 344 143 344 115 c 2
 344 -108 l 2
 344 -133 350 -204 474 -213 c 0
 483 -214 496 -218 496 -232 c 0
 496 -249 482 -250 471 -250 c 0
 375 -250 250 -230 232 -138 c 0
 230 -126 230 -115 230 -103 c 2
 230 112 l 2
 230 136 228 152 216 172 c 0
 194 207 152 225 112 230 c 0
 96 232 78 231 78 250 c 0
EndSplineSet
EndChar

StartChar: bar
Encoding: 124 124 93
Width: 319
GlyphClass: 2
Flags: MW
TeX: 749 249
VStem: 129 60<-209 -205 -205 705 705 709.5>
LayerCount: 2
Fore
SplineSet
129 -209 m 2
 129 705 l 2
 129 714 127 749 159 749 c 0
 171 749 189 744 189 710 c 2
 189 -205 l 2
 189 -220 189 -249 159 -249 c 0
 128 -249 129 -217 129 -209 c 2
EndSplineSet
EndChar

StartChar: braceright
Encoding: 125 125 94
Width: 575
GlyphClass: 2
Flags: MW
TeX: 749 249
HStem: 230 39 713 37<105 105>
VStem: 230 114<-108 -103 -103 112 385 386 386 600 600 603>
LayerCount: 2
Fore
SplineSet
78 -231 m 0
 78 -208 103 -216 137 -208 c 0
 225 -187 230 -131 230 -108 c 2
 230 115 l 2
 230 141 227 219 350 250 c 1
 230 280 230 356 230 385 c 2
 230 600 l 2
 230 612 230 624 227 636 c 0
 216 677 168 708 105 713 c 0
 95 714 78 713 78 731 c 0
 78 746 89 750 100 750 c 2
 104 750 l 2
 191 750 321 732 341 640 c 0
 344 628 344 616 344 603 c 2
 344 386 l 2
 344 293 429 273 463 269 c 0
 476 268 496 271 496 250 c 0
 496 230 474 232 461 230 c 0
 411 224 357 196 346 142 c 0
 344 132 344 122 344 112 c 2
 344 -103 l 2
 344 -135 343 -201 242 -232 c 0
 216 -240 172 -250 103 -250 c 0
 90 -250 78 -247 78 -231 c 0
EndSplineSet
EndChar

StartChar: asciitilde
Encoding: 126 126 95
Width: 703
GlyphClass: 2
Flags: MW
TeX: 690 0
HStem: 586 74<447.5 502.5> 620 74<199.5 257>
LayerCount: 2
Fore
SplineSet
95 611 m 1x80
 145 665 162 694 237 694 c 0x40
 308 694 412 660 483 660 c 0x80
 540 660 561 678 579 694 c 1x40
 605 669 l 1
 556 616 541 586 464 586 c 0x80
 384 586 297 620 217 620 c 0x40
 160 620 139 601 121 586 c 1
 95 611 l 1x80
EndSplineSet
EndChar

StartChar: exclamdown
Encoding: 161 161 97
Width: 350
GlyphClass: 2
Flags: MW
TeX: 499 194
HStem: 344 156<151.5 197.5 151 198>
VStem: 96 157<-155 -131 -155 -128.5>
LayerCount: 2
Fore
SplineSet
96 -134 m 0
 96 -123 99 -113 100 -102 c 2
 148 241 l 2
 151 263 151 274 174 274 c 0
 202 274 198 256 202 235 c 2
 251 -116 l 2
 252 -122 253 -128 253 -134 c 0
 253 -176 214 -205 175 -205 c 0
 138 -205 96 -179 96 -134 c 0
97 422 m 0
 97 461 128 500 174 500 c 0
 221 500 252 461 252 422 c 0
 252 383 221 344 175 344 c 0
 128 344 97 383 97 422 c 0
EndSplineSet
EndChar

StartChar: cent
Encoding: 162 162 98
Width: 575
GlyphClass: 2
Flags: MW
TeX: 541 97
HStem: -5 45<295 295> 411 41<295 295>
VStem: 38 128<198.5 269> 295 48<-97 -5 -97 -5 40 411 411 411 453 545> 405 125<343 373> 484 57
LayerCount: 2
Fore
SplineSet
38 223 m 0xf4
 38 315 91 436 295 452 c 1
 295 545 l 1
 343 545 l 1
 343 453 l 1
 417 453 530 448 530 362 c 0
 530 324 501 299 467 299 c 0
 433 299 405 323 405 361 c 0xf8
 405 385 414 396 423 407 c 1
 397 411 370 412 343 412 c 1
 343 35 l 1
 427 38 464 69 484 100 c 0
 499 123 496 131 518 131 c 0
 528 131 541 129 541 117 c 0
 540 107 519 9 343 -5 c 1
 343 -97 l 1
 295 -97 l 1
 295 -5 l 1
 91 10 38 132 38 223 c 0xf4
166 223 m 0
 166 174 171 66 295 40 c 1
 295 411 l 1
 201 395 166 338 166 223 c 0
EndSplineSet
EndChar

StartChar: sterling
Encoding: 163 163 99
Width: 735
GlyphClass: 2
Flags: MW
TeX: 690 0
HStem: -5 36<148.5 177 148.5 214.5> -5 71<521.5 575 521.5 586> 67 72<162 185.5> 323 48<193.5 262 203 262 203 262 376 466> 458 125 667 37<456.5 495.5>
VStem: 63 65<45.5 52.5 45.5 77.5> 262 114<212 323 371 483 483 487.5> 544 125<501.5 530> 653 48
LayerCount: 2
Fore
SplineSet
63 51 m 0xbf40
 63 104 120 139 204 139 c 0
 223 139 242 137 261 134 c 1
 262 212 l 1
 262 323 l 1
 201 323 l 2
 186 323 177 325 177 347 c 0
 177 369 189 371 203 371 c 2
 262 371 l 1
 262 483 l 2
 262 492 261 501 261 510 c 0
 261 665 385 704 476 704 c 0
 598 704 669 608 669 524 c 0
 669 472 628 458 606 458 c 0
 573 458 544 483 544 520 c 0xbf80
 544 540 554 580 608 583 c 1
 570 655 513 667 478 667 c 0
 435 667 403 646 389 616 c 0
 377 592 376 560 376 526 c 2
 376 371 l 1
 466 371 l 2
 482 371 492 369 492 347 c 0
 492 326 482 323 466 323 c 2
 376 323 l 1
 376 185 l 2
 376 154 374 137 363 108 c 1
 445 84 492 66 551 66 c 0
 599 66 644 86 653 130 c 0
 656 144 658 153 676 153 c 0
 694 153 701 147 701 132 c 0
 701 77 645 -5 527 -5 c 0x7f40
 440 -5 334 40 319 40 c 0
 302 40 268 -5 161 -5 c 0
 113 -5 63 4 63 51 c 0xbf40
128 49 m 0
 128 42 135 31 162 31 c 0
 192 31 215 41 236 62 c 1
 211 66 193 67 178 67 c 0
 135 67 128 56 128 49 c 0
EndSplineSet
EndChar

StartChar: currency
Encoding: 164 164 100
Width: 773
GlyphClass: 2
Flags: MW
TeX: 571 0
HStem: -5 60<341 418> 516 61<386 387 387 424 386 456>
VStem: 95 60<252.5 314> 616 61<246 319.5 246 357>
LayerCount: 2
Fore
SplineSet
53 -18 m 0
 53 1 82 25 155 97 c 1
 155 98 l 1
 113 151 95 219 95 286 c 0
 95 342 109 416 155 474 c 1
 155 475 l 1
 53 576 53 574 53 589 c 0
 53 604 66 619 82 619 c 0
 100 619 111 604 198 517 c 1
 251 559 319 577 386 577 c 2
 387 577 l 2
 461 577 526 555 574 517 c 1
 575 517 l 1
 676 619 674 619 689 619 c 0
 704 619 719 605 719 589 c 0
 719 571 704 561 617 474 c 1
 658 421 677 353 677 286 c 0
 677 206 653 145 617 97 c 1
 706 9 719 -1 719 -18 c 0
 719 -33 706 -47 690 -47 c 0
 673 -47 669 -40 575 55 c 1
 574 55 l 1
 521 13 451 -5 385 -5 c 0
 297 -5 238 24 197 55 c 1
 104 -39 99 -47 82 -47 c 0
 65 -47 53 -33 53 -18 c 0
155 285 m 0
 155 143 247 55 385 55 c 0
 530 55 616 148 616 286 c 0
 616 428 525 516 387 516 c 0
 243 516 155 423 155 285 c 0
EndSplineSet
EndChar

StartChar: yen
Encoding: 165 165 101
Width: 869
GlyphClass: 2
Flags: MW
TeX: 690 0
ItalicCorrection: 28
HStem: 0 48<258 366> 200 36<103 104 104 366 503 765> 422 36<145 240 145 250 431 539 431 431 629 771 771 772> 638 48<19 19 19 117>
VStem: 366 137<48 200 48 200 236 256 48 262 48 270.5>
LayerCount: 2
Fore
SplineSet
19 638 m 1
 19 686 l 1
 66 685 114 683 177 683 c 0
 240 683 304 684 367 686 c 1
 367 638 l 1
 283 638 l 1
 405 458 l 1
 546 458 l 2
 564 458 565 460 576 476 c 0
 673 618 675 618 675 626 c 0
 675 634 658 638 603 638 c 1
 603 686 l 1
 648 684 693 683 738 683 c 0
 760 683 794 683 849 686 c 1
 849 638 l 1
 848 638 l 2
 750 638 748 633 732 610 c 2
 629 458 l 1
 771 458 l 2
 782 458 801 457 801 440 c 0
 801 432 795 422 772 422 c 2
 603 422 l 1
 528 303 503 292 503 256 c 2
 503 236 l 1
 771 236 l 2
 793 236 801 228 801 219 c 0
 801 211 794 203 785 201 c 0
 778 199 772 200 765 200 c 2
 503 200 l 1
 503 48 l 1
 611 48 l 1
 611 0 l 1
 551 2 490 3 430 3 c 0
 413 3 361 3 258 0 c 1
 258 48 l 1
 366 48 l 1
 366 200 l 1
 104 200 l 2
 102 200 99 199 96 199 c 0
 84 199 68 201 68 218 c 0
 68 235 84 236 98 236 c 2
 366 236 l 1
 366 262 l 2
 366 279 362 280 277 404 c 0
 266 421 261 422 250 422 c 2
 101 422 l 2
 87 422 76 423 70 431 c 0
 64 440 69 452 78 456 c 0
 83 458 99 458 145 458 c 2
 240 458 l 1
 117 638 l 1
 19 638 l 1
431 422 m 1
 484 343 l 1
 539 422 l 1
 431 422 l 1
EndSplineSet
EndChar

StartChar: brokenbar
Encoding: 166 166 102
Width: 192
GlyphClass: 2
Flags: MW
TeX: 749 249
VStem: 65 60<-211 -210 -210 126 126 129 371 374 374 706 706 710>
LayerCount: 2
Fore
SplineSet
65 126 m 2
 65 137 64 154 81 164 c 0
 85 166 91 168 95 168 c 0
 103 168 125 164 125 129 c 2
 125 -210 l 2
 125 -245 105 -250 96 -250 c 0
 87 -250 65 -246 65 -211 c 2
 65 126 l 2
65 371 m 2
 65 706 l 2
 65 715 64 749 95 749 c 0
 103 749 125 746 125 710 c 2
 125 374 l 2
 125 366 126 332 95 332 c 0
 87 332 65 336 65 371 c 2
EndSplineSet
EndChar

StartChar: section
Encoding: 167 167 103
Width: 529
GlyphClass: 2
Flags: MW
TeX: 690 194
HStem: -200 37<241.5 289 241.5 311.5> 663 36<231.5 286.5>
VStem: 80 70<232.5 274 232.5 291.5 521 574.5> 96 114<-84 -57.5 -84 -57> 319 114<556.5 591.5> 378 71<-52.5 -21.5>
LayerCount: 2
Fore
SplineSet
80 253 m 0xe4
 80 330 133 367 155 381 c 1
 115 421 80 471 80 542 c 0
 80 636 168 699 265 699 c 0
 358 699 433 645 433 575 c 0
 433 535 402 517 375 517 c 0
 344 517 319 540 319 573 c 0
 319 610 346 623 360 629 c 1
 335 650 307 663 266 663 c 0
 197 663 150 601 150 548 c 0xe8
 150 494 245 480 303 453 c 0
 413 401 448 308 448 246 c 0
 448 169 396 132 374 118 c 1
 407 84 449 34 449 -43 c 0
 449 -137 360 -200 263 -200 c 0
 170 -200 96 -146 96 -76 c 0
 96 -38 124 -17 153 -17 c 0
 184 -17 210 -41 210 -74 c 0xd4
 210 -94 201 -117 168 -129 c 1
 192 -148 220 -163 263 -163 c 0
 315 -163 368 -126 377 -59 c 0
 377 -56 378 -54 378 -51 c 0
 378 8 289 17 225 47 c 0
 114 100 80 191 80 253 c 0xe4
150 263 m 0
 150 202 234 203 334 149 c 1
 369 182 378 215 378 237 c 0xe4
 378 298 295 297 195 351 c 1
 160 318 150 285 150 263 c 0
EndSplineSet
EndChar

StartChar: dieresis
Encoding: 168 168 104
Width: 575
GlyphClass: 2
Flags: MW
TeX: 690 0
HStem: 530 156<154.5 195.5 152 196 377.5 417>
VStem: 97 155<586.5 627.5> 321 155<585.5 629.5>
LayerCount: 2
Fore
SplineSet
97 608 m 0
 97 647 129 686 175 686 c 0
 216 686 252 653 252 608 c 0
 252 565 217 530 175 530 c 0
 134 530 97 562 97 608 c 0
321 608 m 0
 321 651 356 686 398 686 c 0
 439 686 476 653 476 608 c 0
 476 561 436 530 398 530 c 0
 357 530 321 563 321 608 c 0
EndSplineSet
EndChar

StartChar: copyright
Encoding: 169 169 105
Width: 1277
GlyphClass: 2
Flags: MW
TeX: 749 249
HStem: -261 61<462 796 452.5 816> -11 48<577 715.5 577 738.5> 443 48<623.5 677 550 720> 700 61<479.5 797>
VStem: 63 61<140.5 377> 319 153<207 283 207 315> 827 66 845 48 1152 61<115 384>
LayerCount: 2
Fore
SplineSet
319 240 m 0xfd80
 319 390 452 491 648 491 c 0
 706 491 750 480 802 449 c 1
 844 476 864 490 876 490 c 0
 894 490 893 474 893 462 c 2xfd80
 893 325 l 2
 893 302 892 293 868 293 c 0
 832 293 847 306 827 350 c 0xfe80
 811 384 766 443 674 443 c 0
 573 443 524 402 505 378 c 0
 489 358 472 324 472 242 c 0
 472 172 476 37 678 37 c 0
 753 37 835 74 845 155 c 0
 847 168 848 178 869 178 c 0
 885 178 893 174 893 157 c 0
 893 92 826 -11 651 -11 c 0
 444 -11 319 96 319 240 c 0xfd80
63 250 m 0x9880
 63 504 236 761 640 761 c 0
 987 761 1213 553 1213 249 c 0
 1213 -46 997 -261 635 -261 c 0
 289 -261 63 -55 63 250 c 0x9880
124 250 m 0
 124 31 268 -200 637 -200 c 0
 955 -200 1152 -20 1152 250 c 0
 1152 518 956 700 638 700 c 0
 321 700 124 520 124 250 c 0
EndSplineSet
EndChar

StartChar: ordfeminine
Encoding: 170 170 106
Width: 511
GlyphClass: 2
Flags: MW
TeX: 749 0
HStem: 278 37<62.5 438 75 436> 370 36<187.5 226.5 187.5 229.5> 375 54<407 407 407 412 407 464> 511 32<293 293> 722 36<211 256.5>
VStem: 31 118<442 463 442 469.5> 71 125<632 667.5 631.5 683> 293 114<466 511 511 511 543 555 429 582 429 591>
LayerCount: 2
Fore
SplineSet
31 451 m 0xdd
 31 488 62 538 293 543 c 1
 293 582 l 2
 293 600 295 722 218 722 c 0
 204 722 183 719 159 708 c 1
 172 702 196 685 196 650 c 0
 196 613 167 588 133 588 c 0
 99 588 71 613 71 651 c 0
 71 715 138 758 224 758 c 0
 300 758 408 723 408 581 c 0
 408 572 407 564 407 555 c 2
 407 429 l 1
 456 416 493 435 493 399 c 0
 493 375 475 375 464 375 c 2
 412 375 l 2xbb
 340 375 320 382 310 413 c 1
 297 398 272 370 187 370 c 0
 118 370 31 381 31 451 c 0xdd
46 297 m 0
 49 314 63 315 75 315 c 2
 438 315 l 2
 459 314 463 302 463 295 c 0
 463 293 463 278 436 278 c 2
 73 278 l 2
 52 278 45 287 46 297 c 0
149 451 m 0xdd
 149 433 165 406 210 406 c 0
 243 406 276 416 288 436 c 0
 293 445 293 456 293 466 c 2
 293 511 l 1
 178 505 149 475 149 451 c 0xdd
EndSplineSet
EndChar

StartChar: guillemotleft
Encoding: 171 171 107
Width: 639
GlyphClass: 2
Flags: MW
TeX: 472 0
HStem: 1 21G<355 365 549 560>
LayerCount: 2
Fore
SplineSet
127 236 m 0
 127 245 136 250 150 259 c 0
 228 307 291 373 338 452 c 0
 343 461 348 472 362 472 c 0
 368 472 379 469 379 457 c 0
 379 446 341 335 245 236 c 1
 328 154 379 34 379 16 c 0
 379 4 368 1 362 1 c 0
 348 1 342 13 338 20 c 0
 254 162 145 214 133 225 c 0
 130 227 127 232 127 236 c 0
321 236 m 0
 321 260 435 287 532 452 c 0
 537 461 542 472 556 472 c 0
 562 472 573 469 573 457 c 0
 573 446 535 335 439 236 c 1
 522 154 573 34 573 16 c 0
 573 5 564 1 556 1 c 0
 542 1 536 13 532 20 c 0
 448 162 339 214 327 225 c 0
 324 228 321 232 321 236 c 0
EndSplineSet
Substitution2: "'locl' +rW2sAAAA,+ycDF7QAA +rODHINYV in +t3zS9AAA +x5AA lookup 14 subtable" guillemotleft.lat
AlternateSubs2: "'salt' +wqTQwMd8ua0A +swDFSNYV in +t3zS9AAA +x5AA lookup 11 subtable" guillemotleft.lat
Substitution2: "'locl' +rW2sAAAA,+ycDF7QAA +rODHINYV in +rfi5rQAA +x5AA lookup 6 subtable" guillemotleft.gr
AlternateSubs2: "'salt' +wqTQwMd8ua0A +swDFSNYV in +rfi5rQAA +x5AA lookup 5 subtable" guillemotleft.gr
EndChar

StartChar: logicalnot
Encoding: 172 172 108
Width: 766
GlyphClass: 2
Flags: MW
TeX: 444 0
HStem: 310 60<103 641 100 655>
VStem: 641 61<100 310 310 310>
LayerCount: 2
Fore
SplineSet
64 340 m 0
 64 348 67 370 103 370 c 2
 655 370 l 2
 657 370 659 371 661 371 c 0
 699 371 702 350 702 328 c 2
 702 100 l 2
 702 67 684 61 672 61 c 0
 660 61 642 67 641 100 c 2
 641 310 l 1
 100 310 l 2
 68 311 64 331 64 340 c 0
EndSplineSet
EndChar

StartChar: uni00AD
Encoding: 173 173 109
Width: 192
GlyphClass: 2
Flags: MW
TeX: 444 0
HStem: 174 97<12 318 12 318>
VStem: 12 306<174 271 174 271>
LayerCount: 2
Fore
SplineSet
12 174 m 1
 12 271 l 1
 318 271 l 1
 318 174 l 1
 12 174 l 1
EndSplineSet
EndChar

StartChar: registered
Encoding: 174 174 110
Width: 1277
GlyphClass: 2
Flags: MW
TeX: 749 249
HStem: -261 61<462 796 452.5 816> -11 37<865.5 876 876 892> 0 48<274 383> 222 36<519 578 578 596 519 578> 432 48<274 383 274 593 519 519 519 584> 700 61<479.5 797>
VStem: 63 61<140.5 377> 383 136<48 222 258 432> 724 153<340 350> 956 48 1152 61<115 384>
LayerCount: 2
Fore
SplineSet
274 0 m 1xbfe0
 274 48 l 1
 383 48 l 1xbfe0
 383 432 l 1
 274 432 l 1
 274 480 l 1
 593 480 l 2
 818 480 877 402 877 346 c 0
 877 282 801 250 753 238 c 1
 758 235 806 216 821 164 c 0
 835 115 831 26 900 26 c 0
 933 26 951 53 956 80 c 0
 957 88 957 110 980 110 c 0
 992 110 1004 105 1004 86 c 0
 1004 62 985 -11 892 -11 c 2
 876 -11 l 2xdfe0
 736 -11 681 12 681 104 c 2
 681 141 l 2
 681 192 652 222 596 222 c 2
 519 222 l 1
 519 48 l 1
 628 48 l 1
 628 0 l 1
 542 3 489 3 455 3 c 0
 395 3 334 2 274 0 c 1xbfe0
519 258 m 1
 578 258 l 2
 627 258 699 257 717 298 c 0
 724 314 724 330 724 350 c 0
 723 424 681 432 584 432 c 2
 519 432 l 1
 519 258 l 1
63 250 m 0x8620
 63 504 236 761 640 761 c 0
 987 761 1213 553 1213 249 c 0
 1213 -46 997 -261 635 -261 c 0
 289 -261 63 -55 63 250 c 0x8620
124 250 m 0
 124 31 268 -200 637 -200 c 0
 955 -200 1152 -20 1152 250 c 0
 1152 518 956 700 638 700 c 0
 321 700 124 520 124 250 c 0
EndSplineSet
EndChar

StartChar: macron
Encoding: 175 175 111
Width: 575
GlyphClass: 2
Flags: MW
TeX: 690 0
HStem: 645 52<80 495 80 495>
LayerCount: 2
Fore
SplineSet
80 645 m 1
 80 697 l 1
 495 697 l 1
 495 645 l 1
 80 645 l 1
EndSplineSet
EndChar

StartChar: degree
Encoding: 176 176 112
Width: 383
GlyphClass: 2
Flags: MW
TeX: 690 0
HStem: 431 61<171.5 211.5 171.5 229.5> 625 61<171.5 211.5>
VStem: 64 61<536 579 536 595> 258 61<538 581>
LayerCount: 2
Fore
SplineSet
64 559 m 0
 64 631 114 686 192 686 c 0
 269 686 319 631 319 558 c 0
 319 484 268 431 191 431 c 0
 114 431 64 486 64 559 c 0
125 558 m 0
 125 514 152 492 191 492 c 0
 232 492 258 517 258 559 c 0
 258 603 231 625 192 625 c 0
 151 625 125 600 125 558 c 0
EndSplineSet
EndChar

StartChar: plusminus
Encoding: 177 177 113
Width: 894
GlyphClass: 2
Flags: MW
TeX: 633 133
HStem: -38 61<86.5 416 106 416 477 789> 315 61<105 109 109 416 477 783>
VStem: 416 61<23 315 23 315 376 682>
LayerCount: 2
Fore
SplineSet
64 -8 m 0
 64 19 88 23 106 23 c 2
 416 23 l 1
 416 315 l 1
 109 315 l 2
 101 315 94 315 86 317 c 0
 74 321 64 333 64 346 c 0
 64 374 90 376 104 376 c 2
 416 376 l 1
 416 683 l 2
 416 691 416 699 418 706 c 0
 422 718 433 728 446 728 c 0
 459 728 471 718 475 706 c 0
 477 698 477 690 477 682 c 2
 477 376 l 1
 783 376 l 2
 791 376 799 376 807 374 c 0
 819 370 829 359 829 346 c 0
 829 333 819 321 807 317 c 0
 799 315 791 315 783 315 c 2
 477 315 l 1
 477 23 l 1
 790 23 l 2
 825 23 828 1 828 -8 c 0
 828 -20 823 -38 789 -38 c 2
 104 -38 l 2
 69 -38 64 -17 64 -8 c 0
EndSplineSet
EndChar

StartChar: twosuperior
Encoding: 178 178 114
Width: 511
GlyphClass: 2
Flags: MW
TeX: 749 0
HStem: 347 119 347 126<192 282 282 341.5 192 422> 713 48
VStem: 57 144<663.5 689 661.5 722> 314 139<616.5 645>
LayerCount: 2
Fore
SplineSet
57 347 m 1xb8
 57 435 l 2
 58 455 64 457 85 466 c 0
 226 530 314 559 314 628 c 0
 314 662 290 710 195 713 c 1
 199 701 201 695 201 683 c 0
 201 640 168 611 129 611 c 0
 87 611 57 644 57 683 c 0
 57 761 162 761 235 761 c 0
 418 761 453 681 453 628 c 0
 453 605 446 589 432 570 c 1
 453 570 l 1
 422 347 l 1
 57 347 l 1xb8
192 473 m 1x78
 282 473 l 2
 401 473 389 473 402 546 c 1
 338 514 305 519 192 473 c 1x78
EndSplineSet
EndChar

StartChar: threesuperior
Encoding: 179 179 115
Width: 511
GlyphClass: 2
Flags: MW
TeX: 749 0
HStem: 342 43<234 239 239 267 234 328.5> 544 37 721 40<224.5 266>
VStem: 47 154<439.5 481.5> 79 139<601 614.5 544 641> 292 138<633.5 679> 309 153<440.5 488.5>
LayerCount: 2
Fore
SplineSet
47 459 m 0xf2
 47 504 80 536 125 536 c 0
 166 536 201 505 201 459 c 0
 201 420 178 403 167 395 c 1
 189 389 211 385 234 385 c 2
 239 385 l 2
 295 385 309 416 309 465 c 0xf2
 309 512 296 543 237 544 c 2
 218 544 l 2
 205 544 201 545 193 550 c 1
 169 536 158 536 149 536 c 0
 115 536 79 558 79 607 c 0
 79 675 133 761 246 761 c 0
 358 761 430 722 430 664 c 0xec
 430 603 375 578 337 564 c 1
 392 554 462 524 462 464 c 0
 462 415 415 342 242 342 c 0
 84 342 47 412 47 459 c 0xf2
150 675 m 1
 210 669 218 624 218 605 c 0
 218 597 217 589 215 581 c 1
 231 582 292 579 292 669 c 0xec
 292 689 292 721 240 721 c 0
 209 721 176 708 150 675 c 1
EndSplineSet
EndChar

StartChar: acute
Encoding: 180 180 116
Width: 575
GlyphClass: 2
Flags: MW
TeX: 648 0
HStem: 494 168<268 420.5>
VStem: 243 218<535 613>
LayerCount: 2
Fore
SplineSet
243 535 m 1
 371 653 376 662 403 662 c 0
 438 662 461 627 461 599 c 0
 461 553 432 551 268 494 c 1
 243 535 l 1
EndSplineSet
EndChar

StartChar: uni00B5
Encoding: 181 181 117
Width: 639
GlyphClass: 2
Flags: MW
TeX: 444 194
HStem: -195 48<44 114> -5 36<281 292 292 295> 0 48<606 616> 394 48<44 55 44 44> 430 20G<228 228 546 546>
VStem: 114 114<-147 -1 142 147 147 359 359 373.5> 432 114<170 355 355 370.5>
LayerCount: 2
Fore
SplineSet
44 -147 m 1xc6
 114 -147 l 1
 114 359 l 2
 114 388 105 394 55 394 c 2
 44 394 l 1
 44 442 l 1xd6
 228 450 l 1x8e
 228 147 l 2
 228 137 227 128 227 118 c 0
 227 56 231 31 308 31 c 0
 356 31 432 59 432 170 c 2
 432 355 l 2
 432 386 430 394 372 394 c 2
 363 394 l 1
 363 442 l 1xd6
 546 450 l 1
 546 85 l 2
 546 53 557 48 606 48 c 2
 616 48 l 1
 616 0 l 1xae
 438 -5 l 1
 438 38 l 1
 437 72 l 1
 390 -4 325 -5 295 -5 c 2
 292 -5 l 2
 270 -5 249 -4 228 -1 c 1
 228 -147 l 1
 297 -147 l 1
 297 -195 l 1
 253 -193 210 -192 166 -192 c 0
 117 -192 81 -194 44 -195 c 1
 44 -147 l 1xc6
EndSplineSet
EndChar

StartChar: paragraph
Encoding: 182 182 118
Width: 703
GlyphClass: 2
Flags: MW
TeX: 690 194
HStem: -195 61<323 373 433 513 574 623 623 628 316 373> 634 60<433 513 433 433 574 622 574 574>
VStem: 63 370<386 519> 373 60<-134 220 220 220> 513 61<-134 634 -134 634>
LayerCount: 2
Fore
SplineSet
63 457 m 0xe8
 63 581 170 694 364 694 c 2
 628 694 l 2
 662 694 669 676 669 664 c 0
 669 652 662 642 652 637 c 0
 643 633 632 634 622 634 c 2
 574 634 l 1
 574 -134 l 1
 623 -134 l 2
 633 -134 643 -133 652 -138 c 0
 662 -143 669 -154 669 -165 c 0
 669 -174 665 -195 630 -195 c 2
 316 -195 l 2
 282 -194 278 -173 278 -164 c 0
 278 -154 285 -144 294 -139 c 0
 303 -134 313 -134 323 -134 c 2
 373 -134 l 1
 373 220 l 1xd8
 204 229 63 315 63 457 c 0xe8
433 -134 m 1
 513 -134 l 1
 513 634 l 1
 433 634 l 1
 433 -134 l 1
EndSplineSet
EndChar

StartChar: periodcentered
Encoding: 183 183 119
Width: 275
GlyphClass: 2
Flags: MW
TeX: 444 0
HStem: 158 156<118 157.5 118 160>
VStem: 59 156<216.5 258.5 216.5 259.5>
LayerCount: 2
Fore
SplineSet
59 236 m 0
 59 283 99 314 137 314 c 0
 178 314 215 281 215 236 c 0
 215 197 183 158 137 158 c 0
 96 158 59 191 59 236 c 0
EndSplineSet
EndChar

StartChar: cedilla
Encoding: 184 184 120
Width: 511
GlyphClass: 2
Flags: MW
TeX: 0 170
HStem: -199 36<102 113 113 116 102 113> -60 60<198 312>
VStem: 293 115<-110 -99.5>
LayerCount: 2
Fore
SplineSet
102 -163 m 1
 113 -163 l 2
 220 -163 292 -154 293 -110 c 0
 293 -89 277 -61 198 -60 c 1
 198 0 l 1
 312 0 l 1
 312 -30 l 1
 335 -34 408 -46 408 -110 c 0
 408 -187 289 -199 116 -199 c 2
 102 -199 l 1
 102 -163 l 1
EndSplineSet
EndChar

StartChar: onesuperior
Encoding: 185 185 121
Width: 511
GlyphClass: 2
Flags: MW
TeX: 749 0
HStem: 347 1<416 416 416 431> 347 48<96 111 96 203 372 431 372 372> 638 48<80 80>
VStem: 203 120<395 659 659 659>
LayerCount: 2
Fore
SplineSet
80 638 m 1x70
 80 686 l 1
 251 691 262 761 298 761 c 0
 322 761 323 744 323 728 c 2
 323 395 l 1
 431 395 l 1
 431 347 l 1
 372 347 l 1x70
 416 348 l 1xb0
 313 350 l 1
 194 349 l 1
 111 347 l 1
 96 347 l 1
 96 395 l 1
 203 395 l 1
 203 659 l 1
 156 644 129 639 80 638 c 1x70
EndSplineSet
EndChar

StartChar: ordmasculine
Encoding: 186 186 122
Width: 511
GlyphClass: 2
Flags: MW
TeX: 749 0
HStem: 278 37<61.5 438 73 436> 370 40<206.5 269 206.5 324> 722 36<208.5 274>
VStem: 31 128<519 550 550 583 519 606.5> 350 128<538 607>
LayerCount: 2
Fore
SplineSet
31 560 m 0
 31 653 93 758 255 758 c 0
 397 758 478 670 478 560 c 0
 478 447 394 370 254 370 c 0
 118 370 31 446 31 560 c 0
46 296 m 0
 46 313 66 315 73 315 c 2
 438 315 l 2
 459 314 463 302 463 295 c 0
 463 293 463 278 436 278 c 2
 73 278 l 2
 50 278 46 289 46 296 c 0
159 550 m 2
 159 488 159 410 254 410 c 0
 284 410 317 421 334 448 c 0
 347 468 350 499 350 577 c 0
 350 637 346 663 337 680 c 0
 323 706 293 722 255 722 c 0
 162 722 159 651 159 583 c 2
 159 550 l 2
EndSplineSet
EndChar

StartChar: guillemotright
Encoding: 187 187 123
Width: 639
GlyphClass: 2
Flags: MW
TeX: 472 0
HStem: 1 21G<77 88 271 282>
LayerCount: 2
Fore
SplineSet
65 16 m 0
 65 32 107 141 199 236 c 1
 115 319 65 439 65 457 c 0
 65 468 73 472 81 472 c 0
 95 472 100 461 105 452 c 0
 152 373 216 308 293 260 c 0
 303 254 317 246 317 236 c 0
 317 227 307 222 293 213 c 0
 215 165 156 104 105 20 c 0
 100 11 95 1 81 1 c 0
 73 1 65 5 65 16 c 0
259 14 m 0
 259 34 303 142 393 236 c 1
 309 319 259 440 259 456 c 0
 259 465 265 472 275 472 c 0
 289 472 294 461 299 452 c 0
 346 373 410 308 487 260 c 0
 497 254 511 246 511 236 c 0
 511 227 502 222 488 213 c 0
 410 165 350 104 299 20 c 0
 294 11 289 1 275 1 c 0
 267 1 259 6 259 14 c 0
EndSplineSet
Substitution2: "'locl' +rW2sAAAA,+ycDF7QAA +rODHINYV in +t3zS9AAA +x5AA lookup 14 subtable" guillemotright.lat
AlternateSubs2: "'salt' +wqTQwMd8ua0A +swDFSNYV in +t3zS9AAA +x5AA lookup 11 subtable" guillemotright.lat
Substitution2: "'locl' +rW2sAAAA,+ycDF7QAA +rODHINYV in +rfi5rQAA +x5AA lookup 6 subtable" guillemotright.gr
AlternateSubs2: "'salt' +wqTQwMd8ua0A +swDFSNYV in +rfi5rQAA +x5AA lookup 5 subtable" guillemotright.gr
EndChar

StartChar: onequarter
Encoding: 188 188 124
Width: 511
GlyphClass: 2
Flags: MW
TeX: 749 194
HStem: -195 48<144 256> -112 48<92 256 381 479> 247 61<42 463 463 467.5 42 468 40 463> 371 45 677 47<80 80>
VStem: 202 120<416 685 685 685> 267 114<-64 95 95 95>
LayerCount: 2
Fore
SplineSet
2 278 m 0xf8
 2 306 31 308 42 308 c 2
 463 308 l 2
 472 308 483 308 491 304 c 0
 501 299 508 288 508 277 c 0
 508 268 504 247 468 247 c 2
 40 247 l 2
 6 248 2 269 2 278 c 0xf8
31 -85 m 2
 31 -65 31 -65 57 -41 c 2
 297 178 l 2
 321 200 324 199 349 199 c 2
 350 199 l 2
 367 199 380 198 381 172 c 2
 381 -64 l 1
 479 -64 l 1
 479 -112 l 1
 381 -112 l 1
 381 -147 l 1xfa
 479 -147 l 1
 479 -195 l 1
 333 -192 l 1
 144 -195 l 1
 144 -147 l 1
 256 -147 l 1
 256 -112 l 1
 31 -112 l 1
 31 -85 l 2
80 677 m 1
 80 724 l 1
 134 726 195 723 261 750 c 0
 272 754 281 761 295 761 c 0
 316 761 322 751 322 732 c 2
 322 416 l 1
 430 416 l 1
 430 368 l 1
 247 371 l 1
 95 368 l 1
 95 416 l 1
 202 416 l 1
 202 685 l 1xfc
 139 675 124 679 80 677 c 1
92 -64 m 1
 267 -64 l 1
 267 95 l 1xfa
 92 -64 l 1
EndSplineSet
EndChar

StartChar: onehalf
Encoding: 189 189 125
Width: 511
GlyphClass: 2
Flags: MW
TeX: 749 194
HStem: -195 126<245 257.5 245 422> 149 49<199 217.5> 247 61<42 463 463 467.5 42 468 40 463> 371 45 677 47<80 80>
VStem: 58 142<120.5 136.5 120.5 169> 202 120<416 685 685 685> 314 139<72 109.5>
LayerCount: 2
Fore
SplineSet
2 278 m 0xfc
 2 306 31 308 42 308 c 2
 463 308 l 2
 472 308 483 308 491 304 c 0
 501 299 508 288 508 277 c 0
 508 268 504 247 468 247 c 2
 40 247 l 2
 6 248 2 269 2 278 c 0xfc
57 -173 m 2
 58 -148 48 -160 225 -36 c 0
 245 -22 314 17 314 81 c 0
 314 138 239 149 196 149 c 1
 198 144 200 140 200 133 c 0
 200 108 178 68 129 68 c 0
 84 68 58 102 58 136 c 0
 58 202 170 198 228 198 c 0
 317 198 453 190 453 83 c 0
 453 61 446 46 432 28 c 1
 453 28 l 1xfd
 422 -195 l 1
 57 -195 l 1
 57 -173 l 2
80 677 m 1
 80 724 l 1
 134 726 195 723 261 750 c 0
 272 754 281 761 295 761 c 0
 316 761 322 751 322 732 c 2
 322 416 l 1
 430 416 l 1
 430 368 l 1
 247 371 l 1
 95 368 l 1
 95 416 l 1
 202 416 l 1
 202 685 l 1xfe
 139 675 124 679 80 677 c 1
245 -69 m 1
 270 -69 341 -69 365 -66 c 0
 383 -64 392 -62 401 5 c 1
 338 -27 398 8 245 -69 c 1
EndSplineSet
EndChar

StartChar: threequarters
Encoding: 190 190 126
Width: 511
GlyphClass: 2
Flags: MW
TeX: 749 194
HStem: -195 48<144 256> -112 48<92 256 381 479> 247 61<42 463 463 467.5 42 468 40 463> 357 44<231 268 231 329> 551 32 721 40<228.5 265>
VStem: 47 153<454 496 454 496> 80 139<620.5 660.5 620.5 672.5> 267 114<-64 95 95 95> 292 138<660 681> 309 153<452.5 503.5 451.5 513>
LayerCount: 2
Fore
SplineSet
2 278 m 0xfc
 2 306 31 308 42 308 c 2
 463 308 l 2
 472 308 483 308 491 304 c 0
 501 299 508 288 508 277 c 0
 508 268 504 247 468 247 c 2
 40 247 l 2
 6 248 2 269 2 278 c 0xfc
31 -85 m 2
 31 -65 31 -65 57 -41 c 2
 297 178 l 2
 321 200 324 200 349 200 c 2
 350 200 l 2
 367 200 380 198 381 172 c 2
 381 -64 l 1
 479 -64 l 1
 479 -112 l 1
 381 -112 l 1
 381 -147 l 1xfc80
 479 -147 l 1
 479 -195 l 1
 333 -192 l 1
 144 -195 l 1
 144 -147 l 1
 256 -147 l 1
 256 -112 l 1
 31 -112 l 1
 31 -85 l 2
47 473 m 0xfe20
 47 519 82 549 124 549 c 0
 166 549 200 519 200 473 c 0
 200 435 178 417 168 409 c 1
 195 402 224 401 238 401 c 0
 298 401 309 431 309 474 c 0xfe20
 309 552 264 551 222 551 c 0
 201 551 199 552 194 560 c 0
 190 568 192 577 198 583 c 0
 213 596 245 578 272 609 c 0
 287 626 292 649 292 671 c 0
 292 691 289 721 241 721 c 0
 216 721 199 717 174 706 c 1
 193 697 219 680 219 641 c 0
 219 600 187 572 149 572 c 0
 112 572 80 598 80 642 c 0
 80 703 137 761 246 761 c 0
 377 761 430 715 430 667 c 0xfd40
 430 614 387 587 341 570 c 1
 395 560 462 532 462 475 c 0
 462 428 414 357 244 357 c 0
 84 357 47 427 47 473 c 0xfe20
92 -64 m 1
 267 -64 l 1
 267 95 l 1xfc80
 92 -64 l 1
EndSplineSet
EndChar

StartChar: questiondown
Encoding: 191 191 127
Width: 543
GlyphClass: 2
Flags: MW
TeX: 499 194
HStem: -200 36<226 299.5 226 344.5> -29 20G<398.5 433.5> 344 156<231.5 277.5 231 278>
VStem: 63 128<-97 -78 -78 -73 -107 -37.5> 177 155<402.5 441.5> 231 47<226 238 151 248 151 256> 353 125<-81.5 -53.5 -98.5 -52.5>
LayerCount: 2
Fore
SplineSet
63 -71 m 0xf6
 63 -4 111 24 125 34 c 0
 222 103 231 180 231 226 c 2
 231 248 l 2
 231 264 233 274 255 274 c 0
 276 274 279 265 279 247 c 0
 279 244 278 241 278 238 c 2
 278 225 l 2
 278 77 211 13 199 -17 c 0
 191 -36 191 -59 191 -73 c 2
 191 -78 l 2
 191 -136 194 -164 258 -164 c 0
 341 -164 379 -141 396 -131 c 1
 361 -118 353 -92 353 -71 c 0
 353 -34 381 -9 416 -9 c 0
 451 -9 478 -34 478 -73 c 0
 478 -124 438 -200 251 -200 c 0
 89 -200 63 -123 63 -71 c 0xf6
177 422 m 0xea
 177 461 208 500 254 500 c 0
 301 500 332 461 332 422 c 0
 332 383 301 344 255 344 c 0
 208 344 177 383 177 422 c 0xea
EndSplineSet
EndChar

StartChar: Agrave
Encoding: 192 192 128
Width: 869
GlyphClass: 2
Flags: MW
TeX: 876 0
HStem: 0 47<41 62> 193 47<275 503 275 523 255 503> 678 20<420 442.5> 757 118
AnchorPoint: "Anchor-5" 434 854 basechar 0
AnchorPoint: "Anchor-4" 434 0 basechar 0
LayerCount: 2
Fore
SplineSet
279 812 m 0
 279 841 300 875 335 875 c 0
 357 875 368 865 505 778 c 1
 489 733 l 1
 443 739 428 743 337 757 c 0
 329 758 279 763 279 812 c 0
41 0 m 1
 41 47 l 1
 62 47 l 2
 138 47 141 55 147 70 c 2
 395 672 l 2
 402 690 406 698 434 698 c 0
 451 698 463 698 474 672 c 2
 730 47 l 1
 827 47 l 1
 827 0 l 1
 792 3 704 3 664 3 c 0
 621 3 526 3 488 0 c 1
 488 47 l 1
 583 47 l 1
 523 193 l 1
 255 193 l 1
 205 72 l 2
 204 71 201 61 201 60 c 0
 201 47 288 47 290 47 c 1
 290 0 l 1
 253 3 197 3 158 3 c 0
 127 3 79 1 41 0 c 1
275 240 m 1
 503 240 l 1
 389 518 l 1
 275 240 l 1
EndSplineSet
Substitution2: "'locl' +rW2sAAAA,+ycDF7QAA +rODHINYV in +t3zS9AAA +x5AA lookup 13 subtable" Agrave.vn
AlternateSubs2: "'ss01' +wqTQwMd8wTjSuAAA-1 lookup 12 subtable" Agrave.vn
AlternateSubs2: "'salt' +wqTQwMd8ua0A +swDFSNYV in +t3zS9AAA +x5AA lookup 11 subtable" Agrave.vn
Substitution2: "'c2sc' +swC7OMeQxdDBHAAA +wYzWFbMAuzjHkLhc lookup 4 subtable" Agrave.sc
EndChar

StartChar: Aacute
Encoding: 193 193 129
Width: 869
GlyphClass: 2
Flags: MW
TeX: 876 0
HStem: 0 47<41 62> 193 47<275 503 275 523 255 503> 678 20<420 442.5> 753 122
AnchorPoint: "Anchor-5" 434 854 basechar 0
AnchorPoint: "Anchor-4" 434 0 basechar 0
LayerCount: 2
Fore
SplineSet
330 778 m 1
 482 875 478 875 500 875 c 0
 534 875 556 841 556 812 c 0
 556 760 504 758 472 753 c 0
 430 746 388 739 346 733 c 1
 330 778 l 1
41 0 m 1
 41 47 l 1
 62 47 l 2
 138 47 141 55 147 70 c 2
 395 672 l 2
 402 690 406 698 434 698 c 0
 451 698 463 698 474 672 c 2
 730 47 l 1
 827 47 l 1
 827 0 l 1
 792 3 704 3 664 3 c 0
 621 3 526 3 488 0 c 1
 488 47 l 1
 583 47 l 1
 523 193 l 1
 255 193 l 1
 205 72 l 2
 204 71 201 61 201 60 c 0
 201 47 288 47 290 47 c 1
 290 0 l 1
 253 3 197 3 158 3 c 0
 127 3 79 1 41 0 c 1
275 240 m 1
 503 240 l 1
 389 518 l 1
 275 240 l 1
EndSplineSet
Substitution2: "'locl' +rW2sAAAA,+ycDF7QAA +rODHINYV in +t3zS9AAA +x5AA lookup 13 subtable" Aacute.vn
AlternateSubs2: "'ss01' +wqTQwMd8wTjSuAAA-1 lookup 12 subtable" Aacute.vn
AlternateSubs2: "'salt' +wqTQwMd8ua0A +swDFSNYV in +t3zS9AAA +x5AA lookup 11 subtable" Aacute.vn
Substitution2: "'c2sc' +swC7OMeQxdDBHAAA +wYzWFbMAuzjHkLhc lookup 4 subtable" Aacute.sc
EndChar

StartChar: Acircumflex
Encoding: 194 194 130
Width: 869
GlyphClass: 2
Flags: MW
TeX: 894 0
HStem: 0 47<41 62> 193 47<275 503 275 523 255 503> 678 20<420 442.5>
AnchorPoint: "Anchor-5" 434 879 basechar 0
AnchorPoint: "Anchor-4" 434 0 basechar 0
LayerCount: 2
Fore
SplineSet
276 774 m 1
 276 775 l 1
 433 900 l 1
 434 900 l 1
 591 775 l 1
 591 774 l 1
 564 736 l 1
 434 817 l 1
 433 817 l 1
 304 736 l 1
 276 774 l 1
41 0 m 1
 41 47 l 1
 62 47 l 2
 138 47 141 55 147 70 c 2
 395 672 l 2
 402 690 406 698 434 698 c 0
 451 698 463 698 474 672 c 2
 730 47 l 1
 827 47 l 1
 827 0 l 1
 792 3 704 3 664 3 c 0
 621 3 526 3 488 0 c 1
 488 47 l 1
 583 47 l 1
 523 193 l 1
 255 193 l 1
 205 72 l 2
 204 71 201 61 201 60 c 0
 201 47 288 47 290 47 c 1
 290 0 l 1
 253 3 197 3 158 3 c 0
 127 3 79 1 41 0 c 1
275 240 m 1
 503 240 l 1
 389 518 l 1
 275 240 l 1
EndSplineSet
Substitution2: "'locl' +rW2sAAAA,+ycDF7QAA +rODHINYV in +t3zS9AAA +x5AA lookup 13 subtable" Acircumflex.vn
AlternateSubs2: "'ss01' +wqTQwMd8wTjSuAAA-1 lookup 12 subtable" Acircumflex.vn
AlternateSubs2: "'salt' +wqTQwMd8ua0A +swDFSNYV in +t3zS9AAA +x5AA lookup 11 subtable" Acircumflex.vn
Substitution2: "'c2sc' +swC7OMeQxdDBHAAA +wYzWFbMAuzjHkLhc lookup 4 subtable" Acircumflex.sc
EndChar

StartChar: Atilde
Encoding: 195 195 131
Width: 869
GlyphClass: 2
Flags: MW
TeX: 894 0
HStem: 0 47<41 62> 193 47<275 503 275 523 255 503> 678 20<420 442.5> 786 74<509.5 553.5> 820 74<313.5 357.5>
AnchorPoint: "Anchor-5" 434 873 basechar 0
AnchorPoint: "Anchor-4" 434 0 basechar 0
LayerCount: 2
Fore
SplineSet
210 812 m 1xf0
 260 863 282 894 345 894 c 0xe8
 412 894 476 860 543 860 c 0xf0
 596 860 621 885 631 894 c 1xe8
 657 868 l 1
 607 817 585 786 522 786 c 0xf0
 455 786 391 820 324 820 c 0xe8
 286 820 263 810 235 786 c 1
 210 812 l 1xf0
41 0 m 1xe0
 41 47 l 1
 62 47 l 2
 138 47 141 55 147 70 c 2
 395 672 l 2
 402 690 406 698 434 698 c 0
 451 698 463 698 474 672 c 2
 730 47 l 1
 827 47 l 1
 827 0 l 1
 792 3 704 3 664 3 c 0
 621 3 526 3 488 0 c 1
 488 47 l 1
 583 47 l 1
 523 193 l 1
 255 193 l 1
 205 72 l 2
 204 71 201 61 201 60 c 0
 201 47 288 47 290 47 c 1
 290 0 l 1
 253 3 197 3 158 3 c 0
 127 3 79 1 41 0 c 1xe0
275 240 m 1
 503 240 l 1
 389 518 l 1
 275 240 l 1
EndSplineSet
Substitution2: "'locl' +rW2sAAAA,+ycDF7QAA +rODHINYV in +t3zS9AAA +x5AA lookup 13 subtable" Atilde.vn
AlternateSubs2: "'ss01' +wqTQwMd8wTjSuAAA-1 lookup 12 subtable" Atilde.vn
AlternateSubs2: "'salt' +wqTQwMd8ua0A +swDFSNYV in +t3zS9AAA +x5AA lookup 11 subtable" Atilde.vn
Substitution2: "'c2sc' +swC7OMeQxdDBHAAA +wYzWFbMAuzjHkLhc lookup 4 subtable" Atilde.sc
EndChar

StartChar: Adieresis
Encoding: 196 196 132
Width: 869
GlyphClass: 2
Flags: MW
TeX: 894 0
HStem: 0 47<41 62> 193 47<275 503 275 523 255 503> 678 20<420 442.5> 738 156<302 341.5 300.5 345 524.5 565>
VStem: 244 155<796.5 838.5> 467 156<794.5 835.5>
AnchorPoint: "Anchor-5" 434 873 basechar 0
AnchorPoint: "Anchor-4" 434 0 basechar 0
LayerCount: 2
Fore
SplineSet
244 816 m 0
 244 861 280 894 321 894 c 0
 362 894 399 862 399 816 c 0
 399 777 368 738 322 738 c 0
 282 738 244 771 244 816 c 0
467 816 m 0
 467 855 499 894 545 894 c 0
 585 894 623 861 623 816 c 0
 623 773 588 738 545 738 c 0
 504 738 467 770 467 816 c 0
41 0 m 1
 41 47 l 1
 62 47 l 2
 138 47 141 55 147 70 c 2
 395 672 l 2
 402 690 406 698 434 698 c 0
 451 698 463 698 474 672 c 2
 730 47 l 1
 827 47 l 1
 827 0 l 1
 792 3 704 3 664 3 c 0
 621 3 526 3 488 0 c 1
 488 47 l 1
 583 47 l 1
 523 193 l 1
 255 193 l 1
 205 72 l 2
 204 71 201 61 201 60 c 0
 201 47 288 47 290 47 c 1
 290 0 l 1
 253 3 197 3 158 3 c 0
 127 3 79 1 41 0 c 1
275 240 m 1
 503 240 l 1
 389 518 l 1
 275 240 l 1
EndSplineSet
Substitution2: "'c2sc' +swC7OMeQxdDBHAAA +wYzWFbMAuzjHkLhc lookup 4 subtable" Adieresis.sc
EndChar

StartChar: Aring
Encoding: 197 197 133
Width: 869
GlyphClass: 2
Flags: MW
TeX: 852 0
HStem: 0 48<40 89.5> 192 48<274 503 274 522 254 503> 866 36<403.5 469>
VStem: 314 47<766.5 809 766.5 818> 505 48<761.5 797.5>
LayerCount: 2
Fore
SplineSet
40 0 m 1
 40 48 l 1
 139 48 139 52 150 78 c 2
 392 668 l 1
 328 691 314 740 314 782 c 0
 314 854 361 902 433 902 c 0
 505 902 553 854 553 782 c 0
 553 741 539 691 475 668 c 1
 730 48 l 1
 827 48 l 1
 827 0 l 1
 764 2 716 3 669 3 c 0
 608 3 548 2 487 0 c 1
 487 48 l 1
 582 48 l 1
 522 192 l 1
 254 192 l 1
 214 95 203 71 203 62 c 0
 203 53 222 48 289 48 c 1
 289 0 l 1
 245 2 200 3 156 3 c 0
 144 3 110 3 40 0 c 1
274 240 m 1
 503 240 l 1
 389 518 l 1
 274 240 l 1
361 785 m 0
 361 748 362 698 432 698 c 0
 492 698 505 730 505 779 c 0
 505 816 504 866 434 866 c 0
 373 866 361 833 361 785 c 0
EndSplineSet
Substitution2: "'c2sc' +swC7OMeQxdDBHAAA +wYzWFbMAuzjHkLhc lookup 4 subtable" Aring.sc
EndChar

StartChar: AE
Encoding: 198 198 134
Width: 1041
GlyphClass: 2
Flags: MW
TeX: 690 0
HStem: 0 48<40 89.5 400 481 614 718 718 750> 306 48<325 481 325 481 304 481 614 669> 444 21G<929 976 929 929> 638 48<309 386 309 946 444 444 444 481 614 614 614 738>
VStem: 481 133<48 306 48 306 354 638> 783 48<189 213 460 470> 929 47<444 444>
AnchorPoint: "Anchor-5" 548 697 basechar 0
AnchorPoint: "Anchor-4" 524 0 basechar 0
LayerCount: 2
Fore
SplineSet
40 0 m 1
 40 48 l 1
 139 48 139 52 150 77 c 2
 386 638 l 1
 309 638 l 1
 309 686 l 1
 946 686 l 1
 976 444 l 1
 929 444 l 1
 913 569 893 636 738 638 c 2
 614 638 l 1
 614 354 l 1
 669 354 l 2
 710 354 763 355 778 412 c 0
 783 431 783 450 783 470 c 1
 831 470 l 1
 831 189 l 1
 783 189 l 1
 783 237 778 270 751 289 c 0
 727 306 697 306 669 306 c 2
 614 306 l 1
 614 48 l 1
 718 48 l 2
 782 48 865 48 911 115 c 0
 940 157 950 217 960 275 c 1
 1008 275 l 1
 962 0 l 1
 400 0 l 1
 400 48 l 1
 481 48 l 1
 481 306 l 1
 304 306 l 1
 250 171 204 74 204 63 c 0
 204 49 238 48 290 48 c 1
 290 0 l 1
 246 2 201 3 157 3 c 0
 145 3 110 3 40 0 c 1
325 354 m 1
 481 354 l 1
 481 638 l 1
 444 638 l 1
 325 354 l 1
EndSplineSet
Substitution2: "'c2sc' +swC7OMeQxdDBHAAA +wYzWFbMAuzjHkLhc lookup 4 subtable" AE.sc
EndChar

StartChar: Ccedilla
Encoding: 199 199 135
Width: 830
GlyphClass: 2
Flags: MW
TeX: 690 170
HStem: -199 36<317 326 326 384> -60 97<412 551> -6 43<526 526> 649 48<447.5 523.5 345.5 547.5>
VStem: 63 153<325.5 408.5 291.5 449> 507 115<-131.5 -100.5> 686 80 717 49
AnchorPoint: "Anchor-5" 463 697 basechar 0
LayerCount: 2
Fore
SplineSet
63 343 m 0xdd
 63 555 227 697 464 697 c 0
 583 697 651 638 662 629 c 1
 663 629 l 1
 721 681 735 696 748 696 c 0
 766 696 766 679 766 667 c 2
 766 451 l 2xdd
 766 431 759 426 742 426 c 2
 740 426 l 2
 695 426 726 448 686 525 c 0
 666 563 607 649 488 649 c 0
 407 649 322 623 271 559 c 0
 246 527 216 473 216 344 c 0
 216 239 232 141 321 82 c 0
 369 50 432 37 489 37 c 0xde
 613 37 709 118 717 218 c 0
 719 234 718 247 742 247 c 0
 760 247 766 241 766 226 c 0
 766 147 699 22 526 -6 c 1xbd
 526 -30 l 1
 548 -34 622 -45 622 -109 c 0
 622 -185 516 -199 317 -199 c 1
 317 -163 l 1
 326 -163 l 2
 442 -163 507 -152 507 -111 c 0
 507 -90 492 -61 412 -60 c 1
 412 -8 l 1
 310 1 134 49 77 240 c 0
 67 273 63 308 63 343 c 0xdd
EndSplineSet
Substitution2: "'c2sc' +swC7OMeQxdDBHAAA +wYzWFbMAuzjHkLhc lookup 4 subtable" Ccedilla.sc
EndChar

StartChar: Egrave
Encoding: 200 200 136
Width: 755
GlyphClass: 2
Flags: MW
TeX: 876 0
HStem: 0 47<39 147 39 147 289 441 441 533.5> 329 47<289 344 289 344> 633 47<39 147 39 660 289 289 289 441> 756 119
VStem: 147 142<47 329 376 633> 264 227<778 827.5> 450 47<212 249 456 493>
AnchorPoint: "Anchor-5" 381 872 basechar 0
AnchorPoint: "Anchor-4" 381 0 basechar 0
LayerCount: 2
Fore
SplineSet
264 812 m 0x14
 264 843 288 875 320 875 c 2
 321 875 l 2
 342 875 340 873 491 778 c 1
 475 733 l 1
 429 739 414 742 323 756 c 0
 308 758 264 766 264 812 c 0x14
39 0 m 1xea
 39 47 l 1
 147 47 l 1
 147 633 l 1
 39 633 l 1
 39 680 l 1
 660 680 l 1
 691 439 l 1
 644 439 l 1
 628 560 602 633 441 633 c 2
 289 633 l 1
 289 376 l 1
 344 376 l 2
 441 376 450 419 450 493 c 1
 497 493 l 1
 497 212 l 1
 450 212 l 1
 450 286 440 329 344 329 c 2
 289 329 l 1
 289 47 l 1
 441 47 l 2
 626 47 654 136 676 274 c 1
 723 274 l 1
 677 0 l 1
 39 0 l 1xea
EndSplineSet
Substitution2: "'locl' +rW2sAAAA,+ycDF7QAA +rODHINYV in +t3zS9AAA +x5AA lookup 13 subtable" Egrave.vn
AlternateSubs2: "'ss01' +wqTQwMd8wTjSuAAA-1 lookup 12 subtable" Egrave.vn
AlternateSubs2: "'salt' +wqTQwMd8ua0A +swDFSNYV in +t3zS9AAA +x5AA lookup 11 subtable" Egrave.vn
Substitution2: "'c2sc' +swC7OMeQxdDBHAAA +wYzWFbMAuzjHkLhc lookup 4 subtable" Egrave.sc
EndChar

StartChar: Eacute
Encoding: 201 201 137
Width: 755
GlyphClass: 2
Flags: MW
TeX: 876 0
HStem: 0 47<39 147 39 147 289 441 441 533.5> 329 47<289 344 289 344> 633 47<39 147 39 660 289 289 289 441> 752 123
VStem: 147 142<47 329 376 633> 331 227<778 827.5> 450 47<212 249 456 493>
AnchorPoint: "Anchor-5" 381 872 basechar 0
AnchorPoint: "Anchor-4" 381 0 basechar 0
LayerCount: 2
Fore
SplineSet
331 778 m 1x14
 478 871 479 875 501 875 c 2
 502 875 l 2
 534 875 558 843 558 812 c 0
 558 760 507 757 474 752 c 0
 432 745 389 739 347 733 c 1
 331 778 l 1x14
39 0 m 1xea
 39 47 l 1
 147 47 l 1
 147 633 l 1
 39 633 l 1
 39 680 l 1
 660 680 l 1
 691 439 l 1
 644 439 l 1
 628 560 602 633 441 633 c 2
 289 633 l 1
 289 376 l 1
 344 376 l 2
 441 376 450 419 450 493 c 1
 497 493 l 1
 497 212 l 1
 450 212 l 1
 450 286 440 329 344 329 c 2
 289 329 l 1
 289 47 l 1
 441 47 l 2
 626 47 654 136 676 274 c 1
 723 274 l 1
 677 0 l 1
 39 0 l 1xea
EndSplineSet
Substitution2: "'locl' +rW2sAAAA,+ycDF7QAA +rODHINYV in +t3zS9AAA +x5AA lookup 13 subtable" Eacute.vn
AlternateSubs2: "'ss01' +wqTQwMd8wTjSuAAA-1 lookup 12 subtable" Eacute.vn
AlternateSubs2: "'salt' +wqTQwMd8ua0A +swDFSNYV in +t3zS9AAA +x5AA lookup 11 subtable" Eacute.vn
Substitution2: "'c2sc' +swC7OMeQxdDBHAAA +wYzWFbMAuzjHkLhc lookup 4 subtable" Eacute.sc
EndChar

StartChar: Ecircumflex
Encoding: 202 202 138
Width: 755
GlyphClass: 2
Flags: MW
TeX: 894 0
HStem: 0 47<39 147 39 147 289 441 441 533.5> 329 47<289 344 289 344> 633 47<39 147 39 660 289 289 289 441>
VStem: 147 142<47 329 376 633> 450 47<212 249 456 493>
AnchorPoint: "Anchor-5" 381 897 basechar 0
AnchorPoint: "Anchor-4" 381 0 basechar 0
LayerCount: 2
Fore
SplineSet
230 775 m 1
 387 900 l 1
 388 900 l 1
 544 775 l 1
 517 736 l 1
 388 817 l 1
 387 817 l 1
 257 736 l 1
 230 775 l 1
39 0 m 1
 39 47 l 1
 147 47 l 1
 147 633 l 1
 39 633 l 1
 39 680 l 1
 660 680 l 1
 691 439 l 1
 644 439 l 1
 628 560 602 633 441 633 c 2
 289 633 l 1
 289 376 l 1
 344 376 l 2
 441 376 450 419 450 493 c 1
 497 493 l 1
 497 212 l 1
 450 212 l 1
 450 286 440 329 344 329 c 2
 289 329 l 1
 289 47 l 1
 441 47 l 2
 626 47 654 136 676 274 c 1
 723 274 l 1
 677 0 l 1
 39 0 l 1
EndSplineSet
Substitution2: "'locl' +rW2sAAAA,+ycDF7QAA +rODHINYV in +t3zS9AAA +x5AA lookup 13 subtable" Ecircumflex.vn
AlternateSubs2: "'ss01' +wqTQwMd8wTjSuAAA-1 lookup 12 subtable" Ecircumflex.vn
AlternateSubs2: "'salt' +wqTQwMd8ua0A +swDFSNYV in +t3zS9AAA +x5AA lookup 11 subtable" Ecircumflex.vn
Substitution2: "'c2sc' +swC7OMeQxdDBHAAA +wYzWFbMAuzjHkLhc lookup 4 subtable" Ecircumflex.sc
EndChar

StartChar: Edieresis
Encoding: 203 203 139
Width: 755
GlyphClass: 2
Flags: MW
TeX: 894 0
HStem: 0 47<39 147 39 147 289 441 441 533.5> 329 47<289 344 289 344> 633 47<39 147 39 660 289 289 289 441> 738 156<256 295 256 298.5 479 518>
VStem: 147 142<47 329 376 633> 198 155<795.5 838.5 795.5 839.5> 421 156<793.5 836.5> 450 47<212 249 456 493>
AnchorPoint: "Anchor-5" 381 891 basechar 0
AnchorPoint: "Anchor-4" 381 0 basechar 0
LayerCount: 2
Fore
SplineSet
198 816 m 0xf4
 198 863 237 894 275 894 c 0
 315 894 353 861 353 816 c 0
 353 775 321 738 276 738 c 0
 235 738 198 771 198 816 c 0xf4
421 816 m 0xf2
 421 857 454 894 499 894 c 0
 540 894 577 861 577 816 c 0
 577 769 537 738 499 738 c 0
 459 738 421 771 421 816 c 0xf2
39 0 m 1xe9
 39 47 l 1
 147 47 l 1
 147 633 l 1
 39 633 l 1
 39 680 l 1
 660 680 l 1
 691 439 l 1
 644 439 l 1
 628 560 602 633 441 633 c 2
 289 633 l 1
 289 376 l 1
 344 376 l 2
 441 376 450 419 450 493 c 1
 497 493 l 1
 497 212 l 1
 450 212 l 1
 450 286 440 329 344 329 c 2
 289 329 l 1
 289 47 l 1
 441 47 l 2
 626 47 654 136 676 274 c 1
 723 274 l 1
 677 0 l 1
 39 0 l 1xe9
EndSplineSet
Substitution2: "'c2sc' +swC7OMeQxdDBHAAA +wYzWFbMAuzjHkLhc lookup 4 subtable" Edieresis.sc
EndChar

StartChar: Igrave
Encoding: 204 204 140
Width: 436
GlyphClass: 2
Flags: MW
TeX: 876 0
HStem: 0 47<33 147> 639 44 757 118
VStem: 147 142<47 639 47 639>
AnchorPoint: "Anchor-5" 218 866 basechar 0
AnchorPoint: "Anchor-4" 218 0 basechar 0
LayerCount: 2
Fore
SplineSet
79 812 m 0
 79 843 103 875 135 875 c 0
 157 875 170 864 305 778 c 1
 289 733 l 1
 243 739 228 743 137 757 c 0
 126 759 79 764 79 812 c 0
33 0 m 1
 33 47 l 1
 147 47 l 1
 147 639 l 1
 33 639 l 1
 33 686 l 1
 74 683 172 683 218 683 c 0
 264 683 362 683 403 686 c 1
 403 639 l 1
 289 639 l 1
 289 47 l 1
 403 47 l 1
 403 0 l 1
 362 3 264 3 218 3 c 0
 172 3 74 3 33 0 c 1
EndSplineSet
Substitution2: "'locl' +rW2sAAAA,+ycDF7QAA +rODHINYV in +t3zS9AAA +x5AA lookup 13 subtable" Igrave.vn
AlternateSubs2: "'ss01' +wqTQwMd8wTjSuAAA-1 lookup 12 subtable" Igrave.vn
AlternateSubs2: "'salt' +wqTQwMd8ua0A +swDFSNYV in +t3zS9AAA +x5AA lookup 11 subtable" Igrave.vn
Substitution2: "'c2sc' +swC7OMeQxdDBHAAA +wYzWFbMAuzjHkLhc lookup 4 subtable" Igrave.sc
EndChar

StartChar: Iacute
Encoding: 205 205 141
Width: 436
GlyphClass: 2
Flags: MW
TeX: 876 0
HStem: 0 47<33 147> 639 44 753 122
VStem: 147 142<47 639 47 639>
AnchorPoint: "Anchor-5" 218 866 basechar 0
AnchorPoint: "Anchor-4" 218 0 basechar 0
LayerCount: 2
Fore
SplineSet
108 778 m 1
 255 871 256 875 278 875 c 0
 310 875 334 843 334 812 c 0
 334 760 283 758 250 753 c 0
 208 746 166 739 124 733 c 1
 108 778 l 1
33 0 m 1
 33 47 l 1
 147 47 l 1
 147 639 l 1
 33 639 l 1
 33 686 l 1
 74 683 172 683 218 683 c 0
 264 683 362 683 403 686 c 1
 403 639 l 1
 289 639 l 1
 289 47 l 1
 403 47 l 1
 403 0 l 1
 362 3 264 3 218 3 c 0
 172 3 74 3 33 0 c 1
EndSplineSet
Substitution2: "'locl' +rW2sAAAA,+ycDF7QAA +rODHINYV in +t3zS9AAA +x5AA lookup 13 subtable" Iacute.vn
AlternateSubs2: "'ss01' +wqTQwMd8wTjSuAAA-1 lookup 12 subtable" Iacute.vn
AlternateSubs2: "'salt' +wqTQwMd8ua0A +swDFSNYV in +t3zS9AAA +x5AA lookup 11 subtable" Iacute.vn
Substitution2: "'c2sc' +swC7OMeQxdDBHAAA +wYzWFbMAuzjHkLhc lookup 4 subtable" Iacute.sc
EndChar

StartChar: Icircumflex
Encoding: 206 206 142
Width: 436
GlyphClass: 2
Flags: MW
TeX: 894 0
HStem: 0 47<33 147> 639 44 736 164<89 218 218 347>
VStem: 61 314<775 775> 147 142<47 639 47 639>
AnchorPoint: "Anchor-5" 218 891 basechar 0
AnchorPoint: "Anchor-4" 218 0 basechar 0
LayerCount: 2
Fore
SplineSet
61 775 m 1x30
 218 900 l 1
 375 775 l 1
 347 736 l 1
 218 817 l 1
 89 736 l 1
 61 775 l 1x30
33 0 m 1xc8
 33 47 l 1
 147 47 l 1
 147 639 l 1
 33 639 l 1
 33 686 l 1
 74 683 172 683 218 683 c 0
 264 683 362 683 403 686 c 1
 403 639 l 1
 289 639 l 1
 289 47 l 1
 403 47 l 1
 403 0 l 1
 362 3 264 3 218 3 c 0
 172 3 74 3 33 0 c 1xc8
EndSplineSet
Substitution2: "'c2sc' +swC7OMeQxdDBHAAA +wYzWFbMAuzjHkLhc lookup 4 subtable" Icircumflex.sc
EndChar

StartChar: Idieresis
Encoding: 207 207 143
Width: 436
GlyphClass: 2
Flags: MW
TeX: 894 0
HStem: 0 47<33 147> 639 44 738 155<306 349.5 306 352> 738 156<85.5 126.5 83 129>
VStem: 28 156<796.5 835.5> 147 142<47 639 47 639> 251 156<796.5 835.5>
AnchorPoint: "Anchor-5" 218 885 basechar 0
AnchorPoint: "Anchor-4" 218 0 basechar 0
LayerCount: 2
Fore
SplineSet
28 816 m 0xd8
 28 855 60 894 106 894 c 0
 147 894 184 861 184 816 c 0
 184 777 152 738 106 738 c 0
 65 738 28 771 28 816 c 0xd8
251 816 m 0x22
 251 855 283 893 329 893 c 0
 370 893 407 860 407 815 c 0
 407 776 375 738 329 738 c 0
 282 738 251 777 251 816 c 0x22
33 0 m 1xc4
 33 47 l 1
 147 47 l 1
 147 639 l 1
 33 639 l 1
 33 686 l 1
 74 683 172 683 218 683 c 0
 264 683 362 683 403 686 c 1
 403 639 l 1
 289 639 l 1
 289 47 l 1
 403 47 l 1
 403 0 l 1
 362 3 264 3 218 3 c 0
 172 3 74 3 33 0 c 1xc4
EndSplineSet
Substitution2: "'c2sc' +swC7OMeQxdDBHAAA +wYzWFbMAuzjHkLhc lookup 4 subtable" Idieresis.sc
EndChar

StartChar: Eth
Encoding: 208 208 144
Width: 882
GlyphClass: 2
Flags: MW
TeX: 690 0
HStem: 0 48<39 147 39 147 284 416 416 444> 313 47<58.5 147 67 147 284 454> 638 48<39 147 39 444 284 284 284 415>
VStem: 147 137<48 313 360 638> 670 148<318 352 352 384.5 237 409.5>
LayerCount: 2
Fore
SplineSet
39 0 m 1
 39 48 l 1
 147 48 l 1
 147 313 l 1
 67 313 l 2
 50 313 39 318 39 337 c 0
 39 354 50 360 67 360 c 2
 147 360 l 1
 147 638 l 1
 39 638 l 1
 39 686 l 1
 444 686 l 2
 540 686 639 672 720 593 c 0
 788 527 818 431 818 338 c 0
 818 136 687 18 510 2 c 0
 488 0 466 0 444 0 c 2
 39 0 l 1
284 48 m 1
 416 48 l 2
 480 48 563 56 619 122 c 0
 666 178 670 261 670 318 c 2
 670 352 l 2
 670 467 659 638 415 638 c 2
 284 638 l 1
 284 360 l 1
 454 360 l 2
 467 360 484 358 484 336 c 0
 484 313 465 313 454 313 c 2
 284 313 l 1
 284 48 l 1
EndSplineSet
Substitution2: "'c2sc' +swC7OMeQxdDBHAAA +wYzWFbMAuzjHkLhc lookup 4 subtable" Eth.sc
EndChar

StartChar: Ntilde
Encoding: 209 209 145
Width: 900
GlyphClass: 2
Flags: MW
TeX: 894 0
HStem: 0 47<39 64> 639 47<39 147 39 268> 786 74<526.5 569.5> 820 74<329.5 373.5>
VStem: 147 53<76 599> 699 53<205 610>
LayerCount: 2
Fore
SplineSet
226 812 m 1xec
 276 863 298 894 361 894 c 0xdc
 428 894 493 860 560 860 c 0xec
 613 860 638 885 648 894 c 1xdc
 673 868 l 1
 622 817 601 786 538 786 c 0xec
 471 786 407 820 340 820 c 0xdc
 302 820 280 810 252 786 c 1
 226 812 l 1xec
39 0 m 1xcc
 39 47 l 1
 64 47 l 2
 92 47 94 47 118 50 c 0
 146 53 147 54 147 76 c 2
 147 639 l 1
 39 639 l 1
 39 686 l 1
 268 686 l 2
 289 686 290 685 301 673 c 2
 699 205 l 1
 699 610 l 2
 699 632 698 633 669 636 c 0
 651 638 634 639 616 639 c 2
 591 639 l 1
 591 686 l 1
 632 683 684 683 726 683 c 0
 765 683 822 683 860 686 c 1
 860 639 l 1
 835 639 l 2
 807 639 805 639 781 636 c 0
 753 633 752 632 752 610 c 2
 752 32 l 2
 752 9 752 0 725 0 c 0
 709 0 708 1 698 13 c 2
 200 599 l 1
 200 76 l 2
 200 54 201 53 230 50 c 0
 248 48 265 47 283 47 c 2
 308 47 l 1
 308 0 l 1
 267 3 215 3 173 3 c 0
 134 3 77 3 39 0 c 1xcc
EndSplineSet
Substitution2: "'c2sc' +swC7OMeQxdDBHAAA +wYzWFbMAuzjHkLhc lookup 4 subtable" Ntilde.sc
EndChar

StartChar: Ograve
Encoding: 210 210 146
Width: 863
GlyphClass: 2
Flags: MW
TeX: 876 0
HStem: -11 42<401.5 458 401.5 546> 657 40<401.5 463> 757 118
VStem: 64 153<311 386 311 444> 646 153<319 388>
AnchorPoint: "Anchor-5" 432 855 basechar 0
AnchorPoint: "Anchor-4" 431 0 basechar 0
LayerCount: 2
Fore
SplineSet
308 812 m 0
 308 843 332 875 364 875 c 0
 385 875 384 873 535 778 c 1
 518 733 l 1
 472 739 458 743 367 757 c 0
 352 759 308 766 308 812 c 0
64 339 m 0
 64 549 203 697 432 697 c 0
 654 697 799 555 799 339 c 0
 799 134 661 -11 431 -11 c 0
 204 -11 64 132 64 339 c 0
217 354 m 0
 217 268 225 197 258 135 c 0
 299 59 372 31 431 31 c 0
 485 31 555 53 600 126 c 0
 642 195 646 284 646 354 c 0
 646 422 642 499 604 563 c 0
 564 629 495 657 431 657 c 0
 372 657 305 632 264 571 c 0
 220 503 217 418 217 354 c 0
EndSplineSet
Substitution2: "'locl' +rW2sAAAA,+ycDF7QAA +rODHINYV in +t3zS9AAA +x5AA lookup 13 subtable" Ograve.vn
AlternateSubs2: "'ss01' +wqTQwMd8wTjSuAAA-1 lookup 12 subtable" Ograve.vn
AlternateSubs2: "'salt' +wqTQwMd8ua0A +swDFSNYV in +t3zS9AAA +x5AA lookup 11 subtable" Ograve.vn
Substitution2: "'c2sc' +swC7OMeQxdDBHAAA +wYzWFbMAuzjHkLhc lookup 4 subtable" Ograve.sc
EndChar

StartChar: Oacute
Encoding: 211 211 147
Width: 863
GlyphClass: 2
Flags: MW
TeX: 876 0
HStem: -11 42<401.5 458 401.5 546> 657 40<401.5 463> 752 123
VStem: 64 153<311 386 311 444> 327 227<778 827.5> 646 153<319 388>
AnchorPoint: "Anchor-5" 432 855 basechar 0
AnchorPoint: "Anchor-4" 431 0 basechar 0
LayerCount: 2
Fore
SplineSet
327 778 m 1
 474 871 475 875 497 875 c 2
 498 875 l 2
 530 875 554 843 554 812 c 0
 554 760 503 757 470 752 c 0
 428 745 385 739 343 733 c 1
 327 778 l 1
64 339 m 0
 64 549 203 697 432 697 c 0
 654 697 799 555 799 339 c 0
 799 134 661 -11 431 -11 c 0
 204 -11 64 132 64 339 c 0
217 354 m 0
 217 268 225 197 258 135 c 0
 299 59 372 31 431 31 c 0
 485 31 555 53 600 126 c 0
 642 195 646 284 646 354 c 0
 646 422 642 499 604 563 c 0
 564 629 495 657 431 657 c 0
 372 657 305 632 264 571 c 0
 220 503 217 418 217 354 c 0
EndSplineSet
Substitution2: "'locl' +rW2sAAAA,+ycDF7QAA +rODHINYV in +t3zS9AAA +x5AA lookup 13 subtable" Oacute.vn
AlternateSubs2: "'ss01' +wqTQwMd8wTjSuAAA-1 lookup 12 subtable" Oacute.vn
AlternateSubs2: "'salt' +wqTQwMd8ua0A +swDFSNYV in +t3zS9AAA +x5AA lookup 11 subtable" Oacute.vn
Substitution2: "'c2sc' +swC7OMeQxdDBHAAA +wYzWFbMAuzjHkLhc lookup 4 subtable" Oacute.sc
EndChar

StartChar: Ocircumflex
Encoding: 212 212 148
Width: 863
GlyphClass: 2
Flags: MW
TeX: 894 0
HStem: -11 42<401.5 458 401.5 546> 657 40<401.5 463>
VStem: 64 153<311 386 311 444> 646 153<319 388>
AnchorPoint: "Anchor-5" 432 880 basechar 0
AnchorPoint: "Anchor-4" 431 0 basechar 0
LayerCount: 2
Fore
SplineSet
274 775 m 1
 431 900 l 1
 432 900 l 1
 588 775 l 1
 561 736 l 1
 432 817 l 1
 431 817 l 1
 301 736 l 1
 274 775 l 1
64 339 m 0
 64 549 203 697 432 697 c 0
 654 697 799 555 799 339 c 0
 799 134 661 -11 431 -11 c 0
 204 -11 64 132 64 339 c 0
217 354 m 0
 217 268 225 197 258 135 c 0
 299 59 372 31 431 31 c 0
 485 31 555 53 600 126 c 0
 642 195 646 284 646 354 c 0
 646 422 642 499 604 563 c 0
 564 629 495 657 431 657 c 0
 372 657 305 632 264 571 c 0
 220 503 217 418 217 354 c 0
EndSplineSet
Substitution2: "'locl' +rW2sAAAA,+ycDF7QAA +rODHINYV in +t3zS9AAA +x5AA lookup 13 subtable" Ocircumflex.vn
AlternateSubs2: "'ss01' +wqTQwMd8wTjSuAAA-1 lookup 12 subtable" Ocircumflex.vn
AlternateSubs2: "'salt' +wqTQwMd8ua0A +swDFSNYV in +t3zS9AAA +x5AA lookup 11 subtable" Ocircumflex.vn
Substitution2: "'c2sc' +swC7OMeQxdDBHAAA +wYzWFbMAuzjHkLhc lookup 4 subtable" Ocircumflex.sc
EndChar

StartChar: Otilde
Encoding: 213 213 149
Width: 863
GlyphClass: 2
Flags: MW
TeX: 894 0
HStem: -11 42<401.5 458 401.5 546> 657 40<401.5 463> 786 74<507.5 550.5> 820 74<311.5 354.5>
VStem: 64 153<311 386 311 444> 646 153<319 388>
AnchorPoint: "Anchor-5" 432 874 basechar 0
AnchorPoint: "Anchor-4" 431 0 basechar 0
LayerCount: 2
Fore
SplineSet
208 812 m 1xec
 258 863 280 894 343 894 c 0xdc
 410 894 474 860 541 860 c 0xec
 594 860 619 885 629 894 c 1xdc
 654 868 l 1
 603 817 582 786 519 786 c 0xec
 452 786 388 820 321 820 c 0xdc
 283 820 261 810 233 786 c 1
 208 812 l 1xec
64 339 m 0xcc
 64 549 203 697 432 697 c 0
 654 697 799 555 799 339 c 0
 799 134 661 -11 431 -11 c 0
 204 -11 64 132 64 339 c 0xcc
217 354 m 0
 217 268 225 197 258 135 c 0
 299 59 372 31 431 31 c 0
 485 31 555 53 600 126 c 0
 642 195 646 284 646 354 c 0
 646 422 642 499 604 563 c 0
 564 629 495 657 431 657 c 0
 372 657 305 632 264 571 c 0
 220 503 217 418 217 354 c 0
EndSplineSet
Substitution2: "'locl' +rW2sAAAA,+ycDF7QAA +rODHINYV in +t3zS9AAA +x5AA lookup 13 subtable" Otilde.vn
AlternateSubs2: "'ss01' +wqTQwMd8wTjSuAAA-1 lookup 12 subtable" Otilde.vn
AlternateSubs2: "'salt' +wqTQwMd8ua0A +swDFSNYV in +t3zS9AAA +x5AA lookup 11 subtable" Otilde.vn
Substitution2: "'c2sc' +swC7OMeQxdDBHAAA +wYzWFbMAuzjHkLhc lookup 4 subtable" Otilde.sc
EndChar

StartChar: Odieresis
Encoding: 214 214 150
Width: 863
GlyphClass: 2
Flags: MW
TeX: 894 0
HStem: -11 42<401.5 458 401.5 546> 657 40<401.5 463> 738 156<298.5 338 522.5 562.5>
VStem: 64 153<311 386 311 444> 242 155<793.5 837.5> 465 155<794 835.5> 646 153<319 388>
AnchorPoint: "Anchor-5" 432 874 basechar 0
AnchorPoint: "Anchor-4" 431 0 basechar 0
LayerCount: 2
Fore
SplineSet
242 816 m 0
 242 859 277 894 319 894 c 0
 360 894 397 861 397 816 c 0
 397 769 357 738 319 738 c 0
 278 738 242 771 242 816 c 0
465 816 m 0
 465 855 496 894 542 894 c 0
 583 894 620 861 620 816 c 0
 620 772 584 738 543 738 c 0
 502 738 465 771 465 816 c 0
64 339 m 0
 64 549 203 697 432 697 c 0
 654 697 799 555 799 339 c 0
 799 134 661 -11 431 -11 c 0
 204 -11 64 132 64 339 c 0
217 354 m 0
 217 268 225 197 258 135 c 0
 299 59 372 31 431 31 c 0
 485 31 555 53 600 126 c 0
 642 195 646 284 646 354 c 0
 646 422 642 499 604 563 c 0
 564 629 495 657 431 657 c 0
 372 657 305 632 264 571 c 0
 220 503 217 418 217 354 c 0
EndSplineSet
Substitution2: "'c2sc' +swC7OMeQxdDBHAAA +wYzWFbMAuzjHkLhc lookup 4 subtable" Odieresis.sc
EndChar

StartChar: multiply
Encoding: 215 215 151
Width: 894
GlyphClass: 2
Flags: W
TeX: 633 133
LayerCount: 2
Fore
SplineSet
168 0 m 0
 168 13 176 22 186 32 c 2
 404 250 l 1
 185 469 l 2
 178 477 168 487 168 499 c 0
 168 513 180 529 197 529 c 2
 200 529 l 2
 215 529 218 523 446 293 c 1
 447 293 l 1
 666 512 l 2
 682 528 690 529 696 529 c 0
 714 529 725 514 725 499 c 0
 725 486 715 476 707 468 c 2
 489 250 l 1
 709 30 l 2
 725 13 725 6 725 0 c 0
 725 -17 710 -29 696 -29 c 0
 684 -29 675 -22 666 -13 c 2
 447 207 l 1
 446 207 l 1
 227 -12 l 2
 218 -21 209 -29 197 -29 c 0
 181 -29 168 -16 168 0 c 0
EndSplineSet
EndChar

StartChar: Oslash
Encoding: 216 216 152
Width: 894
GlyphClass: 2
Flags: MW
TeX: 734 48
HStem: -11 36<397.5 489.5 397.5 564> 660 37<402.5 492 329 494>
VStem: 63 142<316 370 268.5 447> 687 142<326 340 340 402 234.5 414>
LayerCount: 2
Fore
SplineSet
63 340 m 0
 63 554 213 697 445 697 c 0
 539 697 594 676 642 656 c 1
 705 746 l 1
 706 746 l 1
 738 723 l 1
 678 635 l 1
 775 575 829 465 829 339 c 0
 829 130 681 -11 447 -11 c 0
 348 -11 294 11 250 29 c 1
 188 -60 l 1
 154 -37 l 1
 214 49 l 1
 70 139 63 292 63 340 c 0
205 338 m 0
 205 199 225 155 257 109 c 1
 606 605 l 1
 606 606 l 1
 594 616 542 660 446 660 c 0
 359 660 285 623 246 558 c 0
 206 492 205 402 205 338 c 0
285 79 m 1
 298 69 349 25 446 25 c 0
 533 25 607 60 647 125 c 0
 686 188 687 275 687 326 c 2
 687 340 l 2
 687 488 665 532 635 575 c 1
 285 79 l 1
EndSplineSet
Substitution2: "'c2sc' +swC7OMeQxdDBHAAA +wYzWFbMAuzjHkLhc lookup 4 subtable" Oslash.sc
EndChar

StartChar: Ugrave
Encoding: 217 217 153
Width: 884
GlyphClass: 2
Flags: MW
TeX: 876 0
HStem: -11 47<378.5 520.5 378.5 557> 639 47<39 39 39 147> 757 118
VStem: 147 142<231 639> 684 53<233 610>
AnchorPoint: "Anchor-5" 442 866 basechar 0
AnchorPoint: "Anchor-4" 462 0 basechar 0
LayerCount: 2
Fore
SplineSet
319 812 m 0
 319 843 343 875 375 875 c 0
 396 875 395 873 546 778 c 1
 529 733 l 1
 483 739 469 743 378 757 c 0
 363 759 319 766 319 812 c 0
39 639 m 1
 39 686 l 1
 77 683 175 683 218 683 c 0
 261 683 359 683 397 686 c 1
 397 639 l 1
 289 639 l 1
 289 223 l 2
 289 167 291 36 466 36 c 0
 575 36 684 85 684 233 c 2
 684 610 l 2
 684 632 683 633 654 636 c 0
 636 638 619 639 601 639 c 2
 576 639 l 1
 576 686 l 1
 617 683 669 683 711 683 c 0
 750 683 807 683 845 686 c 1
 845 639 l 1
 820 639 l 2
 792 639 790 639 766 636 c 0
 738 633 737 632 737 610 c 2
 737 229 l 2
 737 106 652 -11 462 -11 c 0
 255 -11 147 98 147 231 c 2
 147 639 l 1
 39 639 l 1
EndSplineSet
Substitution2: "'locl' +rW2sAAAA,+ycDF7QAA +rODHINYV in +t3zS9AAA +x5AA lookup 13 subtable" Ugrave.vn
AlternateSubs2: "'ss01' +wqTQwMd8wTjSuAAA-1 lookup 12 subtable" Ugrave.vn
AlternateSubs2: "'salt' +wqTQwMd8ua0A +swDFSNYV in +t3zS9AAA +x5AA lookup 11 subtable" Ugrave.vn
Substitution2: "'c2sc' +swC7OMeQxdDBHAAA +wYzWFbMAuzjHkLhc lookup 4 subtable" Ugrave.sc
EndChar

StartChar: Uacute
Encoding: 218 218 154
Width: 884
GlyphClass: 2
Flags: MW
TeX: 876 0
HStem: -11 47<378.5 520.5 378.5 557> 639 47<39 39 39 147> 752 123
VStem: 147 142<231 639> 386 227<778 827.5> 684 53<233 610>
AnchorPoint: "Anchor-5" 442 866 basechar 0
AnchorPoint: "Anchor-4" 462 0 basechar 0
LayerCount: 2
Fore
SplineSet
386 778 m 1
 533 871 534 875 556 875 c 2
 557 875 l 2
 589 875 613 843 613 812 c 0
 613 760 562 757 529 752 c 0
 487 745 444 739 402 733 c 1
 386 778 l 1
39 639 m 1
 39 686 l 1
 77 683 175 683 218 683 c 0
 261 683 359 683 397 686 c 1
 397 639 l 1
 289 639 l 1
 289 223 l 2
 289 167 291 36 466 36 c 0
 575 36 684 85 684 233 c 2
 684 610 l 2
 684 632 683 633 654 636 c 0
 636 638 619 639 601 639 c 2
 576 639 l 1
 576 686 l 1
 617 683 669 683 711 683 c 0
 750 683 807 683 845 686 c 1
 845 639 l 1
 820 639 l 2
 792 639 790 639 766 636 c 0
 738 633 737 632 737 610 c 2
 737 229 l 2
 737 106 652 -11 462 -11 c 0
 255 -11 147 98 147 231 c 2
 147 639 l 1
 39 639 l 1
EndSplineSet
Substitution2: "'locl' +rW2sAAAA,+ycDF7QAA +rODHINYV in +t3zS9AAA +x5AA lookup 13 subtable" Uacute.vn
AlternateSubs2: "'ss01' +wqTQwMd8wTjSuAAA-1 lookup 12 subtable" Uacute.vn
AlternateSubs2: "'salt' +wqTQwMd8ua0A +swDFSNYV in +t3zS9AAA +x5AA lookup 11 subtable" Uacute.vn
Substitution2: "'c2sc' +swC7OMeQxdDBHAAA +wYzWFbMAuzjHkLhc lookup 4 subtable" Uacute.sc
EndChar

StartChar: Ucircumflex
Encoding: 219 219 155
Width: 884
GlyphClass: 2
Flags: MW
TeX: 894 0
HStem: -11 47<378.5 520.5 378.5 557> 639 47<39 39 39 147>
VStem: 147 142<231 639> 684 53<233 610>
AnchorPoint: "Anchor-5" 442 891 basechar 0
AnchorPoint: "Anchor-4" 462 0 basechar 0
LayerCount: 2
Fore
SplineSet
307 775 m 1
 464 900 l 1
 465 900 l 1
 622 775 l 1
 594 736 l 1
 465 817 l 1
 464 817 l 1
 334 736 l 1
 307 775 l 1
39 639 m 1
 39 686 l 1
 77 683 175 683 218 683 c 0
 261 683 359 683 397 686 c 1
 397 639 l 1
 289 639 l 1
 289 223 l 2
 289 167 291 36 466 36 c 0
 575 36 684 85 684 233 c 2
 684 610 l 2
 684 632 683 633 654 636 c 0
 636 638 619 639 601 639 c 2
 576 639 l 1
 576 686 l 1
 617 683 669 683 711 683 c 0
 750 683 807 683 845 686 c 1
 845 639 l 1
 820 639 l 2
 792 639 790 639 766 636 c 0
 738 633 737 632 737 610 c 2
 737 229 l 2
 737 106 652 -11 462 -11 c 0
 255 -11 147 98 147 231 c 2
 147 639 l 1
 39 639 l 1
EndSplineSet
Substitution2: "'c2sc' +swC7OMeQxdDBHAAA +wYzWFbMAuzjHkLhc lookup 4 subtable" Ucircumflex.sc
EndChar

StartChar: Udieresis
Encoding: 220 220 156
Width: 884
GlyphClass: 2
Flags: MW
TeX: 894 0
HStem: -11 47<378.5 520.5 378.5 557> 639 47<39 39 39 147> 738 156<309.5 349 533.5 573.5>
VStem: 147 142<231 639> 253 155<793.5 837.5> 476 155<794.5 835.5> 684 53<233 610>
AnchorPoint: "Anchor-5" 442 885 basechar 0
AnchorPoint: "Anchor-4" 462 0 basechar 0
LayerCount: 2
Fore
SplineSet
253 816 m 0xee
 253 859 288 894 330 894 c 0
 371 894 408 861 408 816 c 0
 408 769 368 738 330 738 c 0
 289 738 253 771 253 816 c 0xee
476 816 m 0
 476 855 507 894 553 894 c 0
 594 894 631 861 631 816 c 0
 631 773 596 738 554 738 c 0
 513 738 476 771 476 816 c 0
39 639 m 1xd2
 39 686 l 1
 77 683 175 683 218 683 c 0
 261 683 359 683 397 686 c 1
 397 639 l 1
 289 639 l 1
 289 223 l 2
 289 167 291 36 466 36 c 0
 575 36 684 85 684 233 c 2
 684 610 l 2
 684 632 683 633 654 636 c 0
 636 638 619 639 601 639 c 2
 576 639 l 1
 576 686 l 1
 617 683 669 683 711 683 c 0
 750 683 807 683 845 686 c 1
 845 639 l 1
 820 639 l 2
 792 639 790 639 766 636 c 0
 738 633 737 632 737 610 c 2
 737 229 l 2
 737 106 652 -11 462 -11 c 0
 255 -11 147 98 147 231 c 2
 147 639 l 1
 39 639 l 1xd2
EndSplineSet
Substitution2: "'c2sc' +swC7OMeQxdDBHAAA +wYzWFbMAuzjHkLhc lookup 4 subtable" Udieresis.sc
EndChar

StartChar: Yacute
Encoding: 221 221 157
Width: 869
GlyphClass: 2
Flags: MW
TeX: 876 0
ItalicCorrection: 28
HStem: 3 44 639 47<19 19 19 117> 753 122
VStem: 366 136<47 274 47 274>
AnchorPoint: "Anchor-5" 434 866 basechar 0
AnchorPoint: "Anchor-4" 434 0 basechar 0
LayerCount: 2
Fore
SplineSet
378 778 m 1
 530 875 527 875 549 875 c 0
 583 875 605 841 605 812 c 0
 605 760 552 758 520 753 c 0
 478 746 436 739 394 733 c 1
 378 778 l 1
19 639 m 1
 19 686 l 1
 54 683 144 683 184 683 c 0
 229 683 326 683 367 686 c 1
 367 639 l 1
 282 639 l 1
 485 342 l 1
 672 617 l 2
 677 623 677 625 679 629 c 1
 653 639 626 639 603 639 c 1
 603 686 l 1
 640 683 696 683 735 683 c 0
 763 683 809 685 849 686 c 1
 849 639 l 1
 828 639 l 2
 811 639 793 638 776 636 c 0
 754 633 746 633 737 619 c 2
 502 274 l 1
 502 47 l 1
 611 47 l 1
 611 0 l 1
 573 3 477 3 434 3 c 0
 392 3 294 3 258 0 c 1
 258 47 l 1
 366 47 l 1
 366 274 l 1
 117 639 l 1
 19 639 l 1
EndSplineSet
Substitution2: "'locl' +rW2sAAAA,+ycDF7QAA +rODHINYV in +t3zS9AAA +x5AA lookup 13 subtable" Yacute.vn
AlternateSubs2: "'ss01' +wqTQwMd8wTjSuAAA-1 lookup 12 subtable" Yacute.vn
AlternateSubs2: "'salt' +wqTQwMd8ua0A +swDFSNYV in +t3zS9AAA +x5AA lookup 11 subtable" Yacute.vn
Substitution2: "'c2sc' +swC7OMeQxdDBHAAA +wYzWFbMAuzjHkLhc lookup 4 subtable" Yacute.sc
EndChar

StartChar: Thorn
Encoding: 222 222 158
Width: 722
GlyphClass: 2
Flags: MW
TeX: 690 0
HStem: 0 48<39 147> 178 48<279 375 375 401 279 375> 517 48<279 394 279 417> 638 45
VStem: 147 132<48 178 226 517 565 638> 510 148<338 403.5>
LayerCount: 2
Fore
SplineSet
39 0 m 1
 39 48 l 1
 147 48 l 1
 147 638 l 1
 39 638 l 1
 39 686 l 1
 99 684 159 683 219 683 c 2
 223 683 l 2
 243 683 293 683 387 686 c 1
 387 638 l 1
 279 638 l 1
 279 565 l 1
 417 565 l 2
 605 565 658 451 658 371 c 0
 658 263 576 192 458 180 c 0
 439 178 420 178 401 178 c 2
 279 178 l 1
 279 48 l 1
 387 48 l 1
 387 0 l 1
 328 2 268 3 208 3 c 0
 174 3 124 3 39 0 c 1
279 226 m 1
 375 226 l 2
 483 226 510 304 510 372 c 0
 510 435 487 517 394 517 c 2
 279 517 l 1
 279 226 l 1
EndSplineSet
Substitution2: "'c2sc' +swC7OMeQxdDBHAAA +wYzWFbMAuzjHkLhc lookup 4 subtable" Thorn.sc
EndChar

StartChar: germandbls
Encoding: 223 223 159
Width: 597
GlyphClass: 2
Flags: MW
TeX: 690 0
HStem: -5 36<392.5 439 382 467> 0 48<35 105> 397 48<35 105 35 105> 663 37<259 322.5 247 360>
VStem: 35 178<0 48 48 48 397 445 445 445> 105 108<48 397 397 397 445 532 532 535.5> 277 49<133 133> 277 71<329.5 359.5> 420 48<550 574> 487 71<107.5 122>
LayerCount: 2
Fore
SplineSet
35 0 m 1x78c0
 35 48 l 1x78c0
 105 48 l 1
 105 397 l 1x74c0
 35 397 l 1
 35 445 l 1x78c0
 105 445 l 1
 105 532 l 2
 105 539 104 546 104 553 c 0
 104 670 194 700 300 700 c 0
 345 700 468 697 468 556 c 0
 468 403 403 425 380 417 c 0
 361 411 348 391 348 360 c 0x75c0
 348 299 396 293 410 291 c 0
 439 286 491 280 530 227 c 0
 545 206 558 178 558 140 c 0
 558 75 527 -5 407 -5 c 0
 378 -5 360 0 336 16 c 1
 319 4 305 -5 294 -5 c 0
 280 -5 277 6 277 18 c 2
 277 133 l 2
 278 149 281 157 301 157 c 0
 319 157 323 149 326 134 c 0
 339 67 357 31 407 31 c 0xb2c0
 471 31 487 71 487 105 c 0
 487 139 466 162 442 174 c 0
 414 187 375 182 337 206 c 0
 313 221 277 257 277 323 c 0
 277 396 313 446 392 452 c 0
 410 454 419 459 420 550 c 0
 420 598 417 663 303 663 c 0
 215 663 213 607 213 558 c 2
 213 0 l 1x75c0
 174 3 l 1
 35 0 l 1x78c0
EndSplineSet
Substitution2: "'smcp' +wYy7OMeQxdDBHAAA +wYzWFQAA +swC7OMeQuFwA lookup 3 subtable" Germandbls.sc
EndChar

StartChar: agrave
Encoding: 224 224 160
Width: 559
GlyphClass: 2
Flags: MW
TeX: 648 0
HStem: -6 36<214.5 252.5 214.5 265> 0 47<478 538.5> 234 31<357 357> 417 36<241 284.5> 494 168<219 370>
VStem: 32 117<87 163 87 180.5> 72 125<340 376 340 405> 176 219<534 614.5> 357 114<139 234 234 234 265 299>
AnchorPoint: "Anchor-5" 251 642 basechar 0
AnchorPoint: "Anchor-4" 251 0 basechar 0
LayerCount: 2
Fore
SplineSet
176 599 m 0x09
 176 630 203 662 235 662 c 0
 261 662 267 652 356 570 c 2
 395 534 l 1
 370 494 l 1
 201 552 176 553 176 599 c 0x09
32 108 m 0xb480
 32 253 286 262 357 265 c 1
 357 299 l 2
 357 375 322 417 247 417 c 0
 235 417 203 416 175 410 c 1
 178 408 197 391 197 361 c 0
 197 319 165 298 134 298 c 0
 107 298 72 317 72 361 c 0
 72 449 194 453 251 453 c 0
 400 453 471 388 471 299 c 2
 471 84 l 2
 471 61 471 48 532 47 c 0
 545 47 558 47 558 24 c 0
 558 0 546 0 526 0 c 2
 478 0 l 2x7280
 374 0 374 46 374 77 c 1
 352 35 305 -6 225 -6 c 0
 156 -6 32 12 32 108 c 0xb480
149 109 m 0xb480
 149 65 189 30 240 30 c 0
 265 30 357 43 357 139 c 2
 357 234 l 1
 307 231 149 217 149 109 c 0xb480
EndSplineSet
Substitution2: "'locl' +rW2sAAAA,+ycDF7QAA +rODHINYV in +t3zS9AAA +x5AA lookup 13 subtable" agrave.vn
AlternateSubs2: "'ss01' +wqTQwMd8wTjSuAAA-1 lookup 12 subtable" agrave.vn
AlternateSubs2: "'salt' +wqTQwMd8ua0A +swDFSNYV in +t3zS9AAA +x5AA lookup 11 subtable" agrave.vn
Substitution2: "'smcp' +wYy7OMeQxdDBHAAA +wYzWFQAA +swC7OMeQuFwA lookup 3 subtable" Agrave.sc
EndChar

StartChar: aacute
Encoding: 225 225 161
Width: 559
GlyphClass: 2
Flags: MW
TeX: 648 0
HStem: -6 36<214.5 252.5 214.5 265> 0 47<478 538.5> 234 31<357 357> 417 36<241 284.5>
VStem: 32 117<87 163 87 180.5> 72 125<340 376 340 405> 357 114<139 234 234 234 265 299>
AnchorPoint: "Anchor-5" 251 642 basechar 0
AnchorPoint: "Anchor-4" 251 0 basechar 0
LayerCount: 2
Fore
SplineSet
32 108 m 0xba
 32 253 286 262 357 265 c 1
 357 299 l 2
 357 375 322 417 247 417 c 0
 235 417 203 416 175 410 c 1
 178 408 197 391 197 361 c 0
 197 319 165 298 134 298 c 0
 107 298 72 317 72 361 c 0
 72 449 194 453 251 453 c 0
 400 453 471 388 471 299 c 2
 471 84 l 2
 471 61 471 48 532 47 c 0
 545 47 558 47 558 24 c 0
 558 0 546 0 526 0 c 2
 478 0 l 2x76
 374 0 374 46 374 77 c 1
 352 35 305 -6 225 -6 c 0
 156 -6 32 12 32 108 c 0xba
149 109 m 0xba
 149 65 189 30 240 30 c 0
 265 30 357 43 357 139 c 2
 357 234 l 1
 307 231 149 217 149 109 c 0xba
178 535 m 1x32
 306 653 311 662 338 662 c 0
 370 662 397 630 397 599 c 0
 397 553 368 551 203 494 c 1
 178 535 l 1x32
EndSplineSet
Substitution2: "'locl' +rW2sAAAA,+ycDF7QAA +rODHINYV in +t3zS9AAA +x5AA lookup 13 subtable" aacute.vn
AlternateSubs2: "'ss01' +wqTQwMd8wTjSuAAA-1 lookup 12 subtable" aacute.vn
AlternateSubs2: "'salt' +wqTQwMd8ua0A +swDFSNYV in +t3zS9AAA +x5AA lookup 11 subtable" aacute.vn
Substitution2: "'smcp' +wYy7OMeQxdDBHAAA +wYzWFQAA +swC7OMeQuFwA lookup 3 subtable" Aacute.sc
EndChar

StartChar: acircumflex
Encoding: 226 226 162
Width: 559
GlyphClass: 2
Flags: MW
TeX: 648 0
HStem: -6 36<214.5 252.5 214.5 265> 0 47<478 538.5> 234 31<357 357> 417 36<241 284.5> 474 184<127 256 255 383>
VStem: 32 117<87 163 87 180.5> 72 125<340 376 340 405> 96 318<510 510> 357 114<139 234 234 234 265 299>
AnchorPoint: "Anchor-5" 251 638 basechar 0
AnchorPoint: "Anchor-4" 251 0 basechar 0
LayerCount: 2
Fore
SplineSet
96 510 m 1x09
 255 658 l 1
 256 658 l 1
 414 510 l 1
 383 474 l 1
 256 576 l 1
 255 576 l 1
 127 474 l 1
 96 510 l 1x09
32 108 m 0xb480
 32 253 286 262 357 265 c 1
 357 299 l 2
 357 375 322 417 247 417 c 0
 235 417 203 416 175 410 c 1
 178 408 197 391 197 361 c 0
 197 319 165 298 134 298 c 0
 107 298 72 317 72 361 c 0
 72 449 194 453 251 453 c 0
 400 453 471 388 471 299 c 2
 471 84 l 2
 471 61 471 48 532 47 c 0
 545 47 558 47 558 24 c 0
 558 0 546 0 526 0 c 2
 478 0 l 2x7280
 374 0 374 46 374 77 c 1
 352 35 305 -6 225 -6 c 0
 156 -6 32 12 32 108 c 0xb480
149 109 m 0xb480
 149 65 189 30 240 30 c 0
 265 30 357 43 357 139 c 2
 357 234 l 1
 307 231 149 217 149 109 c 0xb480
EndSplineSet
Substitution2: "'locl' +rW2sAAAA,+ycDF7QAA +rODHINYV in +t3zS9AAA +x5AA lookup 13 subtable" acircumflex.vn
AlternateSubs2: "'ss01' +wqTQwMd8wTjSuAAA-1 lookup 12 subtable" acircumflex.vn
AlternateSubs2: "'salt' +wqTQwMd8ua0A +swDFSNYV in +t3zS9AAA +x5AA lookup 11 subtable" acircumflex.vn
Substitution2: "'smcp' +wYy7OMeQxdDBHAAA +wYzWFQAA +swC7OMeQuFwA lookup 3 subtable" Acircumflex.sc
EndChar

StartChar: atilde
Encoding: 227 227 163
Width: 559
GlyphClass: 2
Flags: MW
TeX: 648 0
HStem: -6 36<214.5 252.5 214.5 265> 0 47<478 538.5> 234 31<357 357> 417 36<241 284.5> 524 74<313 347.5> 558 74<154.5 190>
VStem: 32 117<87 163 87 180.5> 72 125<340 376 340 405> 357 114<139 234 234 234 265 299>
AnchorPoint: "Anchor-5" 251 612 basechar 0
AnchorPoint: "Anchor-4" 251 0 basechar 0
LayerCount: 2
Fore
SplineSet
60 549 m 1x08
 108 601 128 632 181 632 c 0x04
 237 632 285 598 341 598 c 0x08
 375 598 391 610 416 632 c 1x04
 443 607 l 1
 395 556 374 524 321 524 c 0x08
 265 524 218 558 162 558 c 0x04
 128 558 111 546 86 524 c 1
 60 549 l 1x08
32 108 m 0xb280
 32 253 286 262 357 265 c 1
 357 299 l 2
 357 375 322 417 247 417 c 0
 235 417 203 416 175 410 c 1
 178 408 197 391 197 361 c 0
 197 319 165 298 134 298 c 0
 107 298 72 317 72 361 c 0
 72 449 194 453 251 453 c 0
 400 453 471 388 471 299 c 2
 471 84 l 2
 471 61 471 48 532 47 c 0
 545 47 558 47 558 24 c 0
 558 0 546 0 526 0 c 2
 478 0 l 2x7180
 374 0 374 46 374 77 c 1
 352 35 305 -6 225 -6 c 0
 156 -6 32 12 32 108 c 0xb280
149 109 m 0xb280
 149 65 189 30 240 30 c 0
 265 30 357 43 357 139 c 2
 357 234 l 1
 307 231 149 217 149 109 c 0xb280
EndSplineSet
Substitution2: "'locl' +rW2sAAAA,+ycDF7QAA +rODHINYV in +t3zS9AAA +x5AA lookup 13 subtable" atilde.vn
AlternateSubs2: "'ss01' +wqTQwMd8wTjSuAAA-1 lookup 12 subtable" atilde.vn
AlternateSubs2: "'salt' +wqTQwMd8ua0A +swDFSNYV in +t3zS9AAA +x5AA lookup 11 subtable" atilde.vn
Substitution2: "'smcp' +wYy7OMeQxdDBHAAA +wYzWFQAA +swC7OMeQuFwA lookup 3 subtable" Atilde.sc
EndChar

StartChar: adieresis
Encoding: 228 228 164
Width: 559
GlyphClass: 2
Flags: MW
TeX: 690 0
HStem: -6 36<214.5 252.5 214.5 265> 0 47<478 538.5> 234 31<357 357> 417 36<241 284.5> 530 156<154.5 195.5 152 196 377.5 417>
VStem: 32 117<87 163 87 180.5> 72 125<340 376 340 405> 97 155<586.5 627.5> 321 155<585.5 629.5> 357 114<139 234 234 234 265 299>
AnchorPoint: "Anchor-5" 251 666 basechar 0
AnchorPoint: "Anchor-4" 251 0 basechar 0
LayerCount: 2
Fore
SplineSet
97 608 m 0x0980
 97 647 129 686 175 686 c 0
 216 686 252 653 252 608 c 0
 252 565 217 530 175 530 c 0
 134 530 97 562 97 608 c 0x0980
321 608 m 0
 321 651 356 686 398 686 c 0
 439 686 476 653 476 608 c 0
 476 561 436 530 398 530 c 0
 357 530 321 563 321 608 c 0
32 108 m 0xb440
 32 253 286 262 357 265 c 1
 357 299 l 2
 357 375 322 417 247 417 c 0
 235 417 203 416 175 410 c 1
 178 408 197 391 197 361 c 0
 197 319 165 298 134 298 c 0
 107 298 72 317 72 361 c 0
 72 449 194 453 251 453 c 0
 400 453 471 388 471 299 c 2
 471 84 l 2
 471 61 471 48 532 47 c 0
 545 47 558 47 558 24 c 0
 558 0 546 0 526 0 c 2
 478 0 l 2x7240
 374 0 374 46 374 77 c 1
 352 35 305 -6 225 -6 c 0
 156 -6 32 12 32 108 c 0xb440
149 109 m 0xb440
 149 65 189 30 240 30 c 0
 265 30 357 43 357 139 c 2
 357 234 l 1
 307 231 149 217 149 109 c 0xb440
EndSplineSet
Substitution2: "'smcp' +wYy7OMeQxdDBHAAA +wYzWFQAA +swC7OMeQuFwA lookup 3 subtable" Adieresis.sc
EndChar

StartChar: aring
Encoding: 229 229 165
Width: 559
GlyphClass: 2
Flags: MW
TeX: 648 0
HStem: -6 36<214.5 252.5 214.5 265> 0 47<478 538.5> 234 31<357 357> 417 36<241 284.5> 487 35<235 271 235 300.5> 626 35<236 282>
VStem: 32 117<87 163 87 180.5> 72 125<340 376 340 405> 135 48<556.5 591.5> 326 48<556.5 591.5> 357 114<139 234 234 234 265 299>
LayerCount: 2
Fore
SplineSet
135 574 m 0x3cc0
 135 609 161 661 255 661 c 0
 348 661 374 609 374 574 c 0
 374 539 348 487 253 487 c 0
 161 487 135 539 135 574 c 0x3cc0
183 574 m 0
 183 524 218 522 252 522 c 0
 290 522 326 524 326 574 c 0
 326 613 307 626 257 626 c 0
 215 626 183 620 183 574 c 0
32 108 m 0xb220
 32 253 286 262 357 265 c 1
 357 299 l 2
 357 375 322 417 247 417 c 0
 235 417 203 416 175 410 c 1
 178 408 197 391 197 361 c 0
 197 319 165 298 134 298 c 0
 107 298 72 317 72 361 c 0
 72 449 194 453 251 453 c 0
 400 453 471 388 471 299 c 2
 471 84 l 2
 471 61 471 48 532 47 c 0
 545 47 558 47 558 24 c 0
 558 0 546 0 526 0 c 2
 478 0 l 2x7120
 374 0 374 46 374 77 c 1
 352 35 305 -6 225 -6 c 0
 156 -6 32 12 32 108 c 0xb220
149 109 m 0xb220
 149 65 189 30 240 30 c 0
 265 30 357 43 357 139 c 2
 357 234 l 1
 307 231 149 217 149 109 c 0xb220
EndSplineSet
Substitution2: "'smcp' +wYy7OMeQxdDBHAAA +wYzWFQAA +swC7OMeQuFwA lookup 3 subtable" Aring.sc
EndChar

StartChar: ae
Encoding: 230 230 166
Width: 830
GlyphClass: 2
Flags: MW
TeX: 444 0
HStem: -5 36<217.5 278 217.5 293.5> 218 33<472 703 472 767 472 703> 416 37<242.5 263 579 643.5>
VStem: 37 118<82.5 120.5 82.5 132> 71 125<342.5 362> 358 114<218 251 218 290 218 312.5> 377 95<99.5 218> 703 95<251 251> 747 50
AnchorPoint: "Anchor-5" 410 453 basechar 0
AnchorPoint: "Anchor-4" 418 0 basechar 0
LayerCount: 2
Fore
SplineSet
37 103 m 0xf280
 37 161 89 241 358 248 c 1
 358 290 l 2
 358 335 352 366 324 391 c 0
 303 410 276 416 250 416 c 0
 235 416 205 415 175 410 c 1
 179 406 196 390 196 361 c 0
 196 324 168 299 134 299 c 0
 103 299 71 320 71 362 c 0
 72 437 157 453 250 453 c 0
 337 453 390 434 432 397 c 1
 447 410 499 453 599 453 c 0
 758 453 798 337 798 247 c 0xed
 798 219 784 218 767 218 c 2
 472 218 l 1
 473 183 472 35 621 35 c 0
 679 35 727 66 747 112 c 0
 752 123 755 135 774 135 c 0
 787 135 797 129 797 116 c 0
 797 92 748 -5 611 -5 c 0
 500 -5 444 44 427 59 c 1
 408 39 360 -5 227 -5 c 0
 143 -5 37 16 37 103 c 0xf280
155 104 m 0xf4
 155 61 193 31 242 31 c 0
 314 31 377 75 377 124 c 0xf2
 377 143 363 149 358 215 c 1
 341 214 252 210 200 177 c 0
 178 163 155 137 155 104 c 0xf4
472 251 m 1xe5
 703 251 l 1
 700 316 690 416 597 416 c 0
 561 416 524 399 502 368 c 0
 478 334 473 291 472 251 c 1xe5
EndSplineSet
Substitution2: "'smcp' +wYy7OMeQxdDBHAAA +wYzWFQAA +swC7OMeQuFwA lookup 3 subtable" AE.sc
EndChar

StartChar: ccedilla
Encoding: 231 231 167
Width: 511
GlyphClass: 2
Flags: MW
TeX: 444 170
HStem: -199 36<134 152 134 161> -60 95<230 333.5> 412 41<257 306.5>
VStem: 38 128<139 235 139 273> 325 115<-134.5 -100.5> 341 125<342 373> 428 49
AnchorPoint: "Anchor-5" 291 453 basechar 0
LayerCount: 2
Fore
SplineSet
38 222 m 0xf8
 38 324 99 453 291 453 c 0
 381 453 466 434 466 361 c 0
 466 323 437 299 403 299 c 0
 370 299 341 323 341 360 c 0xf4
 341 386 351 397 360 408 c 1
 347 410 320 412 293 412 c 0
 221 412 187 366 174 316 c 0
 166 284 166 253 166 217 c 0
 166 61 250 35 306 35 c 0
 361 35 406 63 428 113 c 0
 432 123 435 131 453 131 c 0
 467 131 477 129 477 116 c 0xf2
 477 98 441 19 344 0 c 1
 344 -30 l 1
 367 -34 440 -46 440 -110 c 0
 440 -197 277 -199 152 -199 c 2
 134 -199 l 1
 134 -163 l 1
 161 -163 l 2
 213 -163 325 -158 325 -111 c 0
 325 -90 311 -61 230 -60 c 1
 230 -1 l 1
 230 -1 38 23 38 222 c 0xf8
EndSplineSet
Substitution2: "'smcp' +wYy7OMeQxdDBHAAA +wYzWFQAA +swC7OMeQuFwA lookup 3 subtable" Ccedilla.sc
EndChar

StartChar: egrave
Encoding: 232 232 168
Width: 527
GlyphClass: 2
Flags: MW
TeX: 648 0
HStem: -6 40<231.5 334.5 231.5 372> 218 33<160 399 160 462 160 399> 417 36<264.5 313.5 199 337.5>
VStem: 32 128<192.5 218 192.5 251 192.5 287.5> 399 95<251 251> 445 49
AnchorPoint: "Anchor-5" 278 642 basechar 0
AnchorPoint: "Anchor-4" 293 0 basechar 0
LayerCount: 2
Fore
SplineSet
32 225 m 0xf4
 32 350 119 453 279 453 c 0
 348 453 401 435 438 399 c 0
 488 349 494 276 494 245 c 0
 494 218 484 218 462 218 c 2
 160 218 l 1
 160 167 161 34 302 34 c 0
 367 34 424 66 445 114 c 0
 451 130 453 135 470 135 c 0
 475 135 494 135 494 117 c 0
 494 100 451 -6 293 -6 c 0
 132 -6 32 91 32 225 c 0xf4
160 251 m 1
 399 251 l 1xf8
 398 286 396 417 279 417 c 0
 250 417 210 405 184 365 c 0
 163 332 162 290 160 251 c 1
184 599 m 0xf0
 184 630 210 661 242 662 c 2
 243 662 l 2
 269 662 275 652 363 571 c 0
 376 559 389 547 402 534 c 1
 378 494 l 1
 207 553 184 554 184 599 c 0xf0
EndSplineSet
Substitution2: "'locl' +rW2sAAAA,+ycDF7QAA +rODHINYV in +t3zS9AAA +x5AA lookup 13 subtable" egrave.vn
AlternateSubs2: "'ss01' +wqTQwMd8wTjSuAAA-1 lookup 12 subtable" egrave.vn
AlternateSubs2: "'salt' +wqTQwMd8ua0A +swDFSNYV in +t3zS9AAA +x5AA lookup 11 subtable" egrave.vn
Substitution2: "'smcp' +wYy7OMeQxdDBHAAA +wYzWFQAA +swC7OMeQuFwA lookup 3 subtable" Egrave.sc
EndChar

StartChar: eacute
Encoding: 233 233 169
Width: 527
GlyphClass: 2
Flags: MW
TeX: 648 0
HStem: -6 40<231.5 334.5 231.5 372> 218 33<160 399 160 462 160 399> 417 36<264.5 313.5 199 337.5>
VStem: 32 128<192.5 218 192.5 251 192.5 287.5> 399 95<251 251> 445 49
AnchorPoint: "Anchor-5" 278 642 basechar 0
AnchorPoint: "Anchor-4" 293 0 basechar 0
LayerCount: 2
Fore
SplineSet
32 225 m 0xf4
 32 350 119 453 279 453 c 0
 348 453 401 435 438 399 c 0
 488 349 494 276 494 245 c 0
 494 218 484 218 462 218 c 2
 160 218 l 1
 160 167 161 34 302 34 c 0
 367 34 424 66 445 114 c 0
 451 130 453 135 470 135 c 0
 475 135 494 135 494 117 c 0
 494 100 451 -6 293 -6 c 0
 132 -6 32 91 32 225 c 0xf4
160 251 m 1
 399 251 l 1xf8
 398 286 396 417 279 417 c 0
 250 417 210 405 184 365 c 0
 163 332 162 290 160 251 c 1
154 535 m 1xf0
 280 652 286 662 314 662 c 0
 347 662 372 630 372 599 c 0
 372 554 346 552 179 494 c 1
 154 535 l 1xf0
EndSplineSet
Substitution2: "'locl' +rW2sAAAA,+ycDF7QAA +rODHINYV in +t3zS9AAA +x5AA lookup 13 subtable" eacute.vn
AlternateSubs2: "'ss01' +wqTQwMd8wTjSuAAA-1 lookup 12 subtable" eacute.vn
AlternateSubs2: "'salt' +wqTQwMd8ua0A +swDFSNYV in +t3zS9AAA +x5AA lookup 11 subtable" eacute.vn
Substitution2: "'smcp' +wYy7OMeQxdDBHAAA +wYzWFQAA +swC7OMeQuFwA lookup 3 subtable" Eacute.sc
EndChar

StartChar: ecircumflex
Encoding: 234 234 170
Width: 527
GlyphClass: 2
Flags: MW
TeX: 648 0
HStem: -6 40<231.5 334.5 231.5 372> 218 33<160 399 160 462 160 399> 417 36<264.5 313.5 199 337.5>
VStem: 32 128<192.5 218 192.5 251 192.5 287.5> 399 95<251 251> 445 49
AnchorPoint: "Anchor-5" 278 638 basechar 0
AnchorPoint: "Anchor-4" 293 0 basechar 0
LayerCount: 2
Fore
SplineSet
32 225 m 0xf4
 32 350 119 453 279 453 c 0
 348 453 401 435 438 399 c 0
 488 349 494 276 494 245 c 0
 494 218 484 218 462 218 c 2
 160 218 l 1
 160 167 161 34 302 34 c 0
 367 34 424 66 445 114 c 0
 451 130 453 135 470 135 c 0
 475 135 494 135 494 117 c 0
 494 100 451 -6 293 -6 c 0
 132 -6 32 91 32 225 c 0xf4
160 251 m 1
 399 251 l 1xf8
 398 286 396 417 279 417 c 0
 250 417 210 405 184 365 c 0
 163 332 162 290 160 251 c 1
103 510 m 1xf0
 262 658 l 1
 263 658 l 1
 421 510 l 1
 391 475 l 1
 390 475 l 1
 263 576 l 1
 262 576 l 1
 135 475 l 1
 134 475 l 1
 103 510 l 1xf0
EndSplineSet
Substitution2: "'locl' +rW2sAAAA,+ycDF7QAA +rODHINYV in +t3zS9AAA +x5AA lookup 13 subtable" ecircumflex.vn
AlternateSubs2: "'ss01' +wqTQwMd8wTjSuAAA-1 lookup 12 subtable" ecircumflex.vn
AlternateSubs2: "'salt' +wqTQwMd8ua0A +swDFSNYV in +t3zS9AAA +x5AA lookup 11 subtable" ecircumflex.vn
Substitution2: "'smcp' +wYy7OMeQxdDBHAAA +wYzWFQAA +swC7OMeQuFwA lookup 3 subtable" Ecircumflex.sc
EndChar

StartChar: edieresis
Encoding: 235 235 171
Width: 527
GlyphClass: 2
Flags: MW
TeX: 690 0
HStem: -6 40<231.5 334.5 231.5 372> 218 33<160 399 160 462 160 399> 417 36<264.5 313.5 199 337.5> 530 156<127.5 170.5 127 171.5 353.5 394.5>
VStem: 32 128<192.5 218 192.5 251 192.5 287.5> 73 155<588.5 627.5> 296 156<588.5 629.5> 399 95<251 251> 445 49
AnchorPoint: "Anchor-5" 278 666 basechar 0
AnchorPoint: "Anchor-4" 293 0 basechar 0
LayerCount: 2
Fore
SplineSet
73 608 m 0xf4
 73 647 104 686 150 686 c 0
 191 686 228 653 228 608 c 0
 228 564 192 530 151 530 c 0
 104 530 73 569 73 608 c 0xf4
296 608 m 0xf2
 296 651 332 686 374 686 c 0
 415 686 452 653 452 608 c 0
 452 569 420 530 374 530 c 0
 333 530 296 563 296 608 c 0xf2
32 225 m 0xe880
 32 350 119 453 279 453 c 0
 348 453 401 435 438 399 c 0
 488 349 494 276 494 245 c 0
 494 218 484 218 462 218 c 2
 160 218 l 1
 160 167 161 34 302 34 c 0
 367 34 424 66 445 114 c 0
 451 130 453 135 470 135 c 0
 475 135 494 135 494 117 c 0
 494 100 451 -6 293 -6 c 0
 132 -6 32 91 32 225 c 0xe880
160 251 m 1
 399 251 l 1xe9
 398 286 396 417 279 417 c 0
 250 417 210 405 184 365 c 0
 163 332 162 290 160 251 c 1
EndSplineSet
Substitution2: "'smcp' +wYy7OMeQxdDBHAAA +wYzWFQAA +swC7OMeQuFwA lookup 3 subtable" Edieresis.sc
EndChar

StartChar: igrave
Encoding: 236 236 172
Width: 319
GlyphClass: 3
Flags: MW
TeX: 648 0
HStem: 0 47<47 116> 395 47<50 79.5> 430 20<224 224> 494 168<39 190>
VStem: -4 219<534 614.5> 116 108<47 356 356 375.5>
AnchorPoint: "Anchor-5" 170 645 basechar 0
AnchorPoint: "Anchor-4" 170 0 basechar 0
LayerCount: 2
Fore
SplineSet
-4 599 m 0x18
 -4 630 23 662 55 662 c 0
 81 662 87 652 176 570 c 2
 215 534 l 1
 190 494 l 1
 21 552 -4 553 -4 599 c 0x18
47 0 m 1xa4
 47 47 l 1
 116 47 l 1
 116 356 l 2
 116 395 109 395 50 395 c 1
 50 442 l 1xc4
 224 450 l 1
 224 47 l 1
 286 47 l 1
 286 0 l 1
 250 1 199 3 169 3 c 0
 127 3 78 1 47 0 c 1xa4
EndSplineSet
Substitution2: "'locl' +rW2sAAAA,+ycDF7QAA +rODHINYV in +t3zS9AAA +x5AA lookup 13 subtable" igrave.vn
AlternateSubs2: "'ss01' +wqTQwMd8wTjSuAAA-1 lookup 12 subtable" igrave.vn
AlternateSubs2: "'salt' +wqTQwMd8ua0A +swDFSNYV in +t3zS9AAA +x5AA lookup 11 subtable" igrave.vn
Ligature2: "'liga' +1FzJAAAA +1WnHTMeQ in +t3zS9AAA +x5AA lookup 8 subtable" i gravecomb
Substitution2: "'smcp' +wYy7OMeQxdDBHAAA +wYzWFQAA +swC7OMeQuFwA lookup 3 subtable" Igrave.sc
EndChar

StartChar: iacute
Encoding: 237 237 173
Width: 319
GlyphClass: 3
Flags: MW
TeX: 648 0
ItalicCorrection: 26
HStem: 0 47<47 116> 395 47<50 79.5> 430 20<224 224> 494 168<119 271.5>
VStem: 94 218<535 613> 116 108<47 356 356 375.5>
AnchorPoint: "Anchor-5" 170 645 basechar 0
AnchorPoint: "Anchor-4" 170 0 basechar 0
LayerCount: 2
Fore
SplineSet
47 0 m 1xa4
 47 47 l 1
 116 47 l 1
 116 356 l 2
 116 395 109 395 50 395 c 1
 50 442 l 1xc4
 224 450 l 1
 224 47 l 1
 286 47 l 1
 286 0 l 1
 250 1 199 3 169 3 c 0
 127 3 78 1 47 0 c 1xa4
94 535 m 1x18
 222 653 227 662 254 662 c 0
 289 662 312 627 312 599 c 0
 312 553 283 551 119 494 c 1
 94 535 l 1x18
EndSplineSet
Substitution2: "'locl' +rW2sAAAA,+ycDF7QAA +rODHINYV in +t3zS9AAA +x5AA lookup 13 subtable" iacute.vn
AlternateSubs2: "'ss01' +wqTQwMd8wTjSuAAA-1 lookup 12 subtable" iacute.vn
AlternateSubs2: "'salt' +wqTQwMd8ua0A +swDFSNYV in +t3zS9AAA +x5AA lookup 11 subtable" iacute.vn
Ligature2: "'liga' +1FzJAAAA +1WnHTMeQ in +0KS5tMeQ lookup 10 subtable" afii10103 acutecomb
Ligature2: "'liga' +1FzJAAAA +1WnHTMeQ in +t3zS9AAA +x5AA lookup 8 subtable" i acutecomb
Substitution2: "'smcp' +wYy7OMeQxdDBHAAA +wYzWFQAA +swC7OMeQuFwA lookup 3 subtable" Iacute.sc
EndChar

StartChar: icircumflex
Encoding: 238 238 174
Width: 319
GlyphClass: 3
Flags: MW
TeX: 648 0
HStem: 0 47<47 116> 395 47<50 79.5> 430 20<224 224> 474 184<42 171 170 298>
VStem: 11 318<510 510> 116 108<47 356 356 375.5>
AnchorPoint: "Anchor-5" 170 641 basechar 0
AnchorPoint: "Anchor-4" 170 0 basechar 0
LayerCount: 2
Fore
SplineSet
11 510 m 1x18
 170 658 l 1
 171 658 l 1
 329 510 l 1
 298 474 l 1
 171 576 l 1
 170 576 l 1
 42 474 l 1
 11 510 l 1x18
47 0 m 1xa4
 47 47 l 1
 116 47 l 1
 116 356 l 2
 116 395 109 395 50 395 c 1
 50 442 l 1xc4
 224 450 l 1
 224 47 l 1
 286 47 l 1
 286 0 l 1
 250 1 199 3 169 3 c 0
 127 3 78 1 47 0 c 1xa4
EndSplineSet
Ligature2: "'liga' +1FzJAAAA +1WnHTMeQ in +t3zS9AAA +x5AA lookup 8 subtable" i uni0302
Substitution2: "'smcp' +wYy7OMeQxdDBHAAA +wYzWFQAA +swC7OMeQuFwA lookup 3 subtable" Icircumflex.sc
EndChar

StartChar: idieresis
Encoding: 239 239 175
Width: 383
GlyphClass: 3
Flags: MW
TeX: 690 0
HStem: 0 48<79 148> 394 48<82 91 82 82> 430 20G<257 257> 530 156<70.5 111.5 68 112 293.5 333>
VStem: 13 155<586.5 627.5> 148 109<48 359 359 374> 237 155<585.5 629.5>
AnchorPoint: "Anchor-5" 202 666 basechar 0
LayerCount: 2
Fore
SplineSet
79 0 m 1xb4
 79 48 l 1
 148 48 l 1
 148 359 l 2
 148 389 138 394 91 394 c 2
 82 394 l 1
 82 442 l 1xd4
 257 450 l 1
 257 48 l 1
 319 48 l 1
 319 0 l 1
 257 3 223 3 209 3 c 2
 205 3 l 2
 163 3 121 2 79 0 c 1xb4
13 608 m 0x1a
 13 647 45 686 91 686 c 0
 132 686 168 653 168 608 c 0
 168 565 133 530 91 530 c 0
 50 530 13 562 13 608 c 0x1a
237 608 m 0
 237 651 272 686 314 686 c 0
 355 686 392 653 392 608 c 0
 392 561 352 530 314 530 c 0
 273 530 237 563 237 608 c 0
EndSplineSet
Ligature2: "'liga' +1FzJAAAA +1WnHTMeQ in +t3zS9AAA +x5AA lookup 8 subtable" i uni0308
Substitution2: "'smcp' +wYy7OMeQxdDBHAAA +wYzWFQAA +swC7OMeQuFwA lookup 3 subtable" Idieresis.sc
EndChar

StartChar: eth
Encoding: 240 240 176
Width: 575
GlyphClass: 2
Flags: MW
TeX: 690 0
HStem: -5 40<280 301.5 280 342.5> 416 37<265 308 214 311> 655 40
VStem: 31 128<185.5 215 215 251 185.5 294> 414 128<195.5 236 236 294 139.5 301.5>
LayerCount: 2
Fore
SplineSet
31 219 m 0
 31 369 146 453 282 453 c 0
 334 453 365 434 393 411 c 1
 367 480 333 523 286 568 c 1
 285 568 l 1
 226 531 203 519 193 519 c 0
 187 519 184 523 181 528 c 0
 178 533 176 537 175 543 c 0
 175 554 181 556 250 596 c 1
 205 624 167 645 108 655 c 0
 89 658 83 664 83 671 c 0
 83 681 92 695 136 695 c 0
 247 695 314 646 329 646 c 0
 345 646 408 692 422 692 c 0
 432 692 443 680 443 669 c 0
 443 661 445 656 371 617 c 1
 396 598 413 585 440 555 c 0
 538 447 542 330 542 294 c 2
 542 236 l 2
 542 43 399 -5 286 -5 c 0
 131 -5 31 84 31 219 c 0
159 215 m 2
 159 156 162 63 251 40 c 0
 263 37 274 35 286 35 c 0
 317 35 352 46 376 71 c 0
 413 110 414 173 414 218 c 0
 414 385 337 416 285 416 c 0
 245 416 213 399 193 377 c 0
 163 343 160 294 159 251 c 2
 159 215 l 2
EndSplineSet
Substitution2: "'smcp' +wYy7OMeQxdDBHAAA +wYzWFQAA +swC7OMeQuFwA lookup 3 subtable" Eth.sc
EndChar

StartChar: ntilde
Encoding: 241 241 177
Width: 638
GlyphClass: 2
Flags: MW
TeX: 648 0
HStem: 0 47<45 114> 395 47<45 76> 414 36<345.5 394> 524 74<392 426.5> 558 74<233.5 269>
VStem: 114 103<342 356 356 375.5> 114 114<47 256 47 356 47 375.5> 432 114<47 306 47 317 47 355>
AnchorPoint: "Anchor-5" 330 615 basechar 0
AnchorPoint: "Anchor-4" 330 0 basechar 0
LayerCount: 2
Fore
SplineSet
139 549 m 1x10
 187 601 207 632 260 632 c 0x08
 316 632 364 598 420 598 c 0x10
 454 598 470 610 495 632 c 1x08
 522 607 l 1
 474 556 453 524 400 524 c 0x10
 344 524 297 558 241 558 c 0x08
 207 558 190 546 165 524 c 1
 139 549 l 1x10
45 0 m 1xa3
 45 47 l 1
 114 47 l 1xa3
 114 356 l 2
 114 395 107 395 45 395 c 1
 45 442 l 1xc5
 217 450 l 1
 217 342 l 1xa5
 243 393 296 450 392 450 c 0
 492 450 546 411 546 306 c 2
 546 47 l 1
 615 47 l 1
 615 0 l 1
 587 1 528 3 489 3 c 0
 451 3 391 1 363 0 c 1
 363 47 l 1
 432 47 l 1
 432 317 l 2
 432 393 411 414 377 414 c 0
 314 414 228 365 228 256 c 2
 228 47 l 1
 297 47 l 1
 297 0 l 1
 269 1 210 3 171 3 c 0
 133 3 73 1 45 0 c 1xa3
EndSplineSet
Substitution2: "'smcp' +wYy7OMeQxdDBHAAA +wYzWFQAA +swC7OMeQuFwA lookup 3 subtable" Ntilde.sc
EndChar

StartChar: ograve
Encoding: 242 242 178
Width: 575
GlyphClass: 2
Flags: MW
TeX: 648 0
HStem: -6 40<223.5 350.5 223.5 371> 417 36<262.5 308> 494 168<219 370>
VStem: 32 128<185.5 251.5 185.5 284.5> 176 219<534 614.5> 414 128<185.5 253>
AnchorPoint: "Anchor-5" 286 642 basechar 0
AnchorPoint: "Anchor-4" 287 0 basechar 0
LayerCount: 2
Fore
SplineSet
176 599 m 0
 176 630 203 662 235 662 c 0
 261 662 267 652 356 570 c 2
 395 534 l 1
 370 494 l 1
 201 552 176 553 176 599 c 0
32 218 m 0
 32 351 123 453 287 453 c 0
 450 453 542 352 542 218 c 0
 542 95 455 -6 287 -6 c 0
 120 -6 32 94 32 218 c 0
160 229 m 0
 160 142 160 34 287 34 c 0
 414 34 414 142 414 229 c 0
 414 277 414 332 393 366 c 0
 371 401 329 417 287 417 c 0
 238 417 196 396 177 359 c 0
 160 325 160 274 160 229 c 0
EndSplineSet
Substitution2: "'locl' +rW2sAAAA,+ycDF7QAA +rODHINYV in +t3zS9AAA +x5AA lookup 13 subtable" ograve.vn
AlternateSubs2: "'ss01' +wqTQwMd8wTjSuAAA-1 lookup 12 subtable" ograve.vn
AlternateSubs2: "'salt' +wqTQwMd8ua0A +swDFSNYV in +t3zS9AAA +x5AA lookup 11 subtable" ograve.vn
Substitution2: "'smcp' +wYy7OMeQxdDBHAAA +wYzWFQAA +swC7OMeQuFwA lookup 3 subtable" Ograve.sc
EndChar

StartChar: oacute
Encoding: 243 243 179
Width: 575
GlyphClass: 2
Flags: MW
TeX: 648 0
HStem: -6 40<223.5 350.5 223.5 371> 417 36<262.5 308>
VStem: 32 128<185.5 251.5 185.5 284.5> 414 128<185.5 253>
AnchorPoint: "Anchor-5" 286 642 basechar 0
AnchorPoint: "Anchor-4" 287 0 basechar 0
LayerCount: 2
Fore
SplineSet
178 535 m 1
 306 653 311 662 338 662 c 0
 370 662 397 630 397 599 c 0
 397 553 368 551 203 494 c 1
 178 535 l 1
32 218 m 0
 32 351 123 453 287 453 c 0
 450 453 542 352 542 218 c 0
 542 95 455 -6 287 -6 c 0
 120 -6 32 94 32 218 c 0
160 229 m 0
 160 142 160 34 287 34 c 0
 414 34 414 142 414 229 c 0
 414 277 414 332 393 366 c 0
 371 401 329 417 287 417 c 0
 238 417 196 396 177 359 c 0
 160 325 160 274 160 229 c 0
EndSplineSet
Substitution2: "'locl' +rW2sAAAA,+ycDF7QAA +rODHINYV in +t3zS9AAA +x5AA lookup 13 subtable" oacute.vn
AlternateSubs2: "'ss01' +wqTQwMd8wTjSuAAA-1 lookup 12 subtable" oacute.vn
AlternateSubs2: "'salt' +wqTQwMd8ua0A +swDFSNYV in +t3zS9AAA +x5AA lookup 11 subtable" oacute.vn
Substitution2: "'smcp' +wYy7OMeQxdDBHAAA +wYzWFQAA +swC7OMeQuFwA lookup 3 subtable" Oacute.sc
EndChar

StartChar: ocircumflex
Encoding: 244 244 180
Width: 575
GlyphClass: 2
Flags: MW
TeX: 648 0
HStem: -6 40<223.5 350.5 223.5 371> 417 36<262.5 308> 474 184<158 287 286 414>
VStem: 32 128<185.5 251.5 185.5 284.5> 127 318<510 510> 414 128<185.5 253>
AnchorPoint: "Anchor-5" 286 638 basechar 0
AnchorPoint: "Anchor-4" 287 0 basechar 0
LayerCount: 2
Fore
SplineSet
127 510 m 1x28
 286 658 l 1
 287 658 l 1
 445 510 l 1
 414 474 l 1
 287 576 l 1
 286 576 l 1
 158 474 l 1
 127 510 l 1x28
32 218 m 0xd4
 32 351 123 453 287 453 c 0
 450 453 542 352 542 218 c 0
 542 95 455 -6 287 -6 c 0
 120 -6 32 94 32 218 c 0xd4
160 229 m 0
 160 142 160 34 287 34 c 0
 414 34 414 142 414 229 c 0
 414 277 414 332 393 366 c 0
 371 401 329 417 287 417 c 0
 238 417 196 396 177 359 c 0
 160 325 160 274 160 229 c 0
EndSplineSet
Substitution2: "'locl' +rW2sAAAA,+ycDF7QAA +rODHINYV in +t3zS9AAA +x5AA lookup 13 subtable" ocircumflex.vn
AlternateSubs2: "'ss01' +wqTQwMd8wTjSuAAA-1 lookup 12 subtable" ocircumflex.vn
AlternateSubs2: "'salt' +wqTQwMd8ua0A +swDFSNYV in +t3zS9AAA +x5AA lookup 11 subtable" ocircumflex.vn
Substitution2: "'smcp' +wYy7OMeQxdDBHAAA +wYzWFQAA +swC7OMeQuFwA lookup 3 subtable" Ocircumflex.sc
EndChar

StartChar: otilde
Encoding: 245 245 181
Width: 575
GlyphClass: 2
Flags: MW
TeX: 648 0
HStem: -6 40<223.5 350.5 223.5 371> 417 36<262.5 308> 524 74<348 382.5> 558 74<189.5 225>
VStem: 32 128<185.5 251.5 185.5 284.5> 414 128<185.5 253>
AnchorPoint: "Anchor-5" 286 612 basechar 0
AnchorPoint: "Anchor-4" 287 0 basechar 0
LayerCount: 2
Fore
SplineSet
95 549 m 1x20
 143 601 163 632 216 632 c 0x10
 272 632 320 598 376 598 c 0x20
 410 598 426 610 451 632 c 1x10
 478 607 l 1
 430 556 409 524 356 524 c 0x20
 300 524 253 558 197 558 c 0x10
 163 558 146 546 121 524 c 1
 95 549 l 1x20
32 218 m 0xcc
 32 351 123 453 287 453 c 0
 450 453 542 352 542 218 c 0
 542 95 455 -6 287 -6 c 0
 120 -6 32 94 32 218 c 0xcc
160 229 m 0
 160 142 160 34 287 34 c 0
 414 34 414 142 414 229 c 0
 414 277 414 332 393 366 c 0
 371 401 329 417 287 417 c 0
 238 417 196 396 177 359 c 0
 160 325 160 274 160 229 c 0
EndSplineSet
Substitution2: "'locl' +rW2sAAAA,+ycDF7QAA +rODHINYV in +t3zS9AAA +x5AA lookup 13 subtable" otilde.vn
AlternateSubs2: "'ss01' +wqTQwMd8wTjSuAAA-1 lookup 12 subtable" otilde.vn
AlternateSubs2: "'salt' +wqTQwMd8ua0A +swDFSNYV in +t3zS9AAA +x5AA lookup 11 subtable" otilde.vn
Substitution2: "'smcp' +wYy7OMeQxdDBHAAA +wYzWFQAA +swC7OMeQuFwA lookup 3 subtable" Otilde.sc
EndChar

StartChar: odieresis
Encoding: 246 246 182
Width: 575
GlyphClass: 2
Flags: MW
TeX: 690 0
HStem: -6 40<223.5 350.5 223.5 371> 417 36<262.5 308> 530 156<154.5 195.5 152 196 377.5 417>
VStem: 32 128<185.5 251.5 185.5 284.5> 97 155<586.5 627.5> 321 155<585.5 629.5> 414 128<185.5 253>
AnchorPoint: "Anchor-5" 286 666 basechar 0
AnchorPoint: "Anchor-4" 287 0 basechar 0
LayerCount: 2
Fore
SplineSet
97 608 m 0x2c
 97 647 129 686 175 686 c 0
 216 686 252 653 252 608 c 0
 252 565 217 530 175 530 c 0
 134 530 97 562 97 608 c 0x2c
321 608 m 0
 321 651 356 686 398 686 c 0
 439 686 476 653 476 608 c 0
 476 561 436 530 398 530 c 0
 357 530 321 563 321 608 c 0
32 218 m 0xd2
 32 351 123 453 287 453 c 0
 450 453 542 352 542 218 c 0
 542 95 455 -6 287 -6 c 0
 120 -6 32 94 32 218 c 0xd2
160 229 m 0
 160 142 160 34 287 34 c 0
 414 34 414 142 414 229 c 0
 414 277 414 332 393 366 c 0
 371 401 329 417 287 417 c 0
 238 417 196 396 177 359 c 0
 160 325 160 274 160 229 c 0
EndSplineSet
Substitution2: "'smcp' +wYy7OMeQxdDBHAAA +wYzWFQAA +swC7OMeQuFwA lookup 3 subtable" Odieresis.sc
EndChar

StartChar: divide
Encoding: 247 247 183
Width: 894
GlyphClass: 2
Flags: MW
TeX: 633 133
HStem: -89 188<421 471> 220 60<84.5 785 114 785 785 787> 400 188<421 471>
VStem: 352 188<-22 29 -22 32 467 518>
LayerCount: 2
Fore
SplineSet
64 250 m 0
 64 268 78 277 89 279 c 0
 97 281 106 280 114 280 c 2
 785 280 l 2
 791 280 798 281 804 279 c 0
 817 276 828 264 828 250 c 0
 828 222 802 220 787 220 c 2
 102 220 l 2
 67 220 64 242 64 250 c 0
352 5 m 0
 352 59 396 99 446 99 c 0
 502 99 540 53 540 5 c 0
 540 -49 496 -89 446 -89 c 0
 396 -89 352 -49 352 5 c 0
352 494 m 0
 352 548 396 588 446 588 c 0
 502 588 540 542 540 494 c 0
 540 440 496 400 446 400 c 0
 396 400 352 440 352 494 c 0
EndSplineSet
EndChar

StartChar: oslash
Encoding: 248 248 184
Width: 575
GlyphClass: 2
Flags: MW
TeX: 541 97
HStem: -5 36<265.5 357.5 261.5 364.5> 416 37<263.5 304>
VStem: 31 114<197.5 209 209 222 187 286.5> 428 114<208 231 231 239 151.5 256>
LayerCount: 2
Fore
SplineSet
31 219 m 0
 31 354 126 453 286 453 c 0
 330 453 366 445 397 434 c 1
 469 551 l 1
 470 551 l 1
 500 532 l 1
 500 531 l 1
 430 419 l 1
 532 363 542 259 542 219 c 0
 542 84 443 -5 286 -5 c 0
 245 -5 209 1 177 12 c 1
 104 -107 l 1
 73 -88 l 1
 73 -87 l 1
 143 26 l 1
 43 80 31 176 31 219 c 0
145 209 m 2
 145 165 146 116 175 77 c 1
 371 393 l 1
 344 408 322 416 286 416 c 0
 241 416 199 401 174 367 c 0
 147 331 145 280 145 222 c 2
 145 209 l 2
202 52 m 1
 209 48 236 31 287 31 c 0
 428 31 428 148 428 208 c 2
 428 231 l 2
 428 281 427 323 399 367 c 1
 398 367 l 1
 202 52 l 1
EndSplineSet
Substitution2: "'smcp' +wYy7OMeQxdDBHAAA +wYzWFQAA +swC7OMeQuFwA lookup 3 subtable" Oslash.sc
EndChar

StartChar: ugrave
Encoding: 249 249 185
Width: 638
GlyphClass: 2
Flags: MW
TeX: 648 0
HStem: -6 36<269.5 307> 0 47<584 615> 395 47<45 76> 430 20<228 228 546 546> 494 168<247 398>
VStem: 114 114<123 356 356 375.5> 204 219<534 614.5> 432 114<165 356 356 375.5>
AnchorPoint: "Anchor-5" 330 645 basechar 0
AnchorPoint: "Anchor-4" 330 0 basechar 0
LayerCount: 2
Fore
SplineSet
204 599 m 0x0a
 204 630 231 662 263 662 c 0
 289 662 295 652 384 570 c 2
 423 534 l 1
 398 494 l 1
 229 552 204 553 204 599 c 0x0a
45 395 m 1xa5
 45 442 l 1xa5
 228 450 l 1x15
 228 109 l 2
 228 55 231 30 308 30 c 0
 381 30 432 83 432 165 c 2
 432 356 l 2
 432 395 425 395 363 395 c 1
 363 442 l 1xa5
 546 450 l 1
 546 86 l 2
 546 47 553 47 615 47 c 1
 615 0 l 1x55
 438 -6 l 1
 438 72 l 1
 392 -6 320 -6 294 -6 c 0
 195 -6 114 16 114 123 c 2
 114 356 l 2
 114 395 107 395 45 395 c 1xa5
EndSplineSet
Substitution2: "'locl' +rW2sAAAA,+ycDF7QAA +rODHINYV in +t3zS9AAA +x5AA lookup 13 subtable" ugrave.vn
AlternateSubs2: "'ss01' +wqTQwMd8wTjSuAAA-1 lookup 12 subtable" ugrave.vn
AlternateSubs2: "'salt' +wqTQwMd8ua0A +swDFSNYV in +t3zS9AAA +x5AA lookup 11 subtable" ugrave.vn
Substitution2: "'smcp' +wYy7OMeQxdDBHAAA +wYzWFQAA +swC7OMeQuFwA lookup 3 subtable" Ugrave.sc
EndChar

StartChar: uacute
Encoding: 250 250 186
Width: 638
GlyphClass: 2
Flags: MW
TeX: 648 0
HStem: -6 36<269.5 307> 0 47<584 615> 395 47<45 76> 430 20<228 228 546 546> 494 168<247 399.5>
VStem: 114 114<123 356 356 375.5> 222 218<535 613> 432 114<165 356 356 375.5>
AnchorPoint: "Anchor-5" 330 645 basechar 0
AnchorPoint: "Anchor-4" 330 0 basechar 0
LayerCount: 2
Fore
SplineSet
222 535 m 1x0a
 350 653 355 662 382 662 c 0
 417 662 440 627 440 599 c 0
 440 553 411 551 247 494 c 1
 222 535 l 1x0a
45 395 m 1xa5
 45 442 l 1xa5
 228 450 l 1x15
 228 109 l 2
 228 55 231 30 308 30 c 0
 381 30 432 83 432 165 c 2
 432 356 l 2
 432 395 425 395 363 395 c 1
 363 442 l 1xa5
 546 450 l 1
 546 86 l 2
 546 47 553 47 615 47 c 1
 615 0 l 1x55
 438 -6 l 1
 438 72 l 1
 392 -6 320 -6 294 -6 c 0
 195 -6 114 16 114 123 c 2
 114 356 l 2
 114 395 107 395 45 395 c 1xa5
EndSplineSet
Substitution2: "'locl' +rW2sAAAA,+ycDF7QAA +rODHINYV in +t3zS9AAA +x5AA lookup 13 subtable" uacute.vn
AlternateSubs2: "'ss01' +wqTQwMd8wTjSuAAA-1 lookup 12 subtable" uacute.vn
AlternateSubs2: "'salt' +wqTQwMd8ua0A +swDFSNYV in +t3zS9AAA +x5AA lookup 11 subtable" uacute.vn
Substitution2: "'smcp' +wYy7OMeQxdDBHAAA +wYzWFQAA +swC7OMeQuFwA lookup 3 subtable" Uacute.sc
EndChar

StartChar: ucircumflex
Encoding: 251 251 187
Width: 638
GlyphClass: 2
Flags: MW
TeX: 648 0
HStem: -6 36<269.5 307> 0 47<584 615> 395 47<45 76> 430 20<228 228 546 546> 474 184<201 330 329 457>
VStem: 114 114<123 356 356 375.5> 170 318<510 510> 432 114<165 356 356 375.5>
AnchorPoint: "Anchor-5" 330 641 basechar 0
AnchorPoint: "Anchor-4" 330 0 basechar 0
LayerCount: 2
Fore
SplineSet
170 510 m 1x0a
 329 658 l 1
 330 658 l 1
 488 510 l 1
 457 474 l 1
 330 576 l 1
 329 576 l 1
 201 474 l 1
 170 510 l 1x0a
45 395 m 1xa5
 45 442 l 1xa5
 228 450 l 1x15
 228 109 l 2
 228 55 231 30 308 30 c 0
 381 30 432 83 432 165 c 2
 432 356 l 2
 432 395 425 395 363 395 c 1
 363 442 l 1xa5
 546 450 l 1
 546 86 l 2
 546 47 553 47 615 47 c 1
 615 0 l 1x55
 438 -6 l 1
 438 72 l 1
 392 -6 320 -6 294 -6 c 0
 195 -6 114 16 114 123 c 2
 114 356 l 2
 114 395 107 395 45 395 c 1xa5
EndSplineSet
Substitution2: "'smcp' +wYy7OMeQxdDBHAAA +wYzWFQAA +swC7OMeQuFwA lookup 3 subtable" Ucircumflex.sc
EndChar

StartChar: udieresis
Encoding: 252 252 188
Width: 638
GlyphClass: 2
Flags: MW
TeX: 690 0
HStem: -6 36<269.5 307> 0 47<584 615> 395 47<45 76> 430 20<228 228 546 546> 530 156<198.5 239.5 196 240 421.5 461>
VStem: 114 114<123 356 356 375.5> 141 155<586.5 627.5> 365 155<585.5 629.5> 432 114<165 356 356 375.5>
AnchorPoint: "Anchor-5" 330 669 basechar 0
AnchorPoint: "Anchor-4" 330 0 basechar 0
LayerCount: 2
Fore
SplineSet
141 608 m 0x0b
 141 647 173 686 219 686 c 0
 260 686 296 653 296 608 c 0
 296 565 261 530 219 530 c 0
 178 530 141 562 141 608 c 0x0b
365 608 m 0
 365 651 400 686 442 686 c 0
 483 686 520 653 520 608 c 0
 520 561 480 530 442 530 c 0
 401 530 365 563 365 608 c 0
45 395 m 1xa480
 45 442 l 1xa480
 228 450 l 1x1480
 228 109 l 2
 228 55 231 30 308 30 c 0
 381 30 432 83 432 165 c 2
 432 356 l 2
 432 395 425 395 363 395 c 1
 363 442 l 1xa480
 546 450 l 1
 546 86 l 2
 546 47 553 47 615 47 c 1
 615 0 l 1x5480
 438 -6 l 1
 438 72 l 1
 392 -6 320 -6 294 -6 c 0
 195 -6 114 16 114 123 c 2
 114 356 l 2
 114 395 107 395 45 395 c 1xa480
EndSplineSet
Substitution2: "'smcp' +wYy7OMeQxdDBHAAA +wYzWFQAA +swC7OMeQuFwA lookup 3 subtable" Udieresis.sc
EndChar

StartChar: yacute
Encoding: 253 253 189
Width: 606
GlyphClass: 2
Flags: MW
TeX: 648 194
ItalicCorrection: 15
HStem: -200 36<122 164.5 122 167.5> 397 47<26 90 26 26>
VStem: 22 115<-124.5 -90.5 -124.5 -88.5>
AnchorPoint: "Anchor-5" 302 651 basechar 0
AnchorPoint: "Anchor-4" 301 -194 basechar 0
LayerCount: 2
Fore
SplineSet
259 535 m 1
 387 653 392 662 419 662 c 0
 451 662 477 630 477 599 c 0
 477 553 448 551 283 494 c 1
 259 535 l 1
22 -108 m 0
 22 -69 51 -50 79 -50 c 0
 113 -50 137 -74 137 -107 c 0
 137 -142 114 -156 105 -160 c 1
 113 -163 115 -164 129 -164 c 0
 200 -164 232 -96 254 -48 c 2
 277 0 l 1
 90 397 l 1
 26 397 l 1
 26 444 l 1
 67 443 112 441 140 441 c 0
 141 441 231 442 264 444 c 1
 264 397 l 1
 210 397 l 1
 337 127 l 1
 452 373 l 2
 453 374 457 384 457 385 c 0
 457 397 412 397 410 397 c 1
 410 444 l 1
 431 443 476 441 501 441 c 0
 526 441 556 442 580 444 c 1
 580 397 l 1
 516 397 513 390 506 376 c 2
 291 -81 l 2
 264 -138 206 -200 129 -200 c 0
 69 -200 22 -159 22 -108 c 0
EndSplineSet
Substitution2: "'locl' +rW2sAAAA,+ycDF7QAA +rODHINYV in +t3zS9AAA +x5AA lookup 13 subtable" yacute.vn
AlternateSubs2: "'ss01' +wqTQwMd8wTjSuAAA-1 lookup 12 subtable" yacute.vn
AlternateSubs2: "'salt' +wqTQwMd8ua0A +swDFSNYV in +t3zS9AAA +x5AA lookup 11 subtable" yacute.vn
Substitution2: "'smcp' +wYy7OMeQxdDBHAAA +wYzWFQAA +swC7OMeQuFwA lookup 3 subtable" Yacute.sc
EndChar

StartChar: thorn
Encoding: 254 254 190
Width: 639
GlyphClass: 2
Flags: MW
TeX: 690 194
HStem: -195 48<35 105> -5 36<321.5 364 305.5 420.5> 409 41<328 385> 644 47<35 42 35 35> 680 20G<213 213>
VStem: 105 114<-147 40 119 120 120 330> 471 128<152 281>
LayerCount: 2
Fore
SplineSet
35 -147 m 1xee
 105 -147 l 1
 105 611 l 2
 104 641 89 644 42 644 c 2
 35 644 l 1
 35 691 l 1xf6
 213 700 l 1
 213 401 l 1
 241 421 290 450 366 450 c 0
 499 450 599 363 599 223 c 0
 599 81 492 -5 349 -5 c 0
 294 -5 257 11 219 40 c 1
 219 -147 l 1
 288 -147 l 1
 288 -195 l 1
 244 -193 201 -192 157 -192 c 0
 108 -192 72 -194 35 -195 c 1
 35 -147 l 1xee
218 113 m 0
 218 81 274 31 337 31 c 0
 391 31 471 69 471 224 c 0
 471 338 422 409 348 409 c 0
 284 409 235 370 223 350 c 0
 219 344 219 337 219 330 c 2
 219 120 l 2
 219 118 218 116 218 113 c 0
EndSplineSet
Substitution2: "'smcp' +wYy7OMeQxdDBHAAA +wYzWFQAA +swC7OMeQuFwA lookup 3 subtable" Thorn.sc
EndChar

StartChar: ydieresis
Encoding: 255 255 191
Width: 606
GlyphClass: 2
Flags: MW
TeX: 690 194
ItalicCorrection: 15
HStem: -200 36<122 164.5 122 167.5> 397 47<26 90 26 26> 530 156<172 211.5 172 213 394.5 434.5>
VStem: 22 115<-124.5 -90.5 -124.5 -88.5> 114 155<586.5 630.5 586.5 631.5> 337 155<588.5 629.5>
AnchorPoint: "Anchor-5" 302 675 basechar 0
AnchorPoint: "Anchor-4" 301 -194 basechar 0
LayerCount: 2
Fore
SplineSet
114 608 m 0xec
 114 655 153 686 191 686 c 0
 232 686 269 653 269 608 c 0
 269 565 234 530 192 530 c 0
 151 530 114 563 114 608 c 0xec
337 608 m 0
 337 651 372 686 414 686 c 0
 455 686 492 653 492 608 c 0
 492 569 461 530 415 530 c 0
 374 530 337 563 337 608 c 0
22 -108 m 0xd0
 22 -69 51 -50 79 -50 c 0
 113 -50 137 -74 137 -107 c 0
 137 -142 114 -156 105 -160 c 1
 113 -163 115 -164 129 -164 c 0
 200 -164 232 -96 254 -48 c 2
 277 0 l 1
 90 397 l 1
 26 397 l 1
 26 444 l 1
 67 443 112 441 140 441 c 0
 141 441 231 442 264 444 c 1
 264 397 l 1
 210 397 l 1
 337 127 l 1
 452 373 l 2
 453 374 457 384 457 385 c 0
 457 397 412 397 410 397 c 1
 410 444 l 1
 431 443 476 441 501 441 c 0
 526 441 556 442 580 444 c 1
 580 397 l 1
 516 397 513 390 506 376 c 2
 291 -81 l 2
 264 -138 206 -200 129 -200 c 0
 69 -200 22 -159 22 -108 c 0xd0
EndSplineSet
Substitution2: "'smcp' +wYy7OMeQxdDBHAAA +wYzWFQAA +swC7OMeQuFwA lookup 3 subtable" Ydieresis.sc
EndChar

StartChar: Amacron
Encoding: 256 256 192
Width: 869
GlyphClass: 2
Flags: MW
TeX: 842 0
HStem: 0 47<41 62> 193 47<275 503 275 523 255 503> 678 20<420 442.5> 791 51<201 667 201 667>
AnchorPoint: "Anchor-5" 434 821 basechar 0
AnchorPoint: "Anchor-4" 434 0 basechar 0
LayerCount: 2
Fore
SplineSet
201 791 m 1
 201 842 l 1
 667 842 l 1
 667 791 l 1
 201 791 l 1
41 0 m 1
 41 47 l 1
 62 47 l 2
 138 47 141 55 147 70 c 2
 395 672 l 2
 402 690 406 698 434 698 c 0
 451 698 463 698 474 672 c 2
 730 47 l 1
 827 47 l 1
 827 0 l 1
 792 3 704 3 664 3 c 0
 621 3 526 3 488 0 c 1
 488 47 l 1
 583 47 l 1
 523 193 l 1
 255 193 l 1
 205 72 l 2
 204 71 201 61 201 60 c 0
 201 47 288 47 290 47 c 1
 290 0 l 1
 253 3 197 3 158 3 c 0
 127 3 79 1 41 0 c 1
275 240 m 1
 503 240 l 1
 389 518 l 1
 275 240 l 1
EndSplineSet
EndChar

StartChar: amacron
Encoding: 257 257 193
Width: 559
GlyphClass: 2
Flags: MW
TeX: 604 6
HStem: -6 36<214.5 252.5 214.5 265> 0 47<478 538.5> 234 31<357 357> 417 36<241 284.5> 552 52<43 458 43 458>
VStem: 32 117<87 163 87 180.5> 72 125<340 376 340 405> 357 114<139 234 234 234 265 299>
AnchorPoint: "Anchor-5" 251 584 basechar 0
AnchorPoint: "Anchor-4" 251 0 basechar 0
LayerCount: 2
Fore
SplineSet
43 552 m 1x08
 43 604 l 1
 458 604 l 1
 458 552 l 1
 43 552 l 1x08
32 108 m 0xb5
 32 253 286 262 357 265 c 1
 357 299 l 2
 357 375 322 417 247 417 c 0
 235 417 203 416 175 410 c 1
 178 408 197 391 197 361 c 0
 197 319 165 298 134 298 c 0
 107 298 72 317 72 361 c 0
 72 449 194 453 251 453 c 0
 400 453 471 388 471 299 c 2
 471 84 l 2
 471 61 471 48 532 47 c 0
 545 47 558 47 558 24 c 0
 558 0 546 0 526 0 c 2
 478 0 l 2x73
 374 0 374 46 374 77 c 1
 352 35 305 -6 225 -6 c 0
 156 -6 32 12 32 108 c 0xb5
149 109 m 0xb5
 149 65 189 30 240 30 c 0
 265 30 357 43 357 139 c 2
 357 234 l 1
 307 231 149 217 149 109 c 0xb5
EndSplineSet
EndChar

StartChar: Abreve
Encoding: 258 258 194
Width: 869
GlyphClass: 2
Flags: MW
TeX: 894 0
HStem: 0 47<41 62> 193 47<275 503 275 523 255 503> 678 20<420 442.5> 755 63<393.5 477.5>
VStem: 256 36<894 894> 575 36<894 894>
AnchorPoint: "Anchor-5" 434 873 basechar 0
AnchorPoint: "Anchor-4" 434 0 basechar 0
LayerCount: 2
Fore
SplineSet
256 894 m 1
 292 894 l 1
 297 841 350 818 432 818 c 0
 546 818 572 858 575 894 c 1
 611 894 l 1
 607 802 521 755 434 755 c 0
 353 755 260 797 256 894 c 1
41 0 m 1
 41 47 l 1
 62 47 l 2
 138 47 141 55 147 70 c 2
 395 672 l 2
 402 690 406 698 434 698 c 0
 451 698 463 698 474 672 c 2
 730 47 l 1
 827 47 l 1
 827 0 l 1
 792 3 704 3 664 3 c 0
 621 3 526 3 488 0 c 1
 488 47 l 1
 583 47 l 1
 523 193 l 1
 255 193 l 1
 205 72 l 2
 204 71 201 61 201 60 c 0
 201 47 288 47 290 47 c 1
 290 0 l 1
 253 3 197 3 158 3 c 0
 127 3 79 1 41 0 c 1
275 240 m 1
 503 240 l 1
 389 518 l 1
 275 240 l 1
EndSplineSet
Substitution2: "'locl' +rW2sAAAA,+ycDF7QAA +rODHINYV in +t3zS9AAA +x5AA lookup 13 subtable" Abreve.vn
AlternateSubs2: "'ss01' +wqTQwMd8wTjSuAAA-1 lookup 12 subtable" Abreve.vn
AlternateSubs2: "'salt' +wqTQwMd8ua0A +swDFSNYV in +t3zS9AAA +x5AA lookup 11 subtable" Abreve.vn
Substitution2: "'c2sc' +swC7OMeQxdDBHAAA +wYzWFbMAuzjHkLhc lookup 4 subtable" Abreve.sc
EndChar

StartChar: abreve
Encoding: 259 259 195
Width: 559
GlyphClass: 2
Flags: MW
TeX: 648 0
HStem: -6 36<214.5 252.5 214.5 265> 0 47<478 538.5> 234 31<357 357> 417 36<241 284.5> 494 62<267.5 304 267.5 327.5> 633 20<108 144 144 144 427 463 463 463>
VStem: 32 117<87 163 87 180.5> 72 125<340 376 340 405> 108 36<653 653> 357 114<139 234 234 234 265 299> 427 36<653 653>
AnchorPoint: "Anchor-5" 251 633 basechar 0
AnchorPoint: "Anchor-4" 251 0 basechar 0
LayerCount: 2
Fore
SplineSet
108 653 m 1x0ca0
 144 653 l 1
 150 568 249 556 286 556 c 0
 322 556 420 568 427 653 c 1
 463 653 l 1
 459 548 369 494 286 494 c 0
 198 494 111 553 108 653 c 1x0ca0
32 108 m 0xb240
 32 253 286 262 357 265 c 1
 357 299 l 2
 357 375 322 417 247 417 c 0
 235 417 203 416 175 410 c 1
 178 408 197 391 197 361 c 0
 197 319 165 298 134 298 c 0
 107 298 72 317 72 361 c 0
 72 449 194 453 251 453 c 0
 400 453 471 388 471 299 c 2
 471 84 l 2
 471 61 471 48 532 47 c 0
 545 47 558 47 558 24 c 0
 558 0 546 0 526 0 c 2
 478 0 l 2x7140
 374 0 374 46 374 77 c 1
 352 35 305 -6 225 -6 c 0
 156 -6 32 12 32 108 c 0xb240
149 109 m 0xb240
 149 65 189 30 240 30 c 0
 265 30 357 43 357 139 c 2
 357 234 l 1
 307 231 149 217 149 109 c 0xb240
EndSplineSet
Substitution2: "'locl' +rW2sAAAA,+ycDF7QAA +rODHINYV in +t3zS9AAA +x5AA lookup 13 subtable" abreve.vn
AlternateSubs2: "'ss01' +wqTQwMd8wTjSuAAA-1 lookup 12 subtable" abreve.vn
AlternateSubs2: "'salt' +wqTQwMd8ua0A +swDFSNYV in +t3zS9AAA +x5AA lookup 11 subtable" abreve.vn
Substitution2: "'smcp' +wYy7OMeQxdDBHAAA +wYzWFQAA +swC7OMeQuFwA lookup 3 subtable" Abreve.sc
EndChar

StartChar: Aogonek
Encoding: 260 260 196
Width: 869
GlyphClass: 3
Flags: MW
TeX: 690 194
HStem: -205 68<713.5 729> 0 48<40 87 822 827> 192 48<274 503 274 522 254 503> 678 20G<420 445.5>
VStem: 585 80<-85 -79.5>
AnchorPoint: "Anchor-5" 433 697 basechar 0
LayerCount: 2
Fore
SplineSet
40 0 m 1
 40 48 l 1
 134 48 138 53 148 75 c 2
 393 670 l 2
 401 689 407 698 433 698 c 0
 458 698 466 690 475 668 c 2
 730 48 l 1
 827 48 l 1
 827 0 l 1
 817 0 751 2 731 2 c 0
 715 2 708 2 690 -16 c 0
 675 -31 665 -47 665 -68 c 0
 665 -102 697 -137 730 -137 c 0
 754 -137 763 -117 778 -117 c 0
 786 -117 804 -126 804 -140 c 0
 804 -161 757 -205 701 -205 c 0
 635 -205 585 -154 585 -100 c 0
 585 -59 608 -27 641 3 c 1
 487 0 l 1
 487 48 l 1
 582 48 l 1
 522 192 l 1
 254 192 l 1
 214 95 203 71 203 62 c 0
 203 53 222 48 289 48 c 1
 289 0 l 1
 245 2 200 3 156 3 c 0
 144 3 110 3 40 0 c 1
274 240 m 1
 503 240 l 1
 389 518 l 1
 274 240 l 1
EndSplineSet
Ligature2: "'liga' +1FzJAAAA +1WnHTMeQ in +t3zS9AAA +x5AA lookup 9 subtable" A uni0328
Substitution2: "'c2sc' +swC7OMeQxdDBHAAA +wYzWFbMAuzjHkLhc lookup 4 subtable" Aogonek.sc
EndChar

StartChar: aogonek
Encoding: 261 261 197
Width: 559
GlyphClass: 2
Flags: MW
TeX: 444 194
HStem: -205 69<469 484.5> -5 36<215.5 259 215.5 260.5> 234 31<357 357> 416 37<241.5 292>
VStem: 31 118<86.5 118 86.5 171> 71 125<344.5 374 342.5 402> 339 80<-88 -73.5> 357 114<141 234 234 234 265 290>
AnchorPoint: "Anchor-5" 251 453 basechar 0
LayerCount: 2
Fore
SplineSet
31 109 m 0xfa
 31 233 233 264 357 265 c 1
 357 292 l 2
 357 357 335 416 249 416 c 0
 234 416 204 415 174 410 c 1
 185 398 196 387 196 361 c 0
 196 324 167 299 133 299 c 0
 96 299 71 327 71 362 c 0
 71 442 170 453 251 453 c 0
 433 453 463 358 469 326 c 0
 471 314 471 302 471 290 c 2
 471 93 l 2xf5
 471 86 470 77 472 70 c 0
 481 38 542 57 553 39 c 0
 556 34 558 30 558 24 c 0
 558 0 540 0 525 0 c 2
 479 0 l 2
 439 0 419 -44 419 -67 c 0
 419 -109 456 -136 482 -136 c 0
 507 -136 517 -114 532 -114 c 0
 539 -114 558 -124 558 -138 c 0
 558 -154 516 -205 453 -205 c 0
 392 -205 339 -159 339 -100 c 0
 339 -47 380 -8 406 13 c 1
 372 35 374 52 373 78 c 1
 348 29 297 -5 224 -5 c 0
 149 -5 31 15 31 109 c 0xfa
149 110 m 0xf9
 149 63 191 31 240 31 c 0
 278 31 357 51 357 141 c 2
 357 234 l 1
 277 229 196 213 162 156 c 0
 154 142 149 126 149 110 c 0xf9
EndSplineSet
Substitution2: "'smcp' +wYy7OMeQxdDBHAAA +wYzWFQAA +swC7OMeQuFwA lookup 3 subtable" Aogonek.sc
EndChar

StartChar: Cacute
Encoding: 262 262 198
Width: 830
GlyphClass: 2
Flags: MW
TeX: 876 0
HStem: -11 47<451 540.5 451 559.5> 650 47<461 500 341.5 541> 752 123
VStem: 64 153<298 371 298 445.5> 358 227<778 827.5> 712 54 719 47
AnchorPoint: "Anchor-5" 465 855 basechar 0
AnchorPoint: "Anchor-4" 466 0 basechar 0
LayerCount: 2
Fore
SplineSet
358 778 m 1x28
 505 871 506 875 528 875 c 2
 529 875 l 2
 561 875 585 843 585 812 c 0
 585 760 534 757 501 752 c 0
 459 745 416 739 374 733 c 1
 358 778 l 1x28
64 343 m 0xd2
 64 548 217 697 466 697 c 0
 534 697 601 679 663 629 c 1
 729 688 l 2
 737 695 739 697 748 697 c 0
 766 697 766 688 766 669 c 2xd2
 766 454 l 2
 766 428 765 426 739 426 c 0
 716 426 715 428 712 447 c 0xd4
 690 574 595 650 487 650 c 0
 435 650 348 639 283 573 c 0
 220 507 217 399 217 343 c 0
 217 253 229 178 276 121 c 0
 328 60 412 36 490 36 c 0
 591 36 712 97 719 231 c 0
 720 248 729 248 742 248 c 0
 759 248 766 247 766 227 c 0
 766 112 653 -11 466 -11 c 0
 217 -11 64 138 64 343 c 0xd2
EndSplineSet
Substitution2: "'c2sc' +swC7OMeQxdDBHAAA +wYzWFbMAuzjHkLhc lookup 4 subtable" Cacute.sc
EndChar

StartChar: cacute
Encoding: 263 263 199
Width: 511
GlyphClass: 2
Flags: MW
TeX: 648 0
HStem: -6 40<235.5 330.5 235.5 367> 413 40<230.5 312.5>
VStem: 38 128<204 255 204 280> 340 125<340 365.5> 430 48<116 116>
AnchorPoint: "Anchor-5" 291 642 basechar 0
AnchorPoint: "Anchor-4" 286 0 basechar 0
LayerCount: 2
Fore
SplineSet
38 222 m 0xe8
 38 338 112 453 291 453 c 0
 349 453 465 447 465 361 c 0
 465 319 433 298 402 298 c 0
 375 298 340 317 340 361 c 0xf0
 340 370 342 391 360 407 c 1
 347 410 330 413 295 413 c 0
 166 413 166 283 166 227 c 0
 166 181 166 34 305 34 c 0
 356 34 404 53 430 116 c 0
 435 129 436 131 454 131 c 0
 464 131 478 131 478 117 c 0
 478 110 448 -6 286 -6 c 0
 132 -6 38 89 38 222 c 0xe8
195 535 m 1xe0
 321 652 327 662 355 662 c 0
 388 662 413 630 413 599 c 0
 413 554 386 552 219 494 c 1
 195 535 l 1xe0
EndSplineSet
Substitution2: "'smcp' +wYy7OMeQxdDBHAAA +wYzWFQAA +swC7OMeQuFwA lookup 3 subtable" Cacute.sc
EndChar

StartChar: Ccircumflex
Encoding: 264 264 200
Width: 830
GlyphClass: 2
Flags: MW
TeX: 900 11
HStem: -11 47<451 540.5 451 559.5> 650 47<461 500 341.5 541> 736 164<336 465 465 594>
VStem: 64 153<298 371 298 445.5> 308 314<775 775> 712 54 719 47
AnchorPoint: "Anchor-5" 465 880 basechar 0
AnchorPoint: "Anchor-4" 466 0 basechar 0
LayerCount: 2
Fore
SplineSet
308 775 m 1x28
 465 900 l 1
 622 775 l 1
 594 736 l 1
 465 817 l 1
 336 736 l 1
 308 775 l 1x28
64 343 m 0xd2
 64 548 217 697 466 697 c 0
 534 697 601 679 663 629 c 1
 729 688 l 2
 737 695 739 697 748 697 c 0
 766 697 766 688 766 669 c 2xd2
 766 454 l 2
 766 428 765 426 739 426 c 0
 716 426 715 428 712 447 c 0xd4
 690 574 595 650 487 650 c 0
 435 650 348 639 283 573 c 0
 220 507 217 399 217 343 c 0
 217 253 229 178 276 121 c 0
 328 60 412 36 490 36 c 0
 591 36 712 97 719 231 c 0
 720 248 729 248 742 248 c 0
 759 248 766 247 766 227 c 0
 766 112 653 -11 466 -11 c 0
 217 -11 64 138 64 343 c 0xd2
EndSplineSet
EndChar

StartChar: ccircumflex
Encoding: 265 265 201
Width: 511
GlyphClass: 2
Flags: MW
TeX: 658 6
HStem: -6 40<235.5 330.5 235.5 367> 413 40<230.5 312.5> 474 184<163 292 291 419>
VStem: 38 128<204 255 204 280> 132 318<510 510> 340 125<340 365.5> 430 48<116 116>
AnchorPoint: "Anchor-5" 291 638 basechar 0
AnchorPoint: "Anchor-4" 286 0 basechar 0
LayerCount: 2
Fore
SplineSet
132 510 m 1x28
 291 658 l 1
 292 658 l 1
 450 510 l 1
 419 474 l 1
 292 576 l 1
 291 576 l 1
 163 474 l 1
 132 510 l 1x28
38 222 m 0xd2
 38 338 112 453 291 453 c 0
 349 453 465 447 465 361 c 0
 465 319 433 298 402 298 c 0
 375 298 340 317 340 361 c 0xd4
 340 370 342 391 360 407 c 1
 347 410 330 413 295 413 c 0
 166 413 166 283 166 227 c 0
 166 181 166 34 305 34 c 0
 356 34 404 53 430 116 c 0
 435 129 436 131 454 131 c 0
 464 131 478 131 478 117 c 0
 478 110 448 -6 286 -6 c 0
 132 -6 38 89 38 222 c 0xd2
EndSplineSet
EndChar

StartChar: Cdotaccent
Encoding: 266 266 202
Width: 830
GlyphClass: 2
Flags: MW
TeX: 902 11
HStem: -11 47<451 540.5 451 559.5> 650 47<461 500 341.5 541> 746 156<443 486>
VStem: 64 153<298 371 298 445.5> 387 156<802.5 845.5> 712 54 719 47
AnchorPoint: "Anchor-5" 465 882 basechar 0
AnchorPoint: "Anchor-4" 466 0 basechar 0
LayerCount: 2
Fore
SplineSet
387 824 m 0x28
 387 867 421 902 465 902 c 0
 507 902 543 867 543 824 c 0
 543 781 507 746 465 746 c 0
 421 746 387 781 387 824 c 0x28
64 343 m 0xd2
 64 548 217 697 466 697 c 0
 534 697 601 679 663 629 c 1
 729 688 l 2
 737 695 739 697 748 697 c 0
 766 697 766 688 766 669 c 2xd2
 766 454 l 2
 766 428 765 426 739 426 c 0
 716 426 715 428 712 447 c 0xd4
 690 574 595 650 487 650 c 0
 435 650 348 639 283 573 c 0
 220 507 217 399 217 343 c 0
 217 253 229 178 276 121 c 0
 328 60 412 36 490 36 c 0
 591 36 712 97 719 231 c 0
 720 248 729 248 742 248 c 0
 759 248 766 247 766 227 c 0
 766 112 653 -11 466 -11 c 0
 217 -11 64 138 64 343 c 0xd2
EndSplineSet
EndChar

StartChar: cdotaccent
Encoding: 267 267 203
Width: 511
GlyphClass: 2
Flags: MW
TeX: 694 6
HStem: -6 40<235.5 330.5 235.5 367> 413 40<230.5 312.5> 539 155<268 311.5 268 314>
VStem: 38 128<204 255 204 280> 213 156<597.5 636.5> 340 125<340 365.5> 430 48<116 116>
AnchorPoint: "Anchor-5" 291 674 basechar 0
AnchorPoint: "Anchor-4" 286 0 basechar 0
LayerCount: 2
Fore
SplineSet
213 617 m 0x28
 213 656 245 694 291 694 c 0
 332 694 369 661 369 616 c 0
 369 577 337 539 291 539 c 0
 244 539 213 578 213 617 c 0x28
38 222 m 0xd2
 38 338 112 453 291 453 c 0
 349 453 465 447 465 361 c 0
 465 319 433 298 402 298 c 0
 375 298 340 317 340 361 c 0xd4
 340 370 342 391 360 407 c 1
 347 410 330 413 295 413 c 0
 166 413 166 283 166 227 c 0
 166 181 166 34 305 34 c 0
 356 34 404 53 430 116 c 0
 435 129 436 131 454 131 c 0
 464 131 478 131 478 117 c 0
 478 110 448 -6 286 -6 c 0
 132 -6 38 89 38 222 c 0xd2
EndSplineSet
EndChar

StartChar: Ccaron
Encoding: 268 268 204
Width: 830
GlyphClass: 2
Flags: MW
TeX: 894 0
HStem: -11 47<451 540.5 451 559.5> 650 47<461 500 341.5 541> 768 93<491 492 492 495> 878 26<321 333>
VStem: 64 153<298 371 298 445.5> 712 54 719 47
AnchorPoint: "Anchor-5" 465 884 basechar 0
AnchorPoint: "Anchor-4" 466 0 basechar 0
LayerCount: 2
Fore
SplineSet
321 878 m 1xf8
 333 904 l 1
 474 865 484 861 491 861 c 2
 492 861 l 2
 498 861 500 863 648 904 c 1
 660 878 l 1
 505 775 499 768 491 768 c 0
 482 768 485 769 321 878 c 1xf8
64 343 m 0xca
 64 548 217 697 466 697 c 0
 534 697 601 679 663 629 c 1
 729 688 l 2
 737 695 739 697 748 697 c 0
 766 697 766 688 766 669 c 2xca
 766 454 l 2
 766 428 765 426 739 426 c 0
 716 426 715 428 712 447 c 0xcc
 690 574 595 650 487 650 c 0
 435 650 348 639 283 573 c 0
 220 507 217 399 217 343 c 0
 217 253 229 178 276 121 c 0
 328 60 412 36 490 36 c 0
 591 36 712 97 719 231 c 0
 720 248 729 248 742 248 c 0
 759 248 766 247 766 227 c 0
 766 112 653 -11 466 -11 c 0
 217 -11 64 138 64 343 c 0xca
EndSplineSet
Substitution2: "'c2sc' +swC7OMeQxdDBHAAA +wYzWFbMAuzjHkLhc lookup 4 subtable" Ccaron.sc
EndChar

StartChar: ccaron
Encoding: 269 269 205
Width: 511
GlyphClass: 2
Flags: MW
TeX: 648 0
HStem: -6 40<235.5 330.5 235.5 367> 413 40<230.5 312.5> 470 194<134 290 134 289>
VStem: 38 128<204 255 204 280> 340 125<340 365.5> 430 48<116 116>
AnchorPoint: "Anchor-5" 291 644 basechar 0
AnchorPoint: "Anchor-4" 286 0 basechar 0
LayerCount: 2
Fore
SplineSet
117 641 m 1x20
 117 642 l 1
 134 664 l 1
 135 664 l 1
 280 581 282 578 289 578 c 2
 290 578 l 2
 297 578 298 580 443 664 c 1
 444 664 l 1
 462 642 l 1
 462 641 l 1
 290 470 l 1
 289 470 l 1
 117 641 l 1x20
38 222 m 0xd4
 38 338 112 453 291 453 c 0
 349 453 465 447 465 361 c 0
 465 319 433 298 402 298 c 0
 375 298 340 317 340 361 c 0xd8
 340 370 342 391 360 407 c 1
 347 410 330 413 295 413 c 0
 166 413 166 283 166 227 c 0
 166 181 166 34 305 34 c 0
 356 34 404 53 430 116 c 0
 435 129 436 131 454 131 c 0
 464 131 478 131 478 117 c 0
 478 110 448 -6 286 -6 c 0
 132 -6 38 89 38 222 c 0xd4
EndSplineSet
Substitution2: "'smcp' +wYy7OMeQxdDBHAAA +wYzWFQAA +swC7OMeQuFwA lookup 3 subtable" Ccaron.sc
EndChar

StartChar: Dcaron
Encoding: 270 270 206
Width: 881
GlyphClass: 2
Flags: MW
TeX: 894 0
HStem: 0 47<39 147 39 147 283 429 429 459.5> 639 47<39 147 39 469 283 283 283 429> 768 93<383 384 384 387> 878 26<213 225>
VStem: 147 136<47 639> 670 147<283.5 384.5>
AnchorPoint: "Anchor-5" 403 895 basechar 0
AnchorPoint: "Anchor-4" 403 0 basechar 0
LayerCount: 2
Fore
SplineSet
213 878 m 1
 225 904 l 1
 366 865 376 861 383 861 c 2
 384 861 l 2
 390 861 392 863 540 904 c 1
 552 878 l 1
 397 775 391 768 383 768 c 0
 374 768 377 769 213 878 c 1
39 0 m 1
 39 47 l 1
 147 47 l 1
 147 639 l 1
 39 639 l 1
 39 686 l 1
 469 686 l 2
 667 686 817 557 817 337 c 0
 817 123 667 0 470 0 c 2
 39 0 l 1
283 47 m 1
 429 47 l 2
 490 47 578 63 626 131 c 0
 658 176 670 229 670 338 c 0
 670 431 662 499 627 550 c 0
 578 620 495 639 429 639 c 2
 283 639 l 1
 283 47 l 1
EndSplineSet
Substitution2: "'c2sc' +swC7OMeQxdDBHAAA +wYzWFbMAuzjHkLhc lookup 4 subtable" Dcaron.sc
EndChar

StartChar: dcaron
Encoding: 271 271 207
Width: 810
GlyphClass: 2
Flags: MW
TeX: 690 0
HStem: -6 36<227 308.5> 0 47<570 601> 414 36<283.5 305.5 216 327.5> 598 156<632.5 667> 639 47<355 386> 674 20<532 532>
VStem: 38 128<186 245 186 291.5> 418 114<-6 86 43 86 103 353 353 353> 578 172<654.5 683.5 593.5 697.5>
LayerCount: 2
Fore
SplineSet
578 676 m 0x3380
 578 719 609 754 655 754 c 0
 701 754 750 717 750 650 c 0
 750 537 651 470 628 470 c 0
 619 470 610 480 610 489 c 0
 610 511 685 515 710 619 c 1
 693 605 678 598 656 598 c 0
 609 598 578 633 578 676 c 0x3380
38 221 m 0xa3
 38 362 143 450 289 450 c 0
 322 450 374 444 424 405 c 1
 424 600 l 2
 424 639 417 639 355 639 c 1
 355 686 l 1xab
 532 694 l 1
 532 86 l 2
 532 47 539 47 601 47 c 1
 601 0 l 1x67
 418 -6 l 1
 418 43 l 1
 387 18 339 -6 278 -6 c 0
 130 -6 38 89 38 221 c 0xa3
166 221 m 0
 166 151 166 30 288 30 c 0
 364 30 405 85 418 103 c 1
 418 353 l 1
 396 382 356 414 299 414 c 0
 268 414 221 404 192 362 c 0
 166 323 166 269 166 221 c 0
EndSplineSet
Substitution2: "'smcp' +wYy7OMeQxdDBHAAA +wYzWFQAA +swC7OMeQuFwA lookup 3 subtable" Dcaron.sc
EndChar

StartChar: Dcroat
Encoding: 272 272 208
Width: 882
GlyphClass: 2
Flags: MW
TeX: 686 0
HStem: 0 48<39 147 39 147 284 416 416 444> 313 47<58.5 147 67 147 284 454> 638 48<39 147 39 444 284 284 284 415>
VStem: 147 137<48 313 360 638> 670 148<318 352 352 384.5 237 409.5>
LayerCount: 2
Fore
SplineSet
39 0 m 1
 39 48 l 1
 147 48 l 1
 147 313 l 1
 67 313 l 2
 50 313 39 318 39 337 c 0
 39 354 50 360 67 360 c 2
 147 360 l 1
 147 638 l 1
 39 638 l 1
 39 686 l 1
 444 686 l 2
 540 686 639 672 720 593 c 0
 788 527 818 431 818 338 c 0
 818 136 687 18 510 2 c 0
 488 0 466 0 444 0 c 2
 39 0 l 1
284 48 m 1
 416 48 l 2
 480 48 563 56 619 122 c 0
 666 178 670 261 670 318 c 2
 670 352 l 2
 670 467 659 638 415 638 c 2
 284 638 l 1
 284 360 l 1
 454 360 l 2
 467 360 484 358 484 336 c 0
 484 313 465 313 454 313 c 2
 284 313 l 1
 284 48 l 1
EndSplineSet
Substitution2: "'locl' +rW2sAAAA,+ycDF7QAA +rODHINYV in +t3zS9AAA +x5AA lookup 13 subtable" Dcroat.vn
AlternateSubs2: "'ss01' +wqTQwMd8wTjSuAAA-1 lookup 12 subtable" Dcroat.vn
AlternateSubs2: "'salt' +wqTQwMd8ua0A +swDFSNYV in +t3zS9AAA +x5AA lookup 11 subtable" Dcroat.vn
Substitution2: "'c2sc' +swC7OMeQxdDBHAAA +wYzWFbMAuzjHkLhc lookup 4 subtable" Eth.sc
EndChar

StartChar: dcroat
Encoding: 273 273 209
Width: 639
GlyphClass: 2
Flags: MW
TeX: 690 0
HStem: -5 36<269 306> 0 48<591 602> 413 37<276 316 213.5 326> 520 48<201 424 201 424 533 584> 638 48<354 363 354 354> 674 20G<533 533>
VStem: 38 128<166 204 204 233 166 290.5> 418 115<-5 520 44 520 125 335 335 356.5>
LayerCount: 2
Fore
SplineSet
38 222 m 0xb3
 38 359 138 450 289 450 c 0
 343 450 386 433 424 405 c 1
 424 520 l 1
 201 520 l 1
 201 568 l 1
 424 568 l 1
 424 592 l 2
 424 631 423 638 363 638 c 2
 354 638 l 1
 354 686 l 1xbb
 533 694 l 1
 533 568 l 1
 584 568 l 1
 584 520 l 1
 533 520 l 1
 533 80 l 2
 534 52 545 48 591 48 c 2
 602 48 l 1
 602 0 l 1x77
 418 -5 l 1
 418 44 l 1
 380 14 336 -5 276 -5 c 0
 140 -5 38 81 38 222 c 0xb3
166 204 m 2
 166 128 179 96 193 77 c 0
 214 47 250 31 288 31 c 0
 360 31 410 84 417 105 c 0
 419 111 418 119 418 125 c 2
 418 335 l 2
 418 378 353 413 299 413 c 0
 253 413 215 395 192 360 c 0
 167 323 166 270 166 233 c 2
 166 204 l 2
EndSplineSet
Substitution2: "'locl' +rW2sAAAA,+ycDF7QAA +rODHINYV in +t3zS9AAA +x5AA lookup 13 subtable" dcroat.vn
AlternateSubs2: "'ss01' +wqTQwMd8wTjSuAAA-1 lookup 12 subtable" dcroat.vn
AlternateSubs2: "'salt' +wqTQwMd8ua0A +swDFSNYV in +t3zS9AAA +x5AA lookup 11 subtable" dcroat.vn
Substitution2: "'smcp' +wYy7OMeQxdDBHAAA +wYzWFQAA +swC7OMeQuFwA lookup 3 subtable" Eth.sc
EndChar

